<?xml version="1.0" standalone="no"?>
<!DOCTYPE svg PUBLIC "-//W3C//DTD SVG 1.1//EN" "http://www.w3.org/Graphics/SVG/1.1/DTD/svg11.dtd" >
<svg>
<defs>
<font id="FiraCode-Light-Powerline" horiz-adv-x="250" >
<font-face units-per-em="100" ascent="80" descent="-20" />
<glyph unicode=" " horiz-adv-x="60" d="" />
<glyph unicode="!" horiz-adv-x="60" d="M33.299999999999997 68.700000000000003 C31.500000000000000 68.699999999999989 27.899999999999977 68.699999999999989 26.100000000000023 68.699999999999989 C26.274999999999977 57.000000000000000 26.625000000000000 33.600000000000023 26.799999999999955 21.899999999999977 C28.299999999999955 21.899999999999977 31.299999999999955 21.899999999999977 32.799999999999955 21.899999999999977 C32.924999999999955 33.600000000000023 33.174999999999955 57.000000000000000 33.299999999999955 68.699999999999989 zM29.899999999999999 11.000000000000000 C26.399999999999977 11.000000000000000 23.899999999999977 8.399999999999977 23.899999999999977 5.100000000000023 C23.899999999999977 1.699999999999989 26.399999999999977 -1.000000000000000 29.899999999999977 -1.000000000000000 C33.399999999999977 -1.000000000000000 35.899999999999977 1.699999999999989 35.899999999999977 5.100000000000023 C35.899999999999977 8.399999999999977 33.399999999999977 11.000000000000000 29.899999999999977 11.000000000000000 z" />
<glyph unicode="&#x22;" horiz-adv-x="60" d="M18.899999999999999 48.399999999999999 C20.450000000000045 48.399999999999977 23.549999999999955 48.399999999999977 25.100000000000023 48.399999999999977 C25.475000000000023 54.750000000000000 26.225000000000023 67.449999999999989 26.600000000000023 73.800000000000011 C24.299999999999955 73.800000000000011 19.700000000000045 73.800000000000011 17.399999999999977 73.800000000000011 C17.774999999999977 67.449999999999989 18.524999999999977 54.750000000000000 18.899999999999977 48.399999999999977 zM34.899999999999999 48.399999999999999 C36.450000000000045 48.399999999999977 39.549999999999955 48.399999999999977 41.100000000000023 48.399999999999977 C41.475000000000023 54.750000000000000 42.225000000000023 67.449999999999989 42.600000000000023 73.800000000000011 C40.299999999999955 73.800000000000011 35.700000000000045 73.800000000000011 33.399999999999977 73.800000000000011 C33.774999999999977 67.449999999999989 34.524999999999977 54.750000000000000 34.899999999999977 48.399999999999977 z" />
<glyph unicode="#" horiz-adv-x="60" d="M44.899999999999999 45.899999999999999 C47.225000000000023 45.899999999999977 51.875000000000000 45.899999999999977 54.200000000000045 45.899999999999977 C54.200000000000045 47.250000000000000 54.200000000000045 49.949999999999989 54.200000000000045 51.300000000000011 C52.049999999999955 51.300000000000011 47.750000000000000 51.300000000000011 45.600000000000023 51.300000000000011 C46.200000000000045 55.649999999999977 47.399999999999977 64.350000000000023 48.000000000000000 68.699999999999989 C46.649999999999977 68.699999999999989 43.950000000000045 68.699999999999989 42.600000000000023 68.699999999999989 C42.024999999999977 64.350000000000023 40.875000000000000 55.649999999999977 40.299999999999955 51.300000000000011 C36.250000000000000 51.300000000000011 28.149999999999977 51.300000000000011 24.100000000000023 51.300000000000011 C24.725000000000023 55.649999999999977 25.975000000000023 64.350000000000023 26.600000000000023 68.699999999999989 C25.250000000000000 68.699999999999989 22.549999999999955 68.699999999999989 21.200000000000045 68.699999999999989 C20.600000000000023 64.350000000000023 19.399999999999977 55.649999999999977 18.799999999999955 51.300000000000011 C16.475000000000023 51.300000000000011 11.825000000000045 51.300000000000011 9.500000000000000 51.300000000000011 C9.500000000000000 49.949999999999989 9.500000000000000 47.250000000000000 9.500000000000000 45.899999999999977 C11.674999999999955 45.899999999999977 16.024999999999977 45.899999999999977 18.200000000000045 45.899999999999977 C17.399999999999977 40.175000000000011 15.799999999999955 28.725000000000023 15.000000000000000 23.000000000000000 C12.700000000000045 23.000000000000000 8.100000000000023 23.000000000000000 5.799999999999955 23.000000000000000 C5.799999999999955 21.675000000000011 5.799999999999955 19.024999999999977 5.799999999999955 17.699999999999989 C7.924999999999955 17.699999999999989 12.174999999999955 17.699999999999989 14.299999999999955 17.699999999999989 C13.700000000000045 13.274999999999977 12.500000000000000 4.425000000000011 11.899999999999977 0.000000000000000 C13.250000000000000 0.000000000000000 15.950000000000045 0.000000000000000 17.299999999999955 0.000000000000000 C17.899999999999977 4.425000000000011 19.100000000000023 13.274999999999977 19.700000000000045 17.699999999999989 C23.700000000000045 17.699999999999989 31.700000000000045 17.699999999999989 35.700000000000045 17.699999999999989 C35.125000000000000 13.274999999999977 33.975000000000023 4.425000000000011 33.399999999999977 0.000000000000000 C34.750000000000000 0.000000000000000 37.450000000000045 0.000000000000000 38.799999999999955 0.000000000000000 C39.350000000000023 4.425000000000011 40.450000000000045 13.274999999999977 41.000000000000000 17.699999999999989 C43.375000000000000 17.699999999999989 48.125000000000000 17.699999999999989 50.500000000000000 17.699999999999989 C50.500000000000000 19.024999999999977 50.500000000000000 21.675000000000011 50.500000000000000 23.000000000000000 C48.325000000000045 23.000000000000000 43.975000000000023 23.000000000000000 41.799999999999955 23.000000000000000 C42.575000000000045 28.725000000000023 44.125000000000000 40.175000000000011 44.899999999999977 45.899999999999977 zM20.399999999999999 23.000000000000000 C21.149999999999977 28.725000000000023 22.649999999999977 40.175000000000011 23.399999999999977 45.899999999999977 C27.450000000000045 45.899999999999977 35.549999999999955 45.899999999999977 39.600000000000023 45.899999999999977 C38.799999999999955 40.175000000000011 37.200000000000045 28.725000000000023 36.399999999999977 23.000000000000000 C32.399999999999977 23.000000000000000 24.399999999999977 23.000000000000000 20.399999999999977 23.000000000000000 z" />
<glyph unicode="$" horiz-adv-x="60" d="M34.500000000000000 84.599999999999994 C32.899999999999977 84.600000000000023 29.700000000000045 84.600000000000023 28.100000000000023 84.600000000000023 C28.100000000000023 80.824999999999989 28.100000000000023 73.274999999999977 28.100000000000023 69.500000000000000 C15.799999999999955 68.400000000000034 10.299999999999955 60.399999999999977 10.299999999999955 53.300000000000011 C10.299999999999955 44.100000000000023 17.200000000000045 38.199999999999989 28.100000000000023 34.600000000000023 C28.100000000000023 24.699999999999989 28.100000000000023 12.324999999999989 28.100000000000023 4.899999999999977 C21.299999999999955 5.500000000000000 16.000000000000000 8.699999999999989 11.899999999999977 13.100000000000023 C10.500000000000000 11.566666666666663 8.750000000000000 9.649999999999977 7.700000000000045 8.500000000000000 C12.000000000000000 4.199999999999989 18.799999999999955 -0.300000000000011 28.100000000000023 -0.899999999999977 C28.100000000000023 -5.600000000000023 28.100000000000023 -11.475000000000023 28.100000000000023 -15.000000000000000 C29.700000000000045 -15.000000000000000 32.899999999999977 -15.000000000000000 34.500000000000000 -15.000000000000000 C34.500000000000000 -11.399999999999977 34.500000000000000 -4.199999999999989 34.500000000000000 -0.600000000000023 C47.000000000000000 1.099999999999966 53.200000000000045 9.500000000000000 53.200000000000045 18.500000000000000 C53.200000000000045 30.800000000000011 43.500000000000000 36.500000000000000 34.500000000000000 39.399999999999977 C34.500000000000000 47.533333333333303 34.500000000000000 57.699999999999989 34.500000000000000 63.800000000000011 C39.700000000000045 63.000000000000000 44.200000000000045 60.699999999999989 48.100000000000023 57.000000000000000 C49.533333333333303 58.500000000000000 51.325000000000045 60.375000000000000 52.399999999999977 61.500000000000000 C48.500000000000000 65.100000000000023 42.399999999999977 68.699999999999989 34.500000000000000 69.500000000000000 C34.500000000000000 74.533333333333303 34.500000000000000 80.824999999999989 34.500000000000000 84.600000000000023 zM28.100000000000001 63.500000000000000 C28.100000000000023 57.975000000000023 28.100000000000023 46.925000000000011 28.100000000000023 41.399999999999977 C20.200000000000045 44.500000000000000 17.700000000000045 47.800000000000011 17.700000000000045 52.899999999999977 C17.700000000000045 59.300000000000011 22.200000000000045 62.500000000000000 28.100000000000023 63.500000000000000 zM34.500000000000000 32.500000000000000 C42.799999999999955 29.199999999999989 45.799999999999955 25.000000000000000 45.799999999999955 18.899999999999977 C45.799999999999955 11.199999999999989 41.899999999999977 6.800000000000011 34.500000000000000 5.399999999999977 C34.500000000000000 14.433333333333337 34.500000000000000 25.725000000000023 34.500000000000000 32.500000000000000 z" />
<glyph unicode="%" horiz-adv-x="60" d="M52.799999999999997 70.400000000000006 C40.024999999999977 53.250000000000000 14.475000000000023 18.949999999999989 1.700000000000045 1.800000000000011 C2.774999999999977 0.925000000000011 4.924999999999955 -0.824999999999989 6.000000000000000 -1.699999999999989 C18.825000000000045 15.449999999999989 44.475000000000023 49.750000000000000 57.299999999999955 66.899999999999977 C56.174999999999955 67.774999999999977 53.924999999999955 69.524999999999977 52.799999999999955 70.399999999999977 zM17.199999999999999 69.700000000000003 C7.799999999999955 69.699999999999989 2.299999999999955 62.100000000000023 2.299999999999955 53.500000000000000 C2.299999999999955 45.300000000000011 7.799999999999955 37.199999999999989 17.200000000000045 37.199999999999989 C26.700000000000045 37.199999999999989 32.000000000000000 45.300000000000011 32.000000000000000 53.500000000000000 C32.000000000000000 61.899999999999977 26.700000000000045 69.699999999999989 17.200000000000045 69.699999999999989 zM17.199999999999999 64.200000000000003 C21.399999999999977 64.199999999999989 25.000000000000000 61.300000000000011 25.000000000000000 53.500000000000000 C25.000000000000000 45.699999999999989 21.399999999999977 42.600000000000023 17.200000000000045 42.600000000000023 C12.799999999999955 42.600000000000023 9.299999999999955 46.500000000000000 9.299999999999955 53.500000000000000 C9.299999999999955 60.899999999999977 13.000000000000000 64.199999999999989 17.200000000000045 64.199999999999989 zM43.100000000000001 31.899999999999999 C33.700000000000045 31.899999999999977 28.200000000000045 24.199999999999989 28.200000000000045 15.699999999999989 C28.200000000000045 7.500000000000000 33.700000000000045 -0.600000000000023 43.100000000000023 -0.600000000000023 C52.600000000000023 -0.600000000000023 57.899999999999977 7.500000000000000 57.899999999999977 15.699999999999989 C57.899999999999977 24.100000000000023 52.600000000000023 31.899999999999977 43.100000000000023 31.899999999999977 zM43.100000000000001 26.399999999999999 C47.299999999999955 26.399999999999977 50.899999999999977 23.500000000000000 50.899999999999977 15.699999999999989 C50.899999999999977 7.899999999999977 47.299999999999955 4.800000000000011 43.100000000000023 4.800000000000011 C38.700000000000045 4.800000000000011 35.200000000000045 8.699999999999989 35.200000000000045 15.699999999999989 C35.200000000000045 23.399999999999977 38.899999999999977 26.399999999999977 43.100000000000023 26.399999999999977 z" />
<glyph unicode="&#x26;" horiz-adv-x="60" d="M27.899999999999999 69.599999999999994 C16.299999999999955 69.600000000000023 9.600000000000023 61.800000000000011 9.600000000000023 53.100000000000023 C9.600000000000023 47.500000000000000 12.299999999999955 41.000000000000000 21.600000000000023 38.899999999999977 C21.600000000000023 38.800000000000011 21.600000000000023 38.675000000000011 21.600000000000023 38.600000000000023 C11.399999999999977 36.600000000000023 5.899999999999977 29.500000000000000 5.899999999999977 19.399999999999977 C5.899999999999977 9.699999999999989 12.000000000000000 -1.000000000000000 27.500000000000000 -1.000000000000000 C39.000000000000000 -1.000000000000000 44.899999999999977 4.800000000000011 47.600000000000023 8.399999999999977 C47.600000000000023 17.600000000000023 47.600000000000023 29.100000000000023 47.600000000000023 36.000000000000000 C50.000000000000000 36.000000000000000 54.799999999999955 36.000000000000000 57.200000000000045 36.000000000000000 C57.200000000000045 37.399999999999977 57.200000000000045 40.199999999999989 57.200000000000045 41.600000000000023 C50.149999999999977 41.600000000000023 36.049999999999955 41.600000000000023 29.000000000000000 41.600000000000023 C21.600000000000023 41.600000000000023 15.700000000000045 47.399999999999977 15.700000000000045 53.699999999999989 C15.700000000000045 60.000000000000000 19.500000000000000 64.600000000000023 27.200000000000045 64.600000000000023 C32.600000000000023 64.600000000000023 36.200000000000045 62.500000000000000 39.799999999999955 58.399999999999977 C41.133333333333326 59.666666666666686 42.799999999999955 61.250000000000000 43.799999999999955 62.199999999999989 C38.299999999999955 68.300000000000011 33.200000000000045 69.600000000000023 27.899999999999977 69.600000000000023 zM42.000000000000000 36.000000000000000 C42.000000000000000 29.600000000000023 42.000000000000000 16.800000000000011 42.000000000000000 10.399999999999977 C38.899999999999977 6.500000000000000 33.700000000000045 4.399999999999977 27.600000000000023 4.399999999999977 C16.399999999999977 4.399999999999977 12.000000000000000 12.000000000000000 12.000000000000000 19.399999999999977 C12.000000000000000 26.800000000000011 16.600000000000023 36.000000000000000 27.600000000000023 36.000000000000000 C32.399999999999977 36.000000000000000 38.399999999999977 36.000000000000000 42.000000000000000 36.000000000000000 z" />
<glyph unicode="'" horiz-adv-x="60" d="M26.899999999999999 48.399999999999999 C28.475000000000023 48.399999999999977 31.625000000000000 48.399999999999977 33.200000000000045 48.399999999999977 C33.549999999999955 54.750000000000000 34.250000000000000 67.449999999999989 34.600000000000023 73.800000000000011 C32.299999999999955 73.800000000000011 27.700000000000045 73.800000000000011 25.399999999999977 73.800000000000011 C25.774999999999977 67.449999999999989 26.524999999999977 54.750000000000000 26.899999999999977 48.399999999999977 z" />
<glyph unicode="(" horiz-adv-x="60" d="M19.899999999999999 35.000000000000000 C19.899999999999977 57.300000000000011 27.200000000000045 67.699999999999989 41.899999999999977 80.000000000000000 C40.933333333333280 81.166666666666686 39.725000000000023 82.625000000000000 39.000000000000000 83.500000000000000 C22.600000000000023 70.300000000000011 13.200000000000045 58.100000000000023 13.200000000000045 35.000000000000000 C13.200000000000045 11.899999999999977 22.600000000000023 -0.300000000000011 39.000000000000000 -13.500000000000000 C39.966666666666697 -12.333333333333314 41.174999999999955 -10.875000000000000 41.899999999999977 -10.000000000000000 C27.700000000000045 1.800000000000011 19.899999999999977 12.800000000000011 19.899999999999977 35.000000000000000 z" />
<glyph unicode=")" horiz-adv-x="60" d="M40.100000000000001 35.000000000000000 C40.100000000000023 12.800000000000011 32.299999999999955 1.800000000000011 18.100000000000023 -10.000000000000000 C19.066666666666720 -11.166666666666686 20.274999999999977 -12.625000000000000 21.000000000000000 -13.500000000000000 C37.399999999999977 -0.300000000000011 46.799999999999955 11.899999999999977 46.799999999999955 35.000000000000000 C46.799999999999955 58.100000000000023 37.399999999999977 70.300000000000011 21.000000000000000 83.500000000000000 C20.033333333333303 82.333333333333314 18.825000000000045 80.875000000000000 18.100000000000023 80.000000000000000 C32.799999999999955 67.699999999999989 40.100000000000023 57.300000000000011 40.100000000000023 35.000000000000000 z" />
<glyph unicode="*" horiz-adv-x="60" d="M33.500000000000000 52.500000000000000 C31.774999999999977 52.500000000000000 28.325000000000045 52.500000000000000 26.600000000000023 52.500000000000000 C26.899999999999977 48.300000000000011 27.500000000000000 39.899999999999977 27.799999999999955 35.699999999999989 C23.924999999999955 37.250000000000000 16.174999999999955 40.350000000000023 12.299999999999955 41.899999999999977 C11.774999999999977 40.225000000000023 10.725000000000023 36.875000000000000 10.200000000000045 35.199999999999989 C14.250000000000000 34.225000000000023 22.350000000000023 32.274999999999977 26.399999999999977 31.300000000000011 C23.725000000000023 28.024999999999977 18.375000000000000 21.475000000000023 15.700000000000045 18.199999999999989 C17.200000000000045 17.250000000000000 20.200000000000045 15.350000000000023 21.700000000000045 14.399999999999977 C23.825000000000045 18.024999999999977 28.075000000000045 25.274999999999977 30.200000000000045 28.899999999999977 C32.475000000000023 25.324999999999989 37.024999999999977 18.175000000000011 39.299999999999955 14.600000000000023 C40.700000000000045 15.699999999999989 43.500000000000000 17.899999999999977 44.899999999999977 19.000000000000000 C42.125000000000000 22.100000000000023 36.575000000000045 28.300000000000011 33.799999999999955 31.399999999999977 C37.825000000000045 32.350000000000023 45.875000000000000 34.250000000000000 49.899999999999977 35.199999999999989 C49.375000000000000 36.875000000000000 48.325000000000045 40.225000000000023 47.799999999999955 41.899999999999977 C43.899999999999977 40.350000000000023 36.100000000000023 37.250000000000000 32.200000000000045 35.699999999999989 C32.524999999999977 39.899999999999977 33.174999999999955 48.300000000000011 33.500000000000000 52.500000000000000 z" />
<glyph unicode="+" horiz-adv-x="60" d="M33.000000000000000 48.500000000000000 C31.450000000000045 48.500000000000000 28.350000000000023 48.500000000000000 26.799999999999955 48.500000000000000 C26.799999999999955 44.824999999999989 26.799999999999955 37.475000000000023 26.799999999999955 33.800000000000011 C23.225000000000023 33.800000000000011 16.075000000000045 33.800000000000011 12.500000000000000 33.800000000000011 C12.500000000000000 32.425000000000011 12.500000000000000 29.675000000000011 12.500000000000000 28.300000000000011 C16.075000000000045 28.300000000000011 23.225000000000023 28.300000000000011 26.799999999999955 28.300000000000011 C26.799999999999955 24.649999999999977 26.799999999999955 17.350000000000023 26.799999999999955 13.699999999999989 C28.350000000000023 13.699999999999989 31.450000000000045 13.699999999999989 33.000000000000000 13.699999999999989 C33.000000000000000 17.350000000000023 33.000000000000000 24.649999999999977 33.000000000000000 28.300000000000011 C36.625000000000000 28.300000000000011 43.875000000000000 28.300000000000011 47.500000000000000 28.300000000000011 C47.500000000000000 29.675000000000011 47.500000000000000 32.425000000000011 47.500000000000000 33.800000000000011 C43.875000000000000 33.800000000000011 36.625000000000000 33.800000000000011 33.000000000000000 33.800000000000011 C33.000000000000000 37.475000000000023 33.000000000000000 44.824999999999989 33.000000000000000 48.500000000000000 z" />
<glyph unicode="," horiz-adv-x="60" d="M30.000000000000000 15.199999999999999 C26.000000000000000 15.199999999999989 22.799999999999955 12.000000000000000 22.799999999999955 8.000000000000000 C22.799999999999955 5.699999999999989 24.000000000000000 3.399999999999977 25.600000000000023 2.100000000000023 C24.066666666666720 -4.333333333333314 22.149999999999977 -12.375000000000000 21.000000000000000 -17.199999999999989 C22.674999999999955 -17.199999999999989 26.024999999999977 -17.199999999999989 27.700000000000045 -17.199999999999989 C29.774999999999977 -12.399999999999977 33.924999999999955 -2.800000000000011 36.000000000000000 2.000000000000000 C37.100000000000023 4.100000000000023 37.299999999999955 6.100000000000023 37.299999999999955 8.100000000000023 C37.299999999999955 12.000000000000000 34.100000000000023 15.199999999999989 30.000000000000000 15.199999999999989 z" />
<glyph unicode="-" horiz-adv-x="60" d="M13.000000000000000 28.399999999999999 C21.500000000000000 28.399999999999977 38.500000000000000 28.399999999999977 47.000000000000000 28.399999999999977 C47.000000000000000 29.850000000000023 47.000000000000000 32.750000000000000 47.000000000000000 34.199999999999989 C38.500000000000000 34.199999999999989 21.500000000000000 34.199999999999989 13.000000000000000 34.199999999999989 C13.000000000000000 32.750000000000000 13.000000000000000 29.850000000000023 13.000000000000000 28.399999999999977 z" />
<glyph unicode="." horiz-adv-x="60" d="M21.800000000000001 7.200000000000000 C21.799999999999955 2.500000000000000 25.200000000000045 -1.000000000000000 29.899999999999977 -1.000000000000000 C34.600000000000023 -1.000000000000000 38.000000000000000 2.500000000000000 38.000000000000000 7.199999999999989 C38.000000000000000 11.699999999999989 34.600000000000023 15.199999999999989 29.899999999999977 15.199999999999989 C25.200000000000045 15.199999999999989 21.799999999999955 11.699999999999989 21.799999999999955 7.199999999999989 z" />
<glyph unicode="/" horiz-adv-x="60" d="M11.100000000000000 -10.000000000000000 C21.825000000000045 12.050000000000011 43.274999999999977 56.149999999999977 54.000000000000000 78.199999999999989 C52.750000000000000 78.824999999999989 50.250000000000000 80.074999999999989 49.000000000000000 80.699999999999989 C38.250000000000000 58.574999999999989 16.750000000000000 14.324999999999989 6.000000000000000 -7.800000000000011 C7.274999999999977 -8.350000000000023 9.825000000000045 -9.449999999999989 11.100000000000023 -10.000000000000000 z" />
<glyph unicode="0" horiz-adv-x="60" d="M30.000000000000000 69.700000000000003 C15.799999999999955 69.699999999999989 8.200000000000045 57.199999999999989 8.200000000000045 34.399999999999977 C8.200000000000045 11.500000000000000 15.799999999999955 -1.000000000000000 30.000000000000000 -1.000000000000000 C44.299999999999955 -1.000000000000000 51.799999999999955 11.500000000000000 51.799999999999955 34.399999999999977 C51.799999999999955 57.199999999999989 44.299999999999955 69.699999999999989 30.000000000000000 69.699999999999989 zM30.000000000000000 64.299999999999997 C39.299999999999955 64.300000000000011 45.000000000000000 55.199999999999989 45.000000000000000 34.399999999999977 C45.000000000000000 13.399999999999977 39.200000000000045 4.500000000000000 30.000000000000000 4.500000000000000 C20.899999999999977 4.500000000000000 15.100000000000023 13.600000000000023 15.100000000000023 34.399999999999977 C15.100000000000023 55.399999999999977 20.899999999999977 64.300000000000011 30.000000000000000 64.300000000000011 zM30.000000000000000 41.000000000000000 C26.299999999999955 41.000000000000000 23.500000000000000 38.100000000000023 23.500000000000000 34.500000000000000 C23.500000000000000 30.800000000000011 26.299999999999955 27.899999999999977 30.000000000000000 27.899999999999977 C33.799999999999955 27.899999999999977 36.600000000000023 30.800000000000011 36.600000000000023 34.500000000000000 C36.600000000000023 38.100000000000023 33.799999999999955 41.000000000000000 30.000000000000000 41.000000000000000 z" />
<glyph unicode="1" horiz-adv-x="60" d="M36.000000000000000 5.300000000000000 C36.000000000000000 21.149999999999977 36.000000000000000 52.850000000000023 36.000000000000000 68.699999999999989 C34.649999999999977 68.699999999999989 31.950000000000045 68.699999999999989 30.600000000000023 68.699999999999989 C25.600000000000023 65.600000000000023 15.600000000000023 59.399999999999977 10.600000000000023 56.300000000000011 C11.299999999999955 55.175000000000011 12.700000000000045 52.925000000000011 13.399999999999977 51.800000000000011 C17.450000000000045 54.225000000000023 25.549999999999955 59.074999999999989 29.600000000000023 61.500000000000000 C29.600000000000023 47.449999999999989 29.600000000000023 19.350000000000023 29.600000000000023 5.300000000000011 C25.350000000000023 5.300000000000011 16.850000000000023 5.300000000000011 12.600000000000023 5.300000000000011 C12.600000000000023 3.975000000000023 12.600000000000023 1.324999999999989 12.600000000000023 0.000000000000000 C22.125000000000000 0.000000000000000 41.174999999999955 0.000000000000000 50.700000000000045 0.000000000000000 C50.700000000000045 1.324999999999989 50.700000000000045 3.975000000000023 50.700000000000045 5.300000000000011 C47.024999999999977 5.300000000000011 39.674999999999955 5.300000000000011 36.000000000000000 5.300000000000011 z" />
<glyph unicode="2" horiz-adv-x="60" d="M26.699999999999999 69.700000000000003 C18.000000000000000 69.699999999999989 12.000000000000000 66.800000000000011 6.500000000000000 60.399999999999977 C8.033333333333303 59.166666666666686 9.950000000000045 57.625000000000000 11.100000000000023 56.699999999999989 C15.700000000000045 61.899999999999977 19.500000000000000 64.100000000000023 26.700000000000045 64.100000000000023 C34.899999999999977 64.100000000000023 39.899999999999977 59.000000000000000 39.899999999999977 50.699999999999989 C39.899999999999977 38.600000000000023 34.799999999999955 31.300000000000011 7.899999999999977 5.500000000000000 C7.899999999999977 3.666666666666686 7.899999999999977 1.375000000000000 7.899999999999977 0.000000000000000 C17.750000000000000 0.000000000000000 37.450000000000045 0.000000000000000 47.299999999999955 0.000000000000000 C47.524999999999977 1.425000000000011 47.975000000000023 4.274999999999977 48.200000000000045 5.699999999999989 C39.875000000000000 5.699999999999989 23.225000000000023 5.699999999999989 14.899999999999977 5.699999999999989 C38.100000000000023 27.000000000000000 46.600000000000023 37.600000000000023 46.600000000000023 50.600000000000023 C46.600000000000023 61.699999999999989 38.899999999999977 69.699999999999989 26.700000000000045 69.699999999999989 z" />
<glyph unicode="3" horiz-adv-x="60" d="M26.800000000000001 69.700000000000003 C20.500000000000000 69.699999999999989 14.200000000000045 67.500000000000000 8.399999999999977 62.100000000000023 C9.600000000000023 60.733333333333348 11.100000000000023 59.024999999999977 12.000000000000000 58.000000000000000 C16.799999999999955 62.399999999999977 20.799999999999955 64.399999999999977 26.799999999999955 64.399999999999977 C34.500000000000000 64.399999999999977 40.700000000000045 60.000000000000000 40.700000000000045 51.800000000000011 C40.700000000000045 42.899999999999977 33.700000000000045 38.899999999999977 26.899999999999977 38.899999999999977 C25.600000000000023 38.899999999999977 23.975000000000023 38.899999999999977 23.000000000000000 38.899999999999977 C22.799999999999955 37.550000000000011 22.399999999999977 34.850000000000023 22.200000000000045 33.500000000000000 C23.575000000000045 33.500000000000000 26.325000000000045 33.500000000000000 27.700000000000045 33.500000000000000 C36.100000000000023 33.500000000000000 42.799999999999955 30.199999999999989 42.799999999999955 19.600000000000023 C42.799999999999955 10.399999999999977 36.799999999999955 4.399999999999977 26.399999999999977 4.399999999999977 C20.700000000000045 4.399999999999977 14.700000000000045 6.699999999999989 10.799999999999955 11.300000000000011 C9.266666666666652 10.133333333333326 7.350000000000023 8.675000000000011 6.200000000000045 7.800000000000011 C11.200000000000045 1.500000000000000 19.399999999999977 -1.000000000000000 26.299999999999955 -1.000000000000000 C39.899999999999977 -1.000000000000000 49.399999999999977 7.899999999999977 49.399999999999977 19.899999999999977 C49.399999999999977 30.399999999999977 41.500000000000000 36.300000000000011 34.000000000000000 36.699999999999989 C40.799999999999955 37.800000000000011 47.200000000000045 44.399999999999977 47.200000000000045 52.600000000000023 C47.200000000000045 61.800000000000011 39.200000000000045 69.699999999999989 26.799999999999955 69.699999999999989 z" />
<glyph unicode="4" horiz-adv-x="60" d="M52.100000000000001 22.600000000000001 C49.725000000000023 22.600000000000023 44.975000000000023 22.600000000000023 42.600000000000023 22.600000000000023 C42.600000000000023 27.699999999999989 42.600000000000023 37.899999999999977 42.600000000000023 43.000000000000000 C41.200000000000045 43.000000000000000 38.399999999999977 43.000000000000000 37.000000000000000 43.000000000000000 C36.899999999999977 37.899999999999977 36.700000000000045 27.699999999999989 36.600000000000023 22.600000000000023 C31.125000000000000 22.600000000000023 20.174999999999955 22.600000000000023 14.700000000000045 22.600000000000023 C19.424999999999955 33.774999999999977 28.875000000000000 56.125000000000000 33.600000000000023 67.300000000000011 C32.325000000000045 67.899999999999977 29.774999999999977 69.100000000000023 28.500000000000000 69.699999999999989 C23.375000000000000 57.824999999999989 13.125000000000000 34.074999999999989 8.000000000000000 22.199999999999989 C8.000000000000000 21.000000000000000 8.000000000000000 18.600000000000023 8.000000000000000 17.399999999999977 C15.149999999999977 17.399999999999977 29.450000000000045 17.399999999999977 36.600000000000023 17.399999999999977 C36.575000000000045 13.050000000000011 36.524999999999977 4.350000000000023 36.500000000000000 0.000000000000000 C38.024999999999977 0.000000000000000 41.075000000000045 0.000000000000000 42.600000000000023 0.000000000000000 C42.600000000000023 4.350000000000023 42.600000000000023 13.050000000000011 42.600000000000023 17.399999999999977 C44.975000000000023 17.399999999999977 49.725000000000023 17.399999999999977 52.100000000000023 17.399999999999977 C52.100000000000023 18.699999999999989 52.100000000000023 21.300000000000011 52.100000000000023 22.600000000000023 z" />
<glyph unicode="5" horiz-adv-x="60" d="M47.899999999999999 68.700000000000003 C39.200000000000045 68.699999999999989 21.799999999999955 68.699999999999989 13.100000000000023 68.699999999999989 C13.100000000000023 60.324999999999989 13.100000000000023 43.574999999999989 13.100000000000023 35.199999999999989 C14.500000000000000 35.199999999999989 17.299999999999955 35.199999999999989 18.700000000000045 35.199999999999989 C23.000000000000000 36.600000000000023 25.600000000000023 37.500000000000000 30.100000000000023 37.500000000000000 C37.500000000000000 37.500000000000000 43.500000000000000 33.699999999999989 43.500000000000000 21.899999999999977 C43.500000000000000 10.199999999999989 37.899999999999977 4.399999999999977 28.299999999999955 4.399999999999977 C22.100000000000023 4.399999999999977 17.299999999999955 6.500000000000000 12.899999999999977 10.800000000000011 C11.533333333333303 9.433333333333337 9.825000000000045 7.725000000000023 8.799999999999955 6.699999999999989 C14.200000000000045 1.800000000000011 20.100000000000023 -1.000000000000000 27.899999999999977 -1.000000000000000 C41.500000000000000 -1.000000000000000 50.000000000000000 7.800000000000011 50.000000000000000 21.500000000000000 C50.000000000000000 35.199999999999989 42.799999999999955 42.899999999999977 31.399999999999977 42.899999999999977 C26.899999999999977 42.899999999999977 23.399999999999977 42.100000000000023 19.000000000000000 39.600000000000023 C19.000000000000000 47.533333333333303 19.000000000000000 57.449999999999989 19.000000000000000 63.399999999999977 C25.950000000000045 63.399999999999977 39.850000000000023 63.399999999999977 46.799999999999955 63.399999999999977 C47.075000000000045 64.725000000000023 47.625000000000000 67.375000000000000 47.899999999999977 68.699999999999989 z" />
<glyph unicode="6" horiz-adv-x="60" d="M32.100000000000001 44.299999999999997 C24.799999999999955 44.300000000000011 19.299999999999955 41.399999999999977 14.899999999999977 34.199999999999989 C15.100000000000023 52.199999999999989 21.299999999999955 64.199999999999989 32.799999999999955 64.199999999999989 C36.899999999999977 64.199999999999989 40.500000000000000 63.100000000000023 43.799999999999955 61.199999999999989 C44.633333333333326 62.699999999999989 45.674999999999955 64.574999999999989 46.299999999999955 65.699999999999989 C42.399999999999977 68.300000000000011 38.200000000000045 69.699999999999989 33.100000000000023 69.699999999999989 C17.700000000000045 69.699999999999989 8.799999999999955 55.600000000000023 8.799999999999955 32.899999999999977 C8.799999999999955 11.600000000000023 14.600000000000023 -1.000000000000000 30.799999999999955 -1.000000000000000 C41.799999999999955 -1.000000000000000 51.600000000000023 7.399999999999977 51.600000000000023 23.100000000000023 C51.600000000000023 37.800000000000011 42.600000000000023 44.300000000000011 32.100000000000023 44.300000000000011 zM30.699999999999999 4.500000000000000 C20.100000000000023 4.500000000000000 15.399999999999977 11.500000000000000 15.000000000000000 27.500000000000000 C18.500000000000000 34.000000000000000 24.100000000000023 38.699999999999989 31.600000000000023 38.699999999999989 C39.600000000000023 38.699999999999989 45.100000000000023 34.899999999999977 45.100000000000023 23.000000000000000 C45.100000000000023 11.300000000000011 40.200000000000045 4.500000000000000 30.700000000000045 4.500000000000000 z" />
<glyph unicode="7" horiz-adv-x="60" d="M22.000000000000000 -0.700000000000000 C28.924999999999955 15.350000000000023 42.774999999999977 47.449999999999989 49.700000000000045 63.500000000000000 C49.700000000000045 64.800000000000011 49.700000000000045 67.399999999999977 49.700000000000045 68.699999999999989 C39.924999999999955 68.699999999999989 20.375000000000000 68.699999999999989 10.600000000000023 68.699999999999989 C10.600000000000023 67.324999999999989 10.600000000000023 64.574999999999989 10.600000000000023 63.199999999999989 C18.799999999999955 63.199999999999989 35.200000000000045 63.199999999999989 43.399999999999977 63.199999999999989 C36.625000000000000 47.625000000000000 23.075000000000045 16.475000000000023 16.299999999999955 0.899999999999977 C17.725000000000023 0.500000000000000 20.575000000000045 -0.300000000000011 22.000000000000000 -0.699999999999989 z" />
<glyph unicode="8" horiz-adv-x="60" d="M49.899999999999999 52.399999999999999 C49.899999999999977 64.899999999999977 38.899999999999977 69.699999999999989 30.000000000000000 69.699999999999989 C22.100000000000023 69.699999999999989 10.100000000000023 64.899999999999977 10.100000000000023 52.000000000000000 C10.100000000000023 44.300000000000011 14.000000000000000 39.600000000000023 21.399999999999977 36.399999999999977 C12.799999999999955 32.399999999999977 7.200000000000045 26.899999999999977 7.200000000000045 18.300000000000011 C7.200000000000045 7.300000000000011 15.700000000000045 -1.000000000000000 29.799999999999955 -1.000000000000000 C43.500000000000000 -1.000000000000000 52.799999999999955 6.899999999999977 52.799999999999955 18.399999999999977 C52.799999999999955 27.000000000000000 46.500000000000000 33.300000000000011 37.600000000000023 36.699999999999989 C45.299999999999955 40.899999999999977 49.899999999999977 45.600000000000023 49.899999999999977 52.399999999999977 zM16.300000000000001 51.899999999999999 C16.299999999999955 59.699999999999989 21.399999999999977 64.399999999999977 30.000000000000000 64.399999999999977 C38.600000000000023 64.399999999999977 43.700000000000045 59.699999999999989 43.700000000000045 52.199999999999989 C43.700000000000045 45.300000000000011 39.899999999999977 42.000000000000000 33.000000000000000 38.300000000000011 C22.899999999999977 41.500000000000000 16.299999999999955 43.100000000000023 16.299999999999955 51.899999999999977 zM46.000000000000000 18.199999999999999 C46.000000000000000 10.300000000000011 40.100000000000023 4.500000000000000 29.700000000000045 4.500000000000000 C19.299999999999955 4.500000000000000 14.000000000000000 9.500000000000000 14.000000000000000 18.000000000000000 C14.000000000000000 27.500000000000000 19.799999999999955 32.000000000000000 26.000000000000000 34.600000000000023 C37.299999999999955 30.699999999999989 46.000000000000000 28.199999999999989 46.000000000000000 18.199999999999989 z" />
<glyph unicode="9" horiz-adv-x="60" d="M28.699999999999999 69.500000000000000 C16.899999999999977 69.500000000000000 7.299999999999955 62.300000000000011 7.299999999999955 47.500000000000000 C7.299999999999955 33.699999999999989 15.500000000000000 25.500000000000000 27.100000000000023 25.600000000000023 C35.100000000000023 25.800000000000068 40.899999999999977 30.199999999999989 43.399999999999977 34.600000000000023 C43.533333333333303 36.166666666666686 43.700000000000045 38.125000000000000 43.799999999999955 39.300000000000011 C43.799999999999955 39.199999999999989 43.700000000000045 39.100000000000023 43.700000000000045 39.000000000000000 C43.666666666666629 37.600000000000023 43.625000000000000 35.850000000000023 43.600000000000023 34.800000000000011 C44.299999999999955 16.399999999999977 32.500000000000000 8.199999999999989 13.700000000000045 3.199999999999989 C14.233333333333348 1.533333333333360 14.899999999999977 -0.550000000000011 15.299999999999955 -1.800000000000011 C40.000000000000000 5.699999999999989 50.299999999999955 13.000000000000000 50.299999999999955 43.300000000000011 C50.299999999999955 59.699999999999989 43.600000000000023 69.500000000000000 28.700000000000045 69.500000000000000 zM27.600000000000001 31.100000000000001 C18.899999999999977 30.900000000000034 13.899999999999977 35.899999999999977 13.899999999999977 47.000000000000000 C13.899999999999977 58.100000000000023 18.899999999999977 64.000000000000000 28.799999999999955 64.000000000000000 C38.700000000000045 64.000000000000000 44.000000000000000 59.000000000000000 43.799999999999955 42.199999999999989 C40.100000000000023 35.699999999999989 35.000000000000000 31.199999999999989 27.600000000000023 31.100000000000023 z" />
<glyph unicode=":" horiz-adv-x="60" d="M22.600000000000001 43.000000000000000 C22.600000000000023 38.899999999999977 25.700000000000045 35.500000000000000 29.899999999999977 35.500000000000000 C34.200000000000045 35.500000000000000 37.299999999999955 38.899999999999977 37.299999999999955 43.000000000000000 C37.299999999999955 47.100000000000023 34.200000000000045 50.300000000000011 29.899999999999977 50.300000000000011 C25.700000000000045 50.300000000000011 22.600000000000023 47.100000000000023 22.600000000000023 43.000000000000000 zM22.600000000000001 6.500000000000000 C22.600000000000023 2.199999999999989 25.700000000000045 -1.000000000000000 29.899999999999977 -1.000000000000000 C34.200000000000045 -1.000000000000000 37.299999999999955 2.199999999999989 37.299999999999955 6.500000000000000 C37.299999999999955 10.399999999999977 34.200000000000045 13.800000000000011 29.899999999999977 13.800000000000011 C25.700000000000045 13.800000000000011 22.600000000000023 10.399999999999977 22.600000000000023 6.500000000000000 z" />
<glyph unicode=";" horiz-adv-x="60" d="M29.899999999999999 50.299999999999997 C25.700000000000045 50.300000000000011 22.600000000000023 47.100000000000023 22.600000000000023 43.000000000000000 C22.600000000000023 38.899999999999977 25.700000000000045 35.500000000000000 29.899999999999977 35.500000000000000 C34.200000000000045 35.500000000000000 37.299999999999955 38.899999999999977 37.299999999999955 43.000000000000000 C37.299999999999955 47.100000000000023 34.200000000000045 50.300000000000011 29.899999999999977 50.300000000000011 zM29.899999999999999 15.600000000000000 C25.700000000000045 15.600000000000023 22.600000000000023 12.300000000000011 22.600000000000023 8.199999999999989 C22.600000000000023 5.800000000000011 23.700000000000045 3.500000000000000 25.399999999999977 2.100000000000023 C23.833333333333371 -4.433333333333337 21.875000000000000 -12.600000000000023 20.700000000000045 -17.500000000000000 C22.399999999999977 -17.500000000000000 25.799999999999955 -17.500000000000000 27.500000000000000 -17.500000000000000 C29.625000000000000 -12.625000000000000 33.875000000000000 -2.875000000000000 36.000000000000000 2.000000000000000 C37.100000000000023 4.300000000000011 37.299999999999955 6.199999999999989 37.299999999999955 8.300000000000011 C37.299999999999955 12.300000000000011 34.100000000000023 15.600000000000023 29.899999999999977 15.600000000000023 z" />
<glyph unicode="&#x3c;" horiz-adv-x="60" d="M47.500000000000000 58.899999999999999 C37.975000000000023 53.000000000000000 18.924999999999955 41.199999999999989 9.399999999999977 35.300000000000011 C9.399999999999977 33.324999999999989 9.399999999999977 29.375000000000000 9.399999999999977 27.399999999999977 C18.825000000000045 21.500000000000000 37.674999999999955 9.699999999999989 47.100000000000023 3.800000000000011 C48.024999999999977 4.949999999999989 49.875000000000000 7.250000000000000 50.799999999999955 8.399999999999977 C41.750000000000000 14.125000000000000 23.649999999999977 25.574999999999989 14.600000000000023 31.300000000000011 C23.649999999999977 36.925000000000011 41.750000000000000 48.175000000000011 50.799999999999955 53.800000000000011 C49.975000000000023 55.074999999999989 48.325000000000045 57.625000000000000 47.500000000000000 58.899999999999977 z" />
<glyph unicode="=" horiz-adv-x="60" d="M48.500000000000000 43.100000000000001 C39.250000000000000 43.100000000000023 20.750000000000000 43.100000000000023 11.500000000000000 43.100000000000023 C11.500000000000000 41.675000000000011 11.500000000000000 38.824999999999989 11.500000000000000 37.399999999999977 C20.750000000000000 37.399999999999977 39.250000000000000 37.399999999999977 48.500000000000000 37.399999999999977 C48.500000000000000 38.824999999999989 48.500000000000000 41.675000000000011 48.500000000000000 43.100000000000023 zM48.500000000000000 24.800000000000001 C39.250000000000000 24.800000000000011 20.750000000000000 24.800000000000011 11.500000000000000 24.800000000000011 C11.500000000000000 23.350000000000023 11.500000000000000 20.449999999999989 11.500000000000000 19.000000000000000 C20.750000000000000 19.000000000000000 39.250000000000000 19.000000000000000 48.500000000000000 19.000000000000000 C48.500000000000000 20.449999999999989 48.500000000000000 23.350000000000023 48.500000000000000 24.800000000000011 z" />
<glyph unicode="&#x3e;" horiz-adv-x="60" d="M12.600000000000000 58.899999999999999 C11.799999999999955 57.675000000000011 10.200000000000045 55.225000000000023 9.399999999999977 54.000000000000000 C18.424999999999955 48.324999999999989 36.475000000000023 36.975000000000023 45.500000000000000 31.300000000000011 C36.475000000000023 25.649999999999977 18.424999999999955 14.350000000000023 9.399999999999977 8.699999999999989 C10.325000000000045 7.475000000000023 12.174999999999955 5.024999999999977 13.100000000000023 3.800000000000011 C22.524999999999977 9.699999999999989 41.375000000000000 21.500000000000000 50.799999999999955 27.399999999999977 C50.799999999999955 29.350000000000023 50.799999999999955 33.250000000000000 50.799999999999955 35.199999999999989 C41.250000000000000 41.125000000000000 22.149999999999977 52.975000000000023 12.600000000000023 58.899999999999977 z" />
<glyph unicode="?" horiz-adv-x="60" d="M30.000000000000000 69.700000000000003 C22.700000000000045 69.699999999999989 15.799999999999955 66.899999999999977 10.000000000000000 60.000000000000000 C11.566666666666720 58.866666666666674 13.524999999999977 57.449999999999989 14.700000000000045 56.600000000000023 C19.100000000000023 62.000000000000000 24.600000000000023 64.300000000000011 29.399999999999977 64.300000000000011 C36.700000000000045 64.300000000000011 42.299999999999955 60.699999999999989 42.299999999999955 54.300000000000011 C42.299999999999955 42.100000000000023 24.299999999999955 42.100000000000023 24.299999999999955 26.199999999999989 C24.299999999999955 24.766666666666652 24.299999999999955 22.975000000000023 24.299999999999955 21.899999999999977 C25.950000000000045 21.899999999999977 29.250000000000000 21.899999999999977 30.899999999999977 21.899999999999977 C30.899999999999977 22.850000000000023 30.899999999999977 24.750000000000000 30.899999999999977 25.699999999999989 C30.899999999999977 41.199999999999989 48.799999999999955 38.699999999999989 48.799999999999955 54.600000000000023 C48.799999999999955 62.199999999999989 41.399999999999977 69.699999999999989 30.000000000000000 69.699999999999989 zM27.899999999999999 11.000000000000000 C24.500000000000000 11.000000000000000 21.899999999999977 8.399999999999977 21.899999999999977 5.100000000000023 C21.899999999999977 1.699999999999989 24.500000000000000 -1.000000000000000 27.899999999999977 -1.000000000000000 C31.399999999999977 -1.000000000000000 33.899999999999977 1.699999999999989 33.899999999999977 5.100000000000023 C33.899999999999977 8.399999999999977 31.399999999999977 11.000000000000000 27.899999999999977 11.000000000000000 z" />
<glyph unicode="@" horiz-adv-x="60" d="M28.300000000000001 69.700000000000003 C20.000000000000000 69.699999999999989 10.200000000000045 66.600000000000023 1.200000000000045 58.899999999999977 C2.700000000000045 57.199999999999989 4.575000000000045 55.074999999999989 5.700000000000045 53.800000000000011 C14.399999999999977 61.500000000000000 22.299999999999955 63.000000000000000 28.600000000000023 63.000000000000000 C47.700000000000045 63.000000000000000 50.600000000000023 46.800000000000011 50.600000000000023 28.300000000000011 C50.600000000000023 12.199999999999989 50.700000000000045 -3.100000000000023 43.700000000000045 -3.100000000000023 C39.500000000000000 -3.100000000000023 35.799999999999955 -0.800000000000011 35.799999999999955 11.000000000000000 C35.799999999999955 20.800000000000011 35.799999999999955 33.050000000000011 35.799999999999955 40.399999999999977 C30.200000000000045 43.399999999999977 26.899999999999977 43.899999999999977 22.500000000000000 43.899999999999977 C10.799999999999955 43.899999999999977 3.399999999999977 36.199999999999989 3.399999999999977 18.500000000000000 C3.399999999999977 5.100000000000023 7.500000000000000 -4.500000000000000 18.100000000000023 -4.500000000000000 C26.399999999999977 -4.500000000000000 29.899999999999977 0.899999999999977 31.700000000000045 5.399999999999977 C31.833333333333371 5.399999999999977 32.000000000000000 5.399999999999977 32.100000000000023 5.399999999999977 C31.700000000000045 1.300000000000011 35.200000000000045 -9.000000000000000 43.799999999999955 -9.000000000000000 C55.600000000000023 -9.000000000000000 58.200000000000045 3.000000000000000 58.200000000000045 28.199999999999989 C58.200000000000045 47.199999999999989 54.700000000000045 69.699999999999989 28.299999999999955 69.699999999999989 zM23.100000000000001 38.799999999999997 C25.700000000000045 38.800000000000011 27.899999999999977 38.399999999999977 30.200000000000045 37.199999999999989 C30.200000000000045 28.166666666666686 30.200000000000045 16.875000000000000 30.200000000000045 10.100000000000023 C28.799999999999955 7.300000000000011 26.299999999999955 0.800000000000011 18.600000000000023 0.800000000000011 C11.899999999999977 0.800000000000011 9.700000000000045 8.500000000000000 9.700000000000045 18.500000000000000 C9.700000000000045 31.399999999999977 12.799999999999955 38.800000000000011 23.100000000000023 38.800000000000011 z" />
<glyph unicode="A" horiz-adv-x="60" d="M44.399999999999999 18.399999999999999 C45.899999999999977 13.800000000000011 48.899999999999977 4.600000000000023 50.399999999999977 0.000000000000000 C52.049999999999955 0.000000000000000 55.350000000000023 0.000000000000000 57.000000000000000 0.000000000000000 C51.299999999999955 17.175000000000011 39.899999999999977 51.524999999999977 34.200000000000045 68.699999999999989 C32.100000000000023 68.699999999999989 27.899999999999977 68.699999999999989 25.799999999999955 68.699999999999989 C20.100000000000023 51.524999999999977 8.700000000000045 17.175000000000011 3.000000000000000 0.000000000000000 C4.500000000000000 0.000000000000000 7.500000000000000 0.000000000000000 9.000000000000000 0.000000000000000 C10.500000000000000 4.600000000000023 13.500000000000000 13.800000000000011 15.000000000000000 18.399999999999977 C22.350000000000023 18.399999999999977 37.049999999999955 18.399999999999977 44.399999999999977 18.399999999999977 zM17.199999999999999 24.199999999999999 C20.350000000000023 33.824999999999989 26.649999999999977 53.074999999999989 29.799999999999955 62.699999999999989 C32.899999999999977 53.074999999999989 39.100000000000023 33.824999999999989 42.200000000000045 24.199999999999989 C35.950000000000045 24.199999999999989 23.450000000000045 24.199999999999989 17.200000000000045 24.199999999999989 z" />
<glyph unicode="B" horiz-adv-x="60" d="M53.000000000000000 19.399999999999999 C53.000000000000000 31.300000000000011 44.899999999999977 35.100000000000023 37.200000000000045 36.399999999999977 C43.700000000000045 37.800000000000011 50.000000000000000 42.399999999999977 50.000000000000000 51.500000000000000 C50.000000000000000 65.000000000000000 37.700000000000045 68.699999999999989 26.299999999999955 68.699999999999989 C21.133333333333326 68.699999999999989 14.674999999999955 68.699999999999989 10.799999999999955 68.699999999999989 C10.799999999999955 51.524999999999977 10.799999999999955 17.175000000000011 10.799999999999955 0.000000000000000 C15.100000000000023 0.000000000000000 23.700000000000045 0.000000000000000 28.000000000000000 0.000000000000000 C40.000000000000000 0.000000000000000 53.000000000000000 4.699999999999989 53.000000000000000 19.399999999999977 zM43.399999999999999 51.299999999999997 C43.399999999999977 42.699999999999989 38.399999999999977 39.000000000000000 30.000000000000000 39.000000000000000 C25.733333333333348 39.000000000000000 20.399999999999977 39.000000000000000 17.200000000000045 39.000000000000000 C17.200000000000045 45.024999999999977 17.200000000000045 57.074999999999989 17.200000000000045 63.100000000000023 C20.149999999999977 63.100000000000023 26.049999999999955 63.100000000000023 29.000000000000000 63.100000000000023 C37.700000000000045 63.100000000000023 43.399999999999977 59.899999999999977 43.399999999999977 51.300000000000011 zM46.200000000000003 18.800000000000001 C46.200000000000045 7.899999999999977 37.000000000000000 5.800000000000011 30.200000000000045 5.800000000000011 C25.866666666666674 5.800000000000011 20.450000000000045 5.800000000000011 17.200000000000045 5.800000000000011 C17.200000000000045 12.574999999999989 17.200000000000045 26.125000000000000 17.200000000000045 32.899999999999977 C20.500000000000000 32.899999999999977 27.100000000000023 32.899999999999977 30.399999999999977 32.899999999999977 C38.799999999999955 32.899999999999977 46.200000000000045 30.199999999999989 46.200000000000045 18.800000000000011 z" />
<glyph unicode="C" horiz-adv-x="60" d="M35.799999999999997 69.700000000000003 C20.600000000000023 69.699999999999989 7.200000000000045 57.600000000000023 7.200000000000045 34.399999999999977 C7.200000000000045 11.399999999999977 20.200000000000045 -1.000000000000000 36.299999999999955 -1.000000000000000 C45.899999999999977 -1.000000000000000 52.200000000000045 2.199999999999989 56.100000000000023 6.000000000000000 C54.899999999999977 7.500000000000000 53.399999999999977 9.375000000000000 52.500000000000000 10.500000000000000 C48.899999999999977 7.600000000000023 44.100000000000023 4.899999999999977 36.200000000000045 4.899999999999977 C23.799999999999955 4.899999999999977 13.899999999999977 12.699999999999989 13.899999999999977 34.399999999999977 C13.899999999999977 56.600000000000023 24.500000000000000 63.800000000000011 36.500000000000000 63.800000000000011 C41.700000000000045 63.800000000000011 46.600000000000023 62.600000000000023 51.200000000000045 58.699999999999989 C52.500000000000000 60.199999999999989 54.125000000000000 62.074999999999989 55.100000000000023 63.199999999999989 C49.700000000000045 67.399999999999977 44.500000000000000 69.699999999999989 35.799999999999955 69.699999999999989 z" />
<glyph unicode="D" horiz-adv-x="60" d="M54.600000000000001 34.700000000000003 C54.600000000000023 63.300000000000011 38.799999999999955 68.699999999999989 23.100000000000023 68.699999999999989 C18.500000000000000 68.699999999999989 12.750000000000000 68.699999999999989 9.299999999999955 68.699999999999989 C9.299999999999955 51.524999999999977 9.299999999999955 17.175000000000011 9.299999999999955 0.000000000000000 C13.024999999999977 0.000000000000000 20.475000000000023 0.000000000000000 24.200000000000045 0.000000000000000 C37.600000000000023 0.000000000000000 54.600000000000023 5.600000000000023 54.600000000000023 34.699999999999989 zM47.700000000000003 34.700000000000003 C47.700000000000045 10.600000000000023 35.399999999999977 5.500000000000000 25.200000000000045 5.500000000000000 C22.000000000000000 5.500000000000000 18.000000000000000 5.500000000000000 15.600000000000023 5.500000000000000 C15.600000000000023 19.899999999999977 15.600000000000023 48.699999999999989 15.600000000000023 63.100000000000023 C17.975000000000023 63.100000000000023 22.725000000000023 63.100000000000023 25.100000000000023 63.100000000000023 C34.799999999999955 63.100000000000023 47.700000000000045 60.300000000000011 47.700000000000045 34.699999999999989 z" />
<glyph unicode="E" horiz-adv-x="60" d="M19.899999999999999 63.000000000000000 C27.424999999999955 63.000000000000000 42.475000000000023 63.000000000000000 50.000000000000000 63.000000000000000 C50.200000000000045 64.425000000000011 50.600000000000023 67.274999999999977 50.799999999999955 68.699999999999989 C41.475000000000023 68.699999999999989 22.825000000000045 68.699999999999989 13.500000000000000 68.699999999999989 C13.500000000000000 51.524999999999977 13.500000000000000 17.175000000000011 13.500000000000000 0.000000000000000 C23.125000000000000 0.000000000000000 42.375000000000000 0.000000000000000 52.000000000000000 0.000000000000000 C52.000000000000000 1.399999999999977 52.000000000000000 4.199999999999989 52.000000000000000 5.600000000000023 C43.975000000000023 5.600000000000023 27.924999999999955 5.600000000000023 19.899999999999977 5.600000000000023 C19.899999999999977 12.199999999999989 19.899999999999977 25.399999999999977 19.899999999999977 32.000000000000000 C26.399999999999977 32.000000000000000 39.399999999999977 32.000000000000000 45.899999999999977 32.000000000000000 C45.899999999999977 33.449999999999989 45.899999999999977 36.350000000000023 45.899999999999977 37.800000000000011 C39.399999999999977 37.800000000000011 26.399999999999977 37.800000000000011 19.899999999999977 37.800000000000011 C19.899999999999977 44.100000000000023 19.899999999999977 56.699999999999989 19.899999999999977 63.000000000000000 z" />
<glyph unicode="F" horiz-adv-x="60" d="M21.100000000000001 63.000000000000000 C29.075000000000045 63.000000000000000 45.024999999999977 63.000000000000000 53.000000000000000 63.000000000000000 C53.200000000000045 64.425000000000011 53.600000000000023 67.274999999999977 53.799999999999955 68.699999999999989 C44.024999999999977 68.699999999999989 24.475000000000023 68.699999999999989 14.700000000000045 68.699999999999989 C14.700000000000045 51.524999999999977 14.700000000000045 17.175000000000011 14.700000000000045 0.000000000000000 C16.299999999999955 0.000000000000000 19.500000000000000 0.000000000000000 21.100000000000023 0.000000000000000 C21.100000000000023 7.899999999999977 21.100000000000023 23.699999999999989 21.100000000000023 31.600000000000023 C28.049999999999955 31.600000000000023 41.950000000000045 31.600000000000023 48.899999999999977 31.600000000000023 C48.899999999999977 32.975000000000023 48.899999999999977 35.725000000000023 48.899999999999977 37.100000000000023 C41.950000000000045 37.100000000000023 28.049999999999955 37.100000000000023 21.100000000000023 37.100000000000023 C21.100000000000023 43.574999999999989 21.100000000000023 56.524999999999977 21.100000000000023 63.000000000000000 z" />
<glyph unicode="G" horiz-adv-x="60" d="M31.000000000000000 -1.000000000000000 C40.799999999999955 -1.000000000000000 47.000000000000000 1.600000000000023 53.000000000000000 4.699999999999989 C53.000000000000000 15.500000000000000 53.000000000000000 29.000000000000000 53.000000000000000 37.100000000000023 C47.399999999999977 37.100000000000023 36.200000000000045 37.100000000000023 30.600000000000023 37.100000000000023 C30.799999999999955 35.600000000000023 31.200000000000045 32.600000000000023 31.399999999999977 31.100000000000023 C35.149999999999977 31.100000000000023 42.649999999999977 31.100000000000023 46.399999999999977 31.100000000000023 C46.399999999999977 25.475000000000023 46.399999999999977 14.225000000000023 46.399999999999977 8.600000000000023 C42.000000000000000 6.199999999999989 37.200000000000045 4.899999999999977 32.000000000000000 4.899999999999977 C19.100000000000023 4.899999999999977 12.200000000000045 13.899999999999977 12.200000000000045 34.399999999999977 C12.200000000000045 56.800000000000011 22.700000000000045 63.800000000000011 32.899999999999977 63.800000000000011 C38.799999999999955 63.800000000000011 43.600000000000023 62.000000000000000 47.799999999999955 58.000000000000000 C49.200000000000045 59.466666666666697 50.950000000000045 61.300000000000011 52.000000000000000 62.399999999999977 C46.600000000000023 67.300000000000011 41.700000000000045 69.699999999999989 33.100000000000023 69.699999999999989 C19.100000000000023 69.699999999999989 5.200000000000045 58.100000000000023 5.200000000000045 34.399999999999977 C5.200000000000045 10.600000000000023 15.700000000000045 -1.000000000000000 31.000000000000000 -1.000000000000000 z" />
<glyph unicode="H" horiz-adv-x="60" d="M44.399999999999999 0.000000000000000 C45.975000000000023 0.000000000000000 49.125000000000000 0.000000000000000 50.700000000000045 0.000000000000000 C50.700000000000045 17.175000000000011 50.700000000000045 51.524999999999977 50.700000000000045 68.699999999999989 C49.125000000000000 68.699999999999989 45.975000000000023 68.699999999999989 44.399999999999977 68.699999999999989 C44.399999999999977 61.250000000000000 44.399999999999977 46.350000000000023 44.399999999999977 38.899999999999977 C37.200000000000045 38.899999999999977 22.799999999999955 38.899999999999977 15.600000000000023 38.899999999999977 C15.600000000000023 46.350000000000023 15.600000000000023 61.250000000000000 15.600000000000023 68.699999999999989 C14.024999999999977 68.699999999999989 10.875000000000000 68.699999999999989 9.299999999999955 68.699999999999989 C9.299999999999955 51.524999999999977 9.299999999999955 17.175000000000011 9.299999999999955 0.000000000000000 C10.875000000000000 0.000000000000000 14.024999999999977 0.000000000000000 15.600000000000023 0.000000000000000 C15.600000000000023 8.425000000000011 15.600000000000023 25.274999999999977 15.600000000000023 33.699999999999989 C22.799999999999955 33.699999999999989 37.200000000000045 33.699999999999989 44.399999999999977 33.699999999999989 C44.399999999999977 25.274999999999977 44.399999999999977 8.425000000000011 44.399999999999977 0.000000000000000 z" />
<glyph unicode="I" horiz-adv-x="60" d="M48.899999999999999 68.700000000000003 C39.450000000000045 68.699999999999989 20.549999999999955 68.699999999999989 11.100000000000023 68.699999999999989 C11.100000000000023 67.350000000000023 11.100000000000023 64.649999999999977 11.100000000000023 63.300000000000011 C15.000000000000000 63.300000000000011 22.799999999999955 63.300000000000011 26.700000000000045 63.300000000000011 C26.700000000000045 48.824999999999989 26.700000000000045 19.875000000000000 26.700000000000045 5.399999999999977 C22.799999999999955 5.399999999999977 15.000000000000000 5.399999999999977 11.100000000000023 5.399999999999977 C11.100000000000023 4.050000000000011 11.100000000000023 1.350000000000023 11.100000000000023 0.000000000000000 C20.549999999999955 0.000000000000000 39.450000000000045 0.000000000000000 48.899999999999977 0.000000000000000 C48.899999999999977 1.350000000000023 48.899999999999977 4.050000000000011 48.899999999999977 5.399999999999977 C45.000000000000000 5.399999999999977 37.200000000000045 5.399999999999977 33.299999999999955 5.399999999999977 C33.299999999999955 19.875000000000000 33.299999999999955 48.824999999999989 33.299999999999955 63.300000000000011 C37.200000000000045 63.300000000000011 45.000000000000000 63.300000000000011 48.899999999999977 63.300000000000011 C48.899999999999977 64.649999999999977 48.899999999999977 67.350000000000023 48.899999999999977 68.699999999999989 z" />
<glyph unicode="J" horiz-adv-x="60" d="M48.799999999999997 68.700000000000003 C42.174999999999955 68.699999999999989 28.924999999999955 68.699999999999989 22.299999999999955 68.699999999999989 C22.299999999999955 67.300000000000011 22.299999999999955 64.500000000000000 22.299999999999955 63.100000000000023 C27.325000000000045 63.100000000000023 37.375000000000000 63.100000000000023 42.399999999999977 63.100000000000023 C42.399999999999977 53.050000000000011 42.399999999999977 32.949999999999989 42.399999999999977 22.899999999999977 C42.399999999999977 11.899999999999977 37.000000000000000 4.699999999999989 26.700000000000045 4.699999999999989 C23.000000000000000 4.699999999999989 17.700000000000045 5.699999999999989 11.399999999999977 9.600000000000023 C10.366666666666674 8.100000000000023 9.075000000000045 6.225000000000023 8.299999999999955 5.100000000000023 C13.500000000000000 1.000000000000000 20.399999999999977 -1.100000000000023 26.500000000000000 -1.100000000000023 C44.799999999999955 -1.100000000000023 48.799999999999955 12.199999999999989 48.799999999999955 22.300000000000011 C48.799999999999955 37.766666666666652 48.799999999999955 57.100000000000023 48.799999999999955 68.699999999999989 z" />
<glyph unicode="K" horiz-adv-x="60" d="M18.199999999999999 0.000000000000000 C18.200000000000045 17.175000000000011 18.200000000000045 51.524999999999977 18.200000000000045 68.699999999999989 C16.625000000000000 68.699999999999989 13.475000000000023 68.699999999999989 11.899999999999977 68.699999999999989 C11.899999999999977 51.524999999999977 11.899999999999977 17.175000000000011 11.899999999999977 0.000000000000000 C13.475000000000023 0.000000000000000 16.625000000000000 0.000000000000000 18.200000000000045 0.000000000000000 zM18.699999999999999 36.700000000000003 C26.424999999999955 27.524999999999977 41.875000000000000 9.175000000000011 49.600000000000023 0.000000000000000 C51.700000000000045 0.000000000000000 55.899999999999977 0.000000000000000 58.000000000000000 0.000000000000000 C50.274999999999977 9.250000000000000 34.825000000000045 27.750000000000000 27.100000000000023 37.000000000000000 C34.350000000000023 44.925000000000011 48.850000000000023 60.774999999999977 56.100000000000023 68.699999999999989 C54.125000000000000 68.699999999999989 50.174999999999955 68.699999999999989 48.200000000000045 68.699999999999989 C40.825000000000045 60.699999999999989 26.075000000000045 44.699999999999989 18.700000000000045 36.699999999999989 z" />
<glyph unicode="L" horiz-adv-x="60" d="M14.800000000000001 0.000000000000000 C24.149999999999977 0.000000000000000 42.850000000000023 0.000000000000000 52.200000000000045 0.000000000000000 C52.424999999999955 1.550000000000011 52.875000000000000 4.649999999999977 53.100000000000023 6.199999999999989 C45.125000000000000 6.199999999999989 29.174999999999955 6.199999999999989 21.200000000000045 6.199999999999989 C21.200000000000045 21.824999999999989 21.200000000000045 53.074999999999989 21.200000000000045 68.699999999999989 C19.600000000000023 68.699999999999989 16.399999999999977 68.699999999999989 14.799999999999955 68.699999999999989 C14.799999999999955 51.524999999999977 14.799999999999955 17.175000000000011 14.799999999999955 0.000000000000000 z" />
<glyph unicode="M" horiz-adv-x="60" d="M52.700000000000003 68.700000000000003 C50.000000000000000 68.699999999999989 44.600000000000023 68.699999999999989 41.899999999999977 68.699999999999989 C38.975000000000023 56.750000000000000 33.125000000000000 32.850000000000023 30.200000000000045 20.899999999999977 C27.149999999999977 32.850000000000023 21.049999999999955 56.750000000000000 18.000000000000000 68.699999999999989 C15.325000000000045 68.699999999999989 9.975000000000023 68.699999999999989 7.299999999999955 68.699999999999989 C6.324999999999932 51.524999999999977 4.375000000000000 17.175000000000011 3.399999999999977 0.000000000000000 C5.000000000000000 0.000000000000000 8.200000000000045 0.000000000000000 9.799999999999955 0.000000000000000 C10.375000000000000 9.500000000000000 11.524999999999977 28.500000000000000 12.100000000000023 38.000000000000000 C12.600000000000023 45.899999999999977 12.600000000000023 60.300000000000011 12.500000000000000 62.600000000000023 C17.066666666666606 45.899999999999977 22.774999999999977 25.024999999999977 26.200000000000045 12.500000000000000 C28.100000000000023 12.500000000000000 31.899999999999977 12.500000000000000 33.799999999999955 12.500000000000000 C36.975000000000023 25.024999999999977 43.325000000000045 50.074999999999989 46.500000000000000 62.600000000000023 C46.700000000000045 60.899999999999977 46.899999999999977 47.000000000000000 47.500000000000000 37.899999999999977 C48.333333333333371 25.266666666666652 49.375000000000000 9.475000000000023 50.000000000000000 0.000000000000000 C51.649999999999977 0.000000000000000 54.950000000000045 0.000000000000000 56.600000000000023 0.000000000000000 C55.625000000000000 17.175000000000011 53.674999999999955 51.524999999999977 52.700000000000045 68.699999999999989 z" />
<glyph unicode="N" horiz-adv-x="60" d="M40.899999999999999 0.000000000000000 C43.350000000000023 0.000000000000000 48.250000000000000 0.000000000000000 50.700000000000045 0.000000000000000 C50.700000000000045 17.175000000000011 50.700000000000045 51.524999999999977 50.700000000000045 68.699999999999989 C49.125000000000000 68.699999999999989 45.975000000000023 68.699999999999989 44.399999999999977 68.699999999999989 C44.399999999999977 59.500000000000000 44.399999999999977 41.100000000000023 44.399999999999977 31.899999999999977 C44.399999999999977 19.500000000000000 45.399999999999977 8.199999999999989 45.200000000000045 6.399999999999977 C36.299999999999955 27.166666666666686 25.174999999999955 53.125000000000000 18.500000000000000 68.699999999999989 C16.200000000000045 68.699999999999989 11.600000000000023 68.699999999999989 9.299999999999955 68.699999999999989 C9.299999999999955 51.524999999999977 9.299999999999955 17.175000000000011 9.299999999999955 0.000000000000000 C10.875000000000000 0.000000000000000 14.024999999999977 0.000000000000000 15.600000000000023 0.000000000000000 C15.600000000000023 9.250000000000000 15.600000000000023 27.750000000000000 15.600000000000023 37.000000000000000 C15.600000000000023 47.199999999999989 14.700000000000045 59.800000000000011 14.799999999999955 61.899999999999977 C23.500000000000000 41.266666666666652 34.375000000000000 15.475000000000023 40.899999999999977 0.000000000000000 z" />
<glyph unicode="O" horiz-adv-x="60" d="M54.600000000000001 34.299999999999997 C54.600000000000023 55.199999999999989 46.299999999999955 69.699999999999989 30.000000000000000 69.699999999999989 C13.700000000000045 69.699999999999989 5.399999999999977 54.699999999999989 5.399999999999977 34.100000000000023 C5.399999999999977 13.199999999999989 13.700000000000045 -1.000000000000000 30.000000000000000 -1.000000000000000 C46.299999999999955 -1.000000000000000 54.600000000000023 13.699999999999989 54.600000000000023 34.300000000000011 zM47.899999999999999 34.299999999999997 C47.899999999999977 15.500000000000000 42.700000000000045 4.899999999999977 30.000000000000000 4.899999999999977 C17.600000000000023 4.899999999999977 12.100000000000023 15.399999999999977 12.100000000000023 34.100000000000023 C12.100000000000023 52.899999999999977 17.299999999999955 63.800000000000011 30.000000000000000 63.800000000000011 C42.700000000000045 63.800000000000011 47.899999999999977 53.000000000000000 47.899999999999977 34.300000000000011 z" />
<glyph unicode="P" horiz-adv-x="60" d="M55.100000000000001 48.000000000000000 C55.100000000000023 62.199999999999989 45.200000000000045 68.699999999999989 29.399999999999977 68.699999999999989 C24.000000000000000 68.699999999999989 17.250000000000000 68.699999999999989 13.200000000000045 68.699999999999989 C13.200000000000045 51.524999999999977 13.200000000000045 17.175000000000011 13.200000000000045 0.000000000000000 C14.774999999999977 0.000000000000000 17.924999999999955 0.000000000000000 19.500000000000000 0.000000000000000 C19.500000000000000 6.574999999999989 19.500000000000000 19.725000000000023 19.500000000000000 26.300000000000011 C21.825000000000045 26.300000000000011 26.475000000000023 26.300000000000011 28.799999999999955 26.300000000000011 C44.000000000000000 26.300000000000011 55.100000000000023 31.899999999999977 55.100000000000023 48.000000000000000 zM48.100000000000001 47.899999999999999 C48.100000000000023 35.000000000000000 40.299999999999955 31.800000000000011 30.100000000000023 31.800000000000011 C26.566666666666720 31.800000000000011 22.149999999999977 31.800000000000011 19.500000000000000 31.800000000000011 C19.500000000000000 39.675000000000011 19.500000000000000 55.425000000000011 19.500000000000000 63.300000000000011 C22.325000000000045 63.300000000000011 27.975000000000023 63.300000000000011 30.799999999999955 63.300000000000011 C40.399999999999977 63.300000000000011 48.100000000000023 59.500000000000000 48.100000000000023 47.899999999999977 z" />
<glyph unicode="Q" horiz-adv-x="60" d="M54.799999999999997 34.299999999999997 C54.799999999999955 55.199999999999989 46.200000000000045 69.699999999999989 29.899999999999977 69.699999999999989 C13.500000000000000 69.699999999999989 4.899999999999977 54.699999999999989 4.899999999999977 34.100000000000023 C4.899999999999977 13.199999999999989 13.600000000000023 -0.800000000000011 29.000000000000000 -0.800000000000011 C40.799999999999955 -0.800000000000011 46.000000000000000 -6.600000000000023 50.100000000000023 -17.300000000000011 C52.733333333333348 -16.199999999999989 56.024999999999977 -14.824999999999989 58.000000000000000 -14.000000000000000 C54.799999999999955 -4.199999999999989 49.899999999999977 0.300000000000011 40.600000000000023 2.300000000000011 C51.000000000000000 8.199999999999989 54.799999999999955 19.399999999999977 54.799999999999955 34.300000000000011 zM48.100000000000001 34.299999999999997 C48.100000000000023 15.500000000000000 42.500000000000000 4.899999999999977 29.899999999999977 4.899999999999977 C17.500000000000000 4.899999999999977 11.600000000000023 15.399999999999977 11.600000000000023 34.100000000000023 C11.600000000000023 52.899999999999977 17.100000000000023 63.800000000000011 29.899999999999977 63.800000000000011 C42.600000000000023 63.800000000000011 48.100000000000023 53.000000000000000 48.100000000000023 34.300000000000011 z" />
<glyph unicode="R" horiz-adv-x="60" d="M53.000000000000000 49.899999999999999 C53.000000000000000 62.199999999999989 44.299999999999955 68.699999999999989 27.899999999999977 68.699999999999989 C22.433333333333280 68.699999999999989 15.600000000000023 68.699999999999989 11.500000000000000 68.699999999999989 C11.500000000000000 51.524999999999977 11.500000000000000 17.175000000000011 11.500000000000000 0.000000000000000 C13.075000000000045 0.000000000000000 16.225000000000023 0.000000000000000 17.799999999999955 0.000000000000000 C17.799999999999955 7.600000000000023 17.799999999999955 22.800000000000011 17.799999999999955 30.399999999999977 C20.475000000000023 30.399999999999977 25.825000000000045 30.399999999999977 28.500000000000000 30.399999999999977 C33.500000000000000 22.800000000000011 43.500000000000000 7.600000000000023 48.500000000000000 0.000000000000000 C50.500000000000000 0.000000000000000 54.500000000000000 0.000000000000000 56.500000000000000 0.000000000000000 C51.200000000000045 7.725000000000023 40.600000000000023 23.175000000000011 35.299999999999955 30.899999999999977 C45.299999999999955 33.000000000000000 53.000000000000000 39.500000000000000 53.000000000000000 49.899999999999977 zM46.000000000000000 49.899999999999999 C46.000000000000000 39.699999999999989 39.799999999999955 35.899999999999977 29.000000000000000 35.899999999999977 C25.266666666666652 35.899999999999977 20.600000000000023 35.899999999999977 17.799999999999955 35.899999999999977 C17.799999999999955 42.725000000000023 17.799999999999955 56.375000000000000 17.799999999999955 63.199999999999989 C20.649999999999977 63.199999999999989 26.350000000000023 63.199999999999989 29.200000000000045 63.199999999999989 C40.700000000000045 63.199999999999989 46.000000000000000 59.399999999999977 46.000000000000000 49.899999999999977 z" />
<glyph unicode="S" horiz-adv-x="60" d="M52.700000000000003 18.699999999999999 C52.700000000000045 32.000000000000000 42.899999999999977 36.199999999999989 32.799999999999955 39.000000000000000 C19.100000000000023 42.899999999999977 14.600000000000023 46.199999999999989 14.600000000000023 52.600000000000023 C14.600000000000023 60.199999999999989 21.399999999999977 63.800000000000011 29.299999999999955 63.800000000000011 C35.200000000000045 63.800000000000011 41.100000000000023 61.899999999999977 46.100000000000023 57.399999999999977 C47.566666666666720 58.966666666666697 49.399999999999977 60.925000000000011 50.500000000000000 62.100000000000023 C44.799999999999955 66.899999999999977 38.399999999999977 69.699999999999989 29.299999999999955 69.699999999999989 C16.500000000000000 69.699999999999989 8.200000000000045 62.300000000000011 8.200000000000045 52.600000000000023 C8.200000000000045 41.600000000000023 17.399999999999977 36.899999999999977 30.299999999999955 33.199999999999989 C42.799999999999955 29.600000000000023 46.100000000000023 26.000000000000000 46.100000000000023 18.899999999999977 C46.100000000000023 9.199999999999989 37.600000000000023 4.800000000000011 28.799999999999955 4.800000000000011 C20.100000000000023 4.800000000000011 14.200000000000045 7.800000000000011 9.500000000000000 12.300000000000011 C8.100000000000023 10.666666666666686 6.350000000000023 8.625000000000000 5.299999999999955 7.399999999999977 C11.100000000000023 1.899999999999977 19.299999999999955 -1.000000000000000 28.500000000000000 -1.000000000000000 C44.000000000000000 -1.000000000000000 52.700000000000045 7.199999999999989 52.700000000000045 18.699999999999989 z" />
<glyph unicode="T" horiz-adv-x="60" d="M33.000000000000000 62.799999999999997 C38.375000000000000 62.800000000000011 49.125000000000000 62.800000000000011 54.500000000000000 62.800000000000011 C54.674999999999955 64.274999999999977 55.024999999999977 67.225000000000023 55.200000000000045 68.699999999999989 C42.524999999999977 68.699999999999989 17.174999999999955 68.699999999999989 4.500000000000000 68.699999999999989 C4.500000000000000 67.225000000000023 4.500000000000000 64.274999999999977 4.500000000000000 62.800000000000011 C10.024999999999977 62.800000000000011 21.075000000000045 62.800000000000011 26.600000000000023 62.800000000000011 C26.600000000000023 47.100000000000023 26.600000000000023 15.699999999999989 26.600000000000023 0.000000000000000 C28.200000000000045 0.000000000000000 31.399999999999977 0.000000000000000 33.000000000000000 0.000000000000000 C33.000000000000000 15.699999999999989 33.000000000000000 47.100000000000023 33.000000000000000 62.800000000000011 z" />
<glyph unicode="U" horiz-adv-x="60" d="M51.899999999999999 68.700000000000003 C50.274999999999977 68.699999999999989 47.024999999999977 68.699999999999989 45.399999999999977 68.699999999999989 C45.399999999999977 56.475000000000023 45.399999999999977 32.024999999999977 45.399999999999977 19.800000000000011 C45.399999999999977 9.899999999999977 39.200000000000045 5.100000000000023 29.899999999999977 5.100000000000023 C20.700000000000045 5.100000000000023 14.500000000000000 9.899999999999977 14.500000000000000 19.800000000000011 C14.500000000000000 36.100000000000023 14.500000000000000 56.475000000000023 14.500000000000000 68.699999999999989 C12.899999999999977 68.699999999999989 9.700000000000045 68.699999999999989 8.100000000000023 68.699999999999989 C8.100000000000023 57.024999999999977 8.100000000000023 33.675000000000011 8.100000000000023 22.000000000000000 C8.100000000000023 8.399999999999977 16.600000000000023 -1.000000000000000 29.899999999999977 -1.000000000000000 C42.799999999999955 -1.000000000000000 51.899999999999977 8.100000000000023 51.899999999999977 22.000000000000000 C51.899999999999977 37.566666666666663 51.899999999999977 57.024999999999977 51.899999999999977 68.699999999999989 z" />
<glyph unicode="V" horiz-adv-x="60" d="M30.199999999999999 9.000000000000000 C25.200000000000045 23.925000000000011 15.200000000000045 53.774999999999977 10.200000000000045 68.699999999999989 C8.450000000000045 68.699999999999989 4.950000000000045 68.699999999999989 3.200000000000045 68.699999999999989 C9.200000000000045 51.524999999999977 21.200000000000045 17.175000000000011 27.200000000000045 0.000000000000000 C28.600000000000023 0.000000000000000 31.399999999999977 0.000000000000000 32.799999999999955 0.000000000000000 C38.774999999999977 17.175000000000011 50.725000000000023 51.524999999999977 56.700000000000045 68.699999999999989 C55.125000000000000 68.699999999999989 51.975000000000023 68.699999999999989 50.399999999999977 68.699999999999989 C45.350000000000023 53.774999999999977 35.250000000000000 23.925000000000011 30.200000000000045 9.000000000000000 z" />
<glyph unicode="W" horiz-adv-x="60" d="M59.299999999999997 68.700000000000003 C57.750000000000000 68.699999999999989 54.649999999999977 68.699999999999989 53.100000000000023 68.699999999999989 C50.700000000000045 53.574999999999989 45.899999999999977 23.324999999999989 43.500000000000000 8.199999999999989 C41.350000000000023 21.324999999999989 37.049999999999955 47.574999999999989 34.899999999999977 60.699999999999989 C32.500000000000000 60.699999999999989 27.700000000000045 60.699999999999989 25.299999999999955 60.699999999999989 C23.024999999999977 47.574999999999989 18.475000000000023 21.324999999999989 16.200000000000045 8.199999999999989 C14.000000000000000 23.324999999999989 9.600000000000023 53.574999999999989 7.399999999999977 68.699999999999989 C5.725000000000023 68.699999999999989 2.375000000000000 68.699999999999989 0.700000000000045 68.699999999999989 C3.274999999999977 51.524999999999977 8.424999999999955 17.175000000000011 11.000000000000000 0.000000000000000 C13.500000000000000 0.000000000000000 18.500000000000000 0.000000000000000 21.000000000000000 0.000000000000000 C23.174999999999955 13.175000000000011 27.524999999999977 39.524999999999977 29.700000000000045 52.699999999999989 C31.875000000000000 39.524999999999977 36.225000000000023 13.175000000000011 38.399999999999977 0.000000000000000 C40.825000000000045 0.000000000000000 45.674999999999955 0.000000000000000 48.100000000000023 0.000000000000000 C50.899999999999977 17.175000000000011 56.500000000000000 51.524999999999977 59.299999999999955 68.699999999999989 z" />
<glyph unicode="X" horiz-adv-x="60" d="M5.800000000000000 68.700000000000003 C10.875000000000000 60.699999999999989 21.024999999999977 44.699999999999989 26.100000000000023 36.699999999999989 C20.549999999999955 27.524999999999977 9.450000000000045 9.175000000000011 3.899999999999977 0.000000000000000 C5.625000000000000 0.000000000000000 9.075000000000045 0.000000000000000 10.799999999999955 0.000000000000000 C15.549999999999955 8.125000000000000 25.049999999999955 24.375000000000000 29.799999999999955 32.500000000000000 C34.450000000000045 24.375000000000000 43.750000000000000 8.125000000000000 48.399999999999977 0.000000000000000 C50.325000000000045 0.000000000000000 54.174999999999955 0.000000000000000 56.100000000000023 0.000000000000000 C50.475000000000023 9.274999999999977 39.225000000000023 27.824999999999989 33.600000000000023 37.100000000000023 C38.575000000000045 45.000000000000000 48.524999999999977 60.800000000000011 53.500000000000000 68.699999999999989 C51.750000000000000 68.699999999999989 48.250000000000000 68.699999999999989 46.500000000000000 68.699999999999989 C42.375000000000000 61.774999999999977 34.125000000000000 47.925000000000011 30.000000000000000 41.000000000000000 C25.875000000000000 47.925000000000011 17.625000000000000 61.774999999999977 13.500000000000000 68.699999999999989 C11.575000000000045 68.699999999999989 7.725000000000023 68.699999999999989 5.799999999999955 68.699999999999989 z" />
<glyph unicode="Y" horiz-adv-x="60" d="M33.299999999999997 26.699999999999999 C39.149999999999977 37.199999999999989 50.850000000000023 58.199999999999989 56.700000000000045 68.699999999999989 C55.075000000000045 68.699999999999989 51.825000000000045 68.699999999999989 50.200000000000045 68.699999999999989 C45.200000000000045 59.725000000000023 35.200000000000045 41.774999999999977 30.200000000000045 32.800000000000011 C25.250000000000000 41.774999999999977 15.350000000000023 59.725000000000023 10.399999999999977 68.699999999999989 C8.625000000000000 68.699999999999989 5.075000000000045 68.699999999999989 3.299999999999955 68.699999999999989 C9.149999999999977 58.175000000000011 20.850000000000023 37.125000000000000 26.700000000000045 26.600000000000023 C26.700000000000045 19.949999999999989 26.700000000000045 6.649999999999977 26.700000000000045 0.000000000000000 C28.350000000000023 0.000000000000000 31.649999999999977 0.000000000000000 33.299999999999955 0.000000000000000 C33.299999999999955 6.675000000000011 33.299999999999955 20.024999999999977 33.299999999999955 26.699999999999989 z" />
<glyph unicode="Z" horiz-adv-x="60" d="M14.800000000000001 5.900000000000000 C24.100000000000023 20.199999999999989 42.700000000000045 48.800000000000011 52.000000000000000 63.100000000000023 C52.000000000000000 64.500000000000000 52.000000000000000 67.300000000000011 52.000000000000000 68.699999999999989 C41.924999999999955 68.699999999999989 21.774999999999977 68.699999999999989 11.700000000000045 68.699999999999989 C11.700000000000045 67.225000000000023 11.700000000000045 64.274999999999977 11.700000000000045 62.800000000000011 C20.149999999999977 62.800000000000011 37.049999999999955 62.800000000000011 45.500000000000000 62.800000000000011 C36.149999999999977 48.475000000000023 17.450000000000045 19.824999999999989 8.100000000000023 5.500000000000000 C8.100000000000023 4.125000000000000 8.100000000000023 1.375000000000000 8.100000000000023 0.000000000000000 C18.799999999999955 0.000000000000000 40.200000000000045 0.000000000000000 50.899999999999977 0.000000000000000 C51.100000000000023 1.475000000000023 51.500000000000000 4.425000000000011 51.700000000000045 5.899999999999977 C42.475000000000023 5.899999999999977 24.024999999999977 5.899999999999977 14.799999999999955 5.899999999999977 z" />
<glyph unicode="[" horiz-adv-x="60" d="M19.199999999999999 -11.300000000000001 C25.049999999999955 -11.300000000000011 36.750000000000000 -11.300000000000011 42.600000000000023 -11.300000000000011 C42.600000000000023 -9.850000000000023 42.600000000000023 -6.949999999999989 42.600000000000023 -5.500000000000000 C38.225000000000023 -5.500000000000000 29.475000000000023 -5.500000000000000 25.100000000000023 -5.500000000000000 C25.100000000000023 14.725000000000023 25.100000000000023 55.175000000000011 25.100000000000023 75.399999999999977 C29.475000000000023 75.399999999999977 38.225000000000023 75.399999999999977 42.600000000000023 75.399999999999977 C42.600000000000023 76.875000000000000 42.600000000000023 79.824999999999989 42.600000000000023 81.300000000000011 C36.750000000000000 81.300000000000011 25.049999999999955 81.300000000000011 19.200000000000045 81.300000000000011 C19.200000000000045 58.149999999999977 19.200000000000045 11.850000000000023 19.200000000000045 -11.300000000000011 z" />
<glyph unicode="\" horiz-adv-x="60" d="M6.000000000000000 78.200000000000003 C16.725000000000023 56.149999999999977 38.174999999999955 12.050000000000011 48.899999999999977 -10.000000000000000 C50.174999999999955 -9.449999999999989 52.725000000000023 -8.350000000000023 54.000000000000000 -7.800000000000011 C43.250000000000000 14.324999999999989 21.750000000000000 58.574999999999989 11.000000000000000 80.699999999999989 C9.750000000000000 80.074999999999989 7.250000000000000 78.824999999999989 6.000000000000000 78.199999999999989 z" />
<glyph unicode="]" horiz-adv-x="60" d="M40.799999999999997 81.299999999999997 C34.950000000000045 81.300000000000011 23.250000000000000 81.300000000000011 17.399999999999977 81.300000000000011 C17.399999999999977 79.824999999999989 17.399999999999977 76.875000000000000 17.399999999999977 75.399999999999977 C21.774999999999977 75.399999999999977 30.524999999999977 75.399999999999977 34.899999999999977 75.399999999999977 C34.899999999999977 55.149999999999977 34.899999999999977 14.649999999999977 34.899999999999977 -5.600000000000023 C30.524999999999977 -5.600000000000023 21.774999999999977 -5.600000000000023 17.399999999999977 -5.600000000000023 C17.399999999999977 -7.024999999999977 17.399999999999977 -9.875000000000000 17.399999999999977 -11.300000000000011 C23.250000000000000 -11.300000000000011 34.950000000000045 -11.300000000000011 40.799999999999955 -11.300000000000011 C40.799999999999955 11.850000000000023 40.799999999999955 58.149999999999977 40.799999999999955 81.300000000000011 z" />
<glyph unicode="^" horiz-adv-x="60" d="M32.700000000000003 83.799999999999997 C31.350000000000023 83.800000000000011 28.649999999999977 83.800000000000011 27.299999999999955 83.800000000000011 C22.575000000000045 76.024999999999977 13.125000000000000 60.475000000000023 8.399999999999977 52.699999999999989 C10.149999999999977 52.699999999999989 13.649999999999977 52.699999999999989 15.399999999999977 52.699999999999989 C19.024999999999977 58.899999999999977 26.274999999999977 71.300000000000011 29.899999999999977 77.500000000000000 C33.500000000000000 71.300000000000011 40.700000000000045 58.899999999999977 44.299999999999955 52.699999999999989 C46.125000000000000 52.699999999999989 49.774999999999977 52.699999999999989 51.600000000000023 52.699999999999989 C46.875000000000000 60.475000000000023 37.424999999999955 76.024999999999977 32.700000000000045 83.800000000000011 z" />
<glyph unicode="_" horiz-adv-x="60" d="M5.000000000000000 -18.000000000000000 C17.500000000000000 -18.000000000000000 42.500000000000000 -18.000000000000000 55.000000000000000 -18.000000000000000 C55.000000000000000 -16.550000000000011 55.000000000000000 -13.649999999999977 55.000000000000000 -12.199999999999989 C42.500000000000000 -12.199999999999989 17.500000000000000 -12.199999999999989 5.000000000000000 -12.199999999999989 C5.000000000000000 -13.649999999999977 5.000000000000000 -16.550000000000011 5.000000000000000 -18.000000000000000 z" />
<glyph unicode="`" horiz-adv-x="60" d="M38.299999999999997 62.200000000000003 C38.875000000000000 63.100000000000023 40.024999999999977 64.899999999999977 40.600000000000023 65.800000000000011 C36.225000000000023 68.675000000000011 27.475000000000023 74.425000000000011 23.100000000000023 77.300000000000011 C22.100000000000023 75.850000000000023 20.100000000000023 72.949999999999989 19.100000000000023 71.500000000000000 C23.899999999999977 69.175000000000011 33.500000000000000 64.524999999999977 38.299999999999955 62.199999999999989 z" />
<glyph unicode="a" horiz-adv-x="60" d="M46.600000000000001 10.400000000000000 C46.600000000000023 17.050000000000011 46.600000000000023 30.350000000000023 46.600000000000023 37.000000000000000 C46.600000000000023 46.899999999999977 40.200000000000045 53.500000000000000 27.899999999999977 53.500000000000000 C23.000000000000000 53.500000000000000 18.100000000000023 52.600000000000023 11.700000000000045 50.300000000000011 C12.333333333333371 48.600000000000023 13.125000000000000 46.475000000000023 13.600000000000023 45.199999999999989 C19.000000000000000 47.100000000000023 23.500000000000000 47.899999999999977 27.000000000000000 47.899999999999977 C35.100000000000023 47.899999999999977 40.100000000000023 45.000000000000000 40.100000000000023 36.699999999999989 C40.100000000000023 35.033333333333303 40.100000000000023 32.949999999999989 40.100000000000023 31.699999999999989 C38.125000000000000 31.699999999999989 34.174999999999955 31.699999999999989 32.200000000000045 31.699999999999989 C16.399999999999977 31.699999999999989 7.899999999999977 25.800000000000011 7.899999999999977 15.100000000000023 C7.899999999999977 5.300000000000011 14.100000000000023 -1.000000000000000 24.600000000000023 -1.000000000000000 C31.500000000000000 -1.000000000000000 37.100000000000023 1.600000000000023 40.799999999999955 6.500000000000000 C42.000000000000000 1.699999999999989 45.399999999999977 -0.500000000000000 49.399999999999977 -1.100000000000023 C49.966666666666697 0.433333333333337 50.674999999999955 2.350000000000023 51.100000000000023 3.500000000000000 C48.000000000000000 4.399999999999977 46.600000000000023 6.100000000000023 46.600000000000023 10.399999999999977 zM25.699999999999999 3.900000000000000 C18.200000000000045 3.899999999999977 14.700000000000045 7.600000000000023 14.700000000000045 14.899999999999977 C14.700000000000045 22.199999999999989 19.000000000000000 26.899999999999977 31.399999999999977 26.899999999999977 C34.299999999999955 26.899999999999977 37.924999999999955 26.899999999999977 40.100000000000023 26.899999999999977 C40.100000000000023 23.149999999999977 40.100000000000023 15.649999999999977 40.100000000000023 11.899999999999977 C36.700000000000045 6.899999999999977 31.500000000000000 3.899999999999977 25.700000000000045 3.899999999999977 z" />
<glyph unicode="b" horiz-adv-x="60" d="M17.100000000000001 45.299999999999997 C17.100000000000023 52.625000000000000 17.100000000000023 67.274999999999977 17.100000000000023 74.600000000000023 C15.549999999999955 74.399999999999977 12.450000000000045 74.000000000000000 10.899999999999977 73.800000000000011 C10.899999999999977 55.350000000000023 10.899999999999977 18.449999999999989 10.899999999999977 0.000000000000000 C12.250000000000000 0.000000000000000 14.950000000000045 0.000000000000000 16.299999999999955 0.000000000000000 C16.450000000000045 1.425000000000011 16.750000000000000 4.274999999999977 16.899999999999977 5.699999999999989 C20.600000000000023 1.000000000000000 25.299999999999955 -1.000000000000000 31.600000000000023 -1.000000000000000 C45.100000000000023 -1.000000000000000 52.399999999999977 10.399999999999977 52.399999999999977 26.300000000000011 C52.399999999999977 42.600000000000023 46.799999999999955 53.500000000000000 32.600000000000023 53.500000000000000 C26.299999999999955 53.500000000000000 21.200000000000045 50.500000000000000 17.100000000000023 45.300000000000011 zM30.300000000000001 4.400000000000000 C25.000000000000000 4.399999999999977 20.100000000000023 7.300000000000011 17.100000000000023 11.800000000000011 C17.100000000000023 20.866666666666674 17.100000000000023 32.199999999999989 17.100000000000023 39.000000000000000 C20.200000000000045 43.399999999999977 25.200000000000045 48.100000000000023 31.700000000000045 48.100000000000023 C40.799999999999955 48.100000000000023 45.399999999999977 40.300000000000011 45.399999999999977 26.399999999999977 C45.399999999999977 11.699999999999989 40.000000000000000 4.399999999999977 30.299999999999955 4.399999999999977 z" />
<glyph unicode="c" horiz-adv-x="60" d="M33.500000000000000 4.700000000000000 C23.700000000000045 4.699999999999989 16.700000000000045 11.300000000000011 16.700000000000045 26.100000000000023 C16.700000000000045 40.600000000000023 23.700000000000045 47.899999999999977 33.399999999999977 47.899999999999977 C38.200000000000045 47.899999999999977 42.700000000000045 46.300000000000011 47.500000000000000 43.100000000000023 C48.600000000000023 44.566666666666663 49.975000000000023 46.399999999999977 50.799999999999955 47.500000000000000 C45.899999999999977 51.399999999999977 40.100000000000023 53.500000000000000 33.700000000000045 53.500000000000000 C18.399999999999977 53.500000000000000 9.799999999999955 41.600000000000023 9.799999999999955 26.100000000000023 C9.799999999999955 9.600000000000023 18.399999999999977 -1.000000000000000 33.700000000000045 -1.000000000000000 C39.299999999999955 -1.000000000000000 46.399999999999977 1.300000000000011 50.899999999999977 5.199999999999989 C49.833333333333371 6.566666666666663 48.500000000000000 8.274999999999977 47.700000000000045 9.300000000000011 C43.799999999999955 6.600000000000023 39.100000000000023 4.699999999999989 33.500000000000000 4.699999999999989 z" />
<glyph unicode="d" horiz-adv-x="60" d="M42.899999999999999 74.599999999999994 C42.899999999999977 67.649999999999977 42.899999999999977 53.750000000000000 42.899999999999977 46.800000000000011 C39.200000000000045 51.199999999999989 34.600000000000023 53.500000000000000 28.100000000000023 53.500000000000000 C15.200000000000045 53.500000000000000 7.600000000000023 41.800000000000011 7.600000000000023 26.100000000000023 C7.600000000000023 10.000000000000000 13.899999999999977 -1.000000000000000 27.899999999999977 -1.000000000000000 C33.299999999999955 -1.000000000000000 38.700000000000045 1.300000000000011 42.899999999999977 7.199999999999989 C43.166666666666629 4.800000000000011 43.500000000000000 1.800000000000011 43.700000000000045 0.000000000000000 C45.049999999999955 0.000000000000000 47.750000000000000 0.000000000000000 49.100000000000023 0.000000000000000 C49.100000000000023 18.449999999999989 49.100000000000023 55.350000000000023 49.100000000000023 73.800000000000011 C47.549999999999955 74.000000000000000 44.450000000000045 74.399999999999977 42.899999999999977 74.600000000000023 zM29.699999999999999 48.100000000000001 C35.100000000000023 48.100000000000023 39.799999999999955 45.300000000000011 42.899999999999977 40.600000000000023 C42.899999999999977 31.533333333333303 42.899999999999977 20.199999999999989 42.899999999999977 13.399999999999977 C39.799999999999955 8.800000000000011 35.299999999999955 4.399999999999977 28.600000000000023 4.399999999999977 C19.299999999999955 4.399999999999977 14.600000000000023 12.300000000000011 14.600000000000023 26.199999999999989 C14.600000000000023 40.699999999999989 20.000000000000000 48.100000000000023 29.700000000000045 48.100000000000023 z" />
<glyph unicode="e" horiz-adv-x="60" d="M15.500000000000000 23.800000000000001 C24.424999999999955 23.800000000000011 42.274999999999977 23.800000000000011 51.200000000000045 23.800000000000011 C51.200000000000045 24.800000000000011 51.299999999999955 26.199999999999989 51.299999999999955 28.000000000000000 C51.299999999999955 43.699999999999989 43.700000000000045 53.500000000000000 30.899999999999977 53.500000000000000 C17.700000000000045 53.500000000000000 8.799999999999955 42.199999999999989 8.799999999999955 26.199999999999989 C8.799999999999955 9.899999999999977 17.399999999999977 -1.000000000000000 31.899999999999977 -1.000000000000000 C37.700000000000045 -1.000000000000000 44.200000000000045 1.199999999999989 49.000000000000000 4.899999999999977 C47.933333333333280 6.433333333333337 46.600000000000023 8.350000000000023 45.799999999999955 9.500000000000000 C41.000000000000000 6.300000000000011 37.100000000000023 4.699999999999989 31.600000000000023 4.699999999999989 C23.100000000000023 4.699999999999989 15.700000000000045 10.600000000000023 15.500000000000000 23.800000000000011 zM31.100000000000001 47.700000000000003 C39.399999999999977 47.699999999999989 45.100000000000023 41.699999999999989 45.399999999999977 29.300000000000011 C35.466666666666697 29.300000000000011 23.049999999999955 29.300000000000011 15.600000000000023 29.300000000000011 C16.299999999999955 41.699999999999989 22.600000000000023 47.699999999999989 31.100000000000023 47.699999999999989 z" />
<glyph unicode="f" horiz-adv-x="60" d="M41.200000000000003 74.599999999999994 C31.299999999999955 74.600000000000023 22.899999999999977 69.100000000000023 22.899999999999977 59.600000000000023 C22.899999999999977 55.800000000000011 22.899999999999977 51.050000000000011 22.899999999999977 48.199999999999989 C19.649999999999977 48.199999999999989 13.149999999999977 48.199999999999989 9.899999999999977 48.199999999999989 C9.899999999999977 46.875000000000000 9.899999999999977 44.225000000000023 9.899999999999977 42.899999999999977 C13.149999999999977 42.899999999999977 19.649999999999977 42.899999999999977 22.899999999999977 42.899999999999977 C22.899999999999977 32.175000000000011 22.899999999999977 10.725000000000023 22.899999999999977 0.000000000000000 C24.450000000000045 0.000000000000000 27.549999999999955 0.000000000000000 29.100000000000023 0.000000000000000 C29.100000000000023 10.725000000000023 29.100000000000023 32.175000000000011 29.100000000000023 42.899999999999977 C33.450000000000045 42.899999999999977 42.149999999999977 42.899999999999977 46.500000000000000 42.899999999999977 C46.649999999999977 44.225000000000023 46.950000000000045 46.875000000000000 47.100000000000023 48.199999999999989 C42.600000000000023 48.199999999999989 33.600000000000023 48.199999999999989 29.100000000000023 48.199999999999989 C29.100000000000023 51.149999999999977 29.100000000000023 57.050000000000011 29.100000000000023 60.000000000000000 C29.100000000000023 66.000000000000000 33.200000000000045 69.100000000000023 40.899999999999977 69.100000000000023 C44.899999999999977 69.100000000000023 48.799999999999955 68.399999999999977 52.100000000000023 66.899999999999977 C52.833333333333371 68.566666666666663 53.750000000000000 70.649999999999977 54.299999999999955 71.899999999999977 C50.399999999999977 73.600000000000023 46.299999999999955 74.600000000000023 41.200000000000045 74.600000000000023 z" />
<glyph unicode="g" horiz-adv-x="60" d="M52.500000000000000 57.200000000000003 C46.399999999999977 54.899999999999977 42.399999999999977 53.600000000000080 28.799999999999955 53.500000000000000 C16.700000000000045 53.500000000000000 8.600000000000023 45.800000000000011 8.600000000000023 35.500000000000000 C8.600000000000023 28.800000000000011 11.399999999999977 24.199999999999989 17.200000000000045 21.199999999999989 C13.399999999999977 18.699999999999989 11.500000000000000 15.399999999999977 11.500000000000000 12.300000000000011 C11.500000000000000 7.100000000000023 15.399999999999977 2.500000000000000 23.799999999999955 2.500000000000000 C27.033333333333303 2.500000000000000 31.075000000000045 2.500000000000000 33.500000000000000 2.500000000000000 C40.700000000000045 2.500000000000000 46.600000000000023 -0.199999999999989 46.600000000000023 -5.699999999999989 C46.600000000000023 -12.100000000000023 40.600000000000023 -15.199999999999989 28.600000000000023 -15.199999999999989 C16.299999999999955 -15.199999999999989 13.299999999999955 -12.000000000000000 13.299999999999955 -5.399999999999977 C11.399999999999977 -5.399999999999977 9.024999999999977 -5.399999999999977 7.600000000000023 -5.399999999999977 C7.600000000000023 -16.199999999999989 13.100000000000023 -20.899999999999977 28.799999999999955 -20.899999999999977 C44.000000000000000 -20.899999999999977 53.000000000000000 -15.500000000000000 53.000000000000000 -5.300000000000011 C53.000000000000000 2.600000000000023 44.899999999999977 8.600000000000023 34.799999999999955 8.600000000000023 C31.566666666666720 8.600000000000023 27.524999999999977 8.600000000000023 25.100000000000023 8.600000000000023 C19.600000000000023 8.600000000000023 17.700000000000045 10.699999999999989 17.700000000000045 13.399999999999977 C17.700000000000045 15.600000000000023 19.100000000000023 17.800000000000011 20.700000000000045 19.199999999999989 C23.100000000000023 18.300000000000011 25.200000000000045 18.000000000000000 29.100000000000023 18.000000000000000 C41.200000000000045 18.000000000000000 48.100000000000023 25.500000000000000 48.100000000000023 35.899999999999977 C48.100000000000023 41.699999999999989 45.299999999999955 46.300000000000011 39.299999999999955 49.100000000000023 C45.000000000000000 49.100000000000023 50.000000000000000 49.100000000000023 54.700000000000045 50.399999999999977 C53.966666666666697 52.666666666666686 53.049999999999955 55.500000000000000 52.500000000000000 57.199999999999989 zM28.600000000000001 48.600000000000001 C37.100000000000023 48.600000000000023 41.299999999999955 44.000000000000000 41.299999999999955 35.500000000000000 C41.299999999999955 27.300000000000011 37.000000000000000 22.300000000000011 28.899999999999977 22.300000000000011 C19.200000000000045 22.300000000000011 15.000000000000000 27.899999999999977 15.000000000000000 35.500000000000000 C15.000000000000000 43.000000000000000 19.100000000000023 48.600000000000023 28.600000000000023 48.600000000000023 z" />
<glyph unicode="h" horiz-adv-x="60" d="M17.100000000000001 74.400000000000006 C15.549999999999955 74.199999999999989 12.450000000000045 73.800000000000011 10.899999999999977 73.600000000000023 C10.899999999999977 55.199999999999989 10.899999999999977 18.399999999999977 10.899999999999977 0.000000000000000 C12.450000000000045 0.000000000000000 15.549999999999955 0.000000000000000 17.100000000000023 0.000000000000000 C17.100000000000023 9.725000000000023 17.100000000000023 29.175000000000011 17.100000000000023 38.899999999999977 C19.799999999999955 43.000000000000000 25.899999999999977 48.300000000000011 32.700000000000045 48.300000000000011 C39.600000000000023 48.300000000000011 43.000000000000000 45.399999999999977 43.000000000000000 39.100000000000023 C43.000000000000000 26.066666666666663 43.000000000000000 9.774999999999977 43.000000000000000 0.000000000000000 C44.549999999999955 0.000000000000000 47.649999999999977 0.000000000000000 49.200000000000045 0.000000000000000 C49.200000000000045 9.500000000000000 49.200000000000045 28.500000000000000 49.200000000000045 38.000000000000000 C49.200000000000045 47.699999999999989 44.899999999999977 53.500000000000000 34.299999999999955 53.500000000000000 C28.000000000000000 53.500000000000000 21.200000000000045 50.399999999999977 17.100000000000023 44.699999999999989 C17.100000000000023 54.600000000000023 17.100000000000023 66.975000000000023 17.100000000000023 74.399999999999977 z" />
<glyph unicode="i" horiz-adv-x="60" d="M30.000000000000000 76.200000000000003 C27.000000000000000 76.199999999999989 25.000000000000000 74.100000000000023 25.000000000000000 71.300000000000011 C25.000000000000000 68.300000000000011 27.000000000000000 66.199999999999989 30.000000000000000 66.199999999999989 C33.200000000000045 66.199999999999989 35.299999999999955 68.300000000000011 35.299999999999955 71.300000000000011 C35.299999999999955 74.100000000000023 33.200000000000045 76.199999999999989 30.000000000000000 76.199999999999989 zM35.899999999999999 52.500000000000000 C30.325000000000045 52.500000000000000 19.174999999999955 52.500000000000000 13.600000000000023 52.500000000000000 C13.600000000000023 51.149999999999977 13.600000000000023 48.449999999999989 13.600000000000023 47.100000000000023 C17.625000000000000 47.100000000000023 25.674999999999955 47.100000000000023 29.700000000000045 47.100000000000023 C29.700000000000045 36.675000000000011 29.700000000000045 15.824999999999989 29.700000000000045 5.399999999999977 C25.549999999999955 5.399999999999977 17.250000000000000 5.399999999999977 13.100000000000023 5.399999999999977 C13.100000000000023 4.050000000000011 13.100000000000023 1.350000000000023 13.100000000000023 0.000000000000000 C22.600000000000023 0.000000000000000 41.600000000000023 0.000000000000000 51.100000000000023 0.000000000000000 C51.100000000000023 1.350000000000023 51.100000000000023 4.050000000000011 51.100000000000023 5.399999999999977 C47.299999999999955 5.399999999999977 39.700000000000045 5.399999999999977 35.899999999999977 5.399999999999977 C35.899999999999977 17.175000000000011 35.899999999999977 40.725000000000023 35.899999999999977 52.500000000000000 z" />
<glyph unicode="j" horiz-adv-x="60" d="M36.600000000000001 76.200000000000003 C33.600000000000023 76.199999999999989 31.500000000000000 74.100000000000023 31.500000000000000 71.300000000000011 C31.500000000000000 68.300000000000011 33.600000000000023 66.199999999999989 36.600000000000023 66.199999999999989 C39.799999999999955 66.199999999999989 41.799999999999955 68.300000000000011 41.799999999999955 71.300000000000011 C41.799999999999955 74.100000000000023 39.799999999999955 76.199999999999989 36.600000000000023 76.199999999999989 zM43.700000000000003 52.500000000000000 C36.475000000000023 52.500000000000000 22.024999999999977 52.500000000000000 14.799999999999955 52.500000000000000 C14.799999999999955 51.149999999999977 14.799999999999955 48.449999999999989 14.799999999999955 47.100000000000023 C20.475000000000023 47.100000000000023 31.825000000000045 47.100000000000023 37.500000000000000 47.100000000000023 C37.500000000000000 36.824999999999989 37.500000000000000 16.274999999999977 37.500000000000000 6.000000000000000 C37.500000000000000 -7.800000000000011 25.700000000000045 -13.800000000000011 10.399999999999977 -16.100000000000023 C10.733333333333348 -17.699999999999989 11.149999999999977 -19.699999999999989 11.399999999999977 -20.899999999999977 C31.600000000000023 -17.699999999999989 43.700000000000045 -9.600000000000023 43.700000000000045 6.399999999999977 C43.700000000000045 21.766666666666652 43.700000000000045 40.975000000000023 43.700000000000045 52.500000000000000 z" />
<glyph unicode="k" horiz-adv-x="60" d="M17.899999999999999 74.599999999999994 C16.350000000000023 74.399999999999977 13.250000000000000 74.000000000000000 11.700000000000045 73.800000000000011 C11.700000000000045 55.350000000000023 11.700000000000045 18.449999999999989 11.700000000000045 0.000000000000000 C13.250000000000000 0.000000000000000 16.350000000000023 0.000000000000000 17.899999999999977 0.000000000000000 C17.899999999999977 18.649999999999977 17.899999999999977 55.949999999999989 17.899999999999977 74.600000000000023 zM53.200000000000003 52.500000000000000 C50.899999999999977 52.500000000000000 46.299999999999955 52.500000000000000 44.000000000000000 52.500000000000000 C37.725000000000023 46.550000000000011 25.174999999999955 34.649999999999977 18.899999999999977 28.699999999999989 C26.000000000000000 21.524999999999977 40.200000000000045 7.175000000000011 47.299999999999955 0.000000000000000 C49.549999999999955 0.000000000000000 54.049999999999955 0.000000000000000 56.299999999999955 0.000000000000000 C49.149999999999977 7.175000000000011 34.850000000000023 21.524999999999977 27.700000000000045 28.699999999999989 C34.075000000000045 34.649999999999977 46.825000000000045 46.550000000000011 53.200000000000045 52.500000000000000 z" />
<glyph unicode="l" horiz-adv-x="60" d="M29.300000000000001 73.799999999999997 C23.674999999999955 73.800000000000011 12.424999999999955 73.800000000000011 6.799999999999955 73.800000000000011 C6.799999999999955 72.425000000000011 6.799999999999955 69.675000000000011 6.799999999999955 68.300000000000011 C10.875000000000000 68.300000000000011 19.024999999999977 68.300000000000011 23.100000000000023 68.300000000000011 C23.100000000000023 54.199999999999989 23.100000000000023 26.000000000000000 23.100000000000023 11.899999999999977 C23.100000000000023 3.699999999999989 29.600000000000023 -1.000000000000000 37.899999999999977 -1.000000000000000 C42.899999999999977 -1.000000000000000 47.000000000000000 0.199999999999989 49.600000000000023 1.500000000000000 C49.000000000000000 3.100000000000023 48.250000000000000 5.100000000000023 47.799999999999955 6.300000000000011 C44.700000000000045 5.100000000000023 41.899999999999977 4.399999999999977 38.600000000000023 4.399999999999977 C33.200000000000045 4.399999999999977 29.299999999999955 6.399999999999977 29.299999999999955 11.899999999999977 C29.299999999999955 32.533333333333303 29.299999999999955 58.324999999999989 29.299999999999955 73.800000000000011 z" />
<glyph unicode="m" horiz-adv-x="60" d="M44.299999999999997 53.500000000000000 C38.700000000000045 53.500000000000000 35.500000000000000 50.600000000000023 32.700000000000045 46.300000000000011 C31.000000000000000 52.000000000000000 26.799999999999955 53.500000000000000 22.799999999999955 53.500000000000000 C17.299999999999955 53.500000000000000 13.899999999999977 50.100000000000023 11.200000000000045 46.100000000000023 C11.066666666666720 48.233333333333348 10.899999999999977 50.899999999999977 10.799999999999955 52.500000000000000 C9.549999999999955 52.500000000000000 7.049999999999955 52.500000000000000 5.799999999999955 52.500000000000000 C5.799999999999955 39.375000000000000 5.799999999999955 13.125000000000000 5.799999999999955 0.000000000000000 C7.274999999999977 0.000000000000000 10.225000000000023 0.000000000000000 11.700000000000045 0.000000000000000 C11.700000000000045 10.350000000000023 11.700000000000045 31.050000000000011 11.700000000000045 41.399999999999977 C14.899999999999977 46.500000000000000 18.299999999999955 48.600000000000023 22.000000000000000 48.600000000000023 C26.299999999999955 48.600000000000023 26.500000000000000 45.399999999999977 26.500000000000000 37.899999999999977 C26.500000000000000 25.266666666666652 26.500000000000000 9.475000000000023 26.500000000000000 0.000000000000000 C28.225000000000023 0.000000000000000 31.674999999999955 0.000000000000000 33.399999999999977 0.000000000000000 C33.399999999999977 10.350000000000023 33.399999999999977 31.050000000000011 33.399999999999977 41.399999999999977 C36.500000000000000 46.500000000000000 40.100000000000023 48.600000000000023 43.700000000000045 48.600000000000023 C48.000000000000000 48.600000000000023 48.200000000000045 45.399999999999977 48.200000000000045 37.899999999999977 C48.200000000000045 25.266666666666652 48.200000000000045 9.475000000000023 48.200000000000045 0.000000000000000 C49.700000000000045 0.000000000000000 52.700000000000045 0.000000000000000 54.200000000000045 0.000000000000000 C54.200000000000045 9.800000000000011 54.200000000000045 29.399999999999977 54.200000000000045 39.199999999999989 C54.200000000000045 51.600000000000023 48.600000000000023 53.500000000000000 44.299999999999955 53.500000000000000 z" />
<glyph unicode="n" horiz-adv-x="60" d="M10.900000000000000 0.000000000000000 C12.450000000000045 0.000000000000000 15.549999999999955 0.000000000000000 17.100000000000023 0.000000000000000 C17.100000000000023 9.675000000000011 17.100000000000023 29.024999999999977 17.100000000000023 38.699999999999989 C19.799999999999955 42.899999999999977 25.799999999999955 48.300000000000011 32.799999999999955 48.300000000000011 C42.000000000000000 48.300000000000011 43.000000000000000 43.399999999999977 43.000000000000000 31.300000000000011 C43.000000000000000 20.866666666666674 43.000000000000000 7.824999999999989 43.000000000000000 0.000000000000000 C44.549999999999955 0.000000000000000 47.649999999999977 0.000000000000000 49.200000000000045 0.000000000000000 C49.200000000000045 9.500000000000000 49.200000000000045 28.500000000000000 49.200000000000045 38.000000000000000 C49.200000000000045 47.699999999999989 45.100000000000023 53.500000000000000 34.299999999999955 53.500000000000000 C28.399999999999977 53.500000000000000 20.799999999999955 50.300000000000011 16.700000000000045 44.800000000000011 C16.500000000000000 47.366666666666674 16.250000000000000 50.574999999999989 16.100000000000023 52.500000000000000 C14.799999999999955 52.500000000000000 12.200000000000045 52.500000000000000 10.899999999999977 52.500000000000000 C10.899999999999977 39.375000000000000 10.899999999999977 13.125000000000000 10.899999999999977 0.000000000000000 z" />
<glyph unicode="o" horiz-adv-x="60" d="M30.100000000000001 53.500000000000000 C15.700000000000045 53.500000000000000 8.299999999999955 42.199999999999989 8.299999999999955 26.199999999999989 C8.299999999999955 10.000000000000000 15.600000000000023 -1.000000000000000 30.000000000000000 -1.000000000000000 C44.299999999999955 -1.000000000000000 51.700000000000045 10.600000000000023 51.700000000000045 26.300000000000011 C51.700000000000045 42.800000000000011 44.500000000000000 53.500000000000000 30.100000000000023 53.500000000000000 zM30.100000000000001 48.000000000000000 C39.899999999999977 48.000000000000000 44.899999999999977 41.000000000000000 44.899999999999977 26.300000000000011 C44.899999999999977 11.600000000000023 39.899999999999977 4.500000000000000 30.000000000000000 4.500000000000000 C20.100000000000023 4.500000000000000 15.100000000000023 11.600000000000023 15.100000000000023 26.199999999999989 C15.100000000000023 41.000000000000000 20.299999999999955 48.000000000000000 30.100000000000023 48.000000000000000 z" />
<glyph unicode="p" horiz-adv-x="60" d="M32.799999999999997 53.500000000000000 C26.000000000000000 53.500000000000000 20.500000000000000 50.100000000000023 16.799999999999955 44.800000000000011 C16.566666666666720 47.366666666666674 16.274999999999977 50.574999999999989 16.100000000000023 52.500000000000000 C14.799999999999955 52.500000000000000 12.200000000000045 52.500000000000000 10.899999999999977 52.500000000000000 C10.899999999999977 34.149999999999977 10.899999999999977 -2.550000000000011 10.899999999999977 -20.899999999999977 C12.450000000000045 -20.699999999999989 15.549999999999955 -20.300000000000011 17.100000000000023 -20.100000000000023 C17.100000000000023 -13.774999999999977 17.100000000000023 -1.125000000000000 17.100000000000023 5.199999999999989 C20.799999999999955 1.100000000000023 25.500000000000000 -1.000000000000000 31.500000000000000 -1.000000000000000 C45.399999999999977 -1.000000000000000 51.700000000000045 10.399999999999977 51.700000000000045 26.300000000000011 C51.700000000000045 42.600000000000023 46.799999999999955 53.500000000000000 32.799999999999955 53.500000000000000 zM31.600000000000001 48.100000000000001 C40.899999999999977 48.100000000000023 44.899999999999977 40.300000000000011 44.899999999999977 26.399999999999977 C44.899999999999977 11.699999999999989 40.100000000000023 4.699999999999989 30.500000000000000 4.699999999999989 C25.000000000000000 4.699999999999989 20.100000000000023 7.500000000000000 17.100000000000023 11.800000000000011 C17.100000000000023 20.866666666666674 17.100000000000023 32.199999999999989 17.100000000000023 39.000000000000000 C20.200000000000045 43.399999999999977 25.200000000000045 48.100000000000023 31.600000000000023 48.100000000000023 z" />
<glyph unicode="q" horiz-adv-x="60" d="M28.000000000000000 53.500000000000000 C15.100000000000023 53.500000000000000 8.299999999999955 41.800000000000011 8.299999999999955 26.100000000000023 C8.299999999999955 9.800000000000011 13.399999999999977 -1.000000000000000 27.700000000000045 -1.000000000000000 C33.299999999999955 -1.000000000000000 38.799999999999955 1.399999999999977 42.899999999999977 7.300000000000011 C42.899999999999977 -1.833333333333314 42.899999999999977 -13.250000000000000 42.899999999999977 -20.100000000000023 C44.450000000000045 -20.300000000000011 47.549999999999955 -20.699999999999989 49.100000000000023 -20.899999999999977 C49.100000000000023 -2.550000000000011 49.100000000000023 34.149999999999977 49.100000000000023 52.500000000000000 C47.799999999999955 52.500000000000000 45.200000000000045 52.500000000000000 43.899999999999977 52.500000000000000 C43.725000000000023 50.949999999999989 43.375000000000000 47.850000000000023 43.200000000000045 46.300000000000011 C39.500000000000000 50.899999999999977 34.600000000000023 53.500000000000000 28.000000000000000 53.500000000000000 zM29.500000000000000 48.100000000000001 C35.000000000000000 48.100000000000023 39.899999999999977 45.300000000000011 42.899999999999977 40.600000000000023 C42.899999999999977 31.533333333333303 42.899999999999977 20.199999999999989 42.899999999999977 13.399999999999977 C39.799999999999955 8.800000000000011 34.899999999999977 4.600000000000023 28.500000000000000 4.600000000000023 C19.299999999999955 4.600000000000023 15.100000000000023 12.300000000000011 15.100000000000023 26.199999999999989 C15.100000000000023 40.699999999999989 19.899999999999977 48.100000000000023 29.500000000000000 48.100000000000023 z" />
<glyph unicode="r" horiz-adv-x="60" d="M45.000000000000000 53.500000000000000 C35.200000000000045 53.500000000000000 30.000000000000000 48.399999999999977 25.899999999999977 39.899999999999977 C25.500000000000000 44.100000000000023 25.000000000000000 49.350000000000023 24.700000000000045 52.500000000000000 C21.375000000000000 52.500000000000000 14.725000000000023 52.500000000000000 11.399999999999977 52.500000000000000 C11.399999999999977 51.199999999999989 11.399999999999977 48.600000000000023 11.399999999999977 47.300000000000011 C13.549999999999955 47.300000000000011 17.850000000000023 47.300000000000011 20.000000000000000 47.300000000000011 C20.000000000000000 36.774999999999977 20.000000000000000 15.725000000000023 20.000000000000000 5.199999999999989 C17.850000000000023 5.199999999999989 13.549999999999955 5.199999999999989 11.399999999999977 5.199999999999989 C11.399999999999977 3.899999999999977 11.399999999999977 1.300000000000011 11.399999999999977 0.000000000000000 C17.799999999999955 0.000000000000000 30.600000000000023 0.000000000000000 37.000000000000000 0.000000000000000 C37.000000000000000 1.300000000000011 37.000000000000000 3.899999999999977 37.000000000000000 5.199999999999989 C34.299999999999955 5.199999999999989 28.899999999999977 5.199999999999989 26.200000000000045 5.199999999999989 C26.200000000000045 11.300000000000011 26.200000000000045 23.500000000000000 26.200000000000045 29.600000000000023 C29.899999999999977 42.000000000000000 35.799999999999955 47.600000000000023 44.200000000000045 47.600000000000023 C44.633333333333326 47.600000000000023 45.174999999999955 47.600000000000023 45.500000000000000 47.600000000000023 C45.475000000000023 47.274999999999977 45.424999999999955 46.625000000000000 45.399999999999977 46.300000000000011 C45.399999999999977 43.725000000000023 45.399999999999977 38.574999999999989 45.399999999999977 36.000000000000000 C46.899999999999977 36.000000000000000 49.899999999999977 36.000000000000000 51.399999999999977 36.000000000000000 C51.575000000000045 40.125000000000000 51.924999999999955 48.375000000000000 52.100000000000023 52.500000000000000 C49.700000000000045 53.100000000000023 47.700000000000045 53.500000000000000 45.000000000000000 53.500000000000000 z" />
<glyph unicode="s" horiz-adv-x="60" d="M27.899999999999999 4.700000000000000 C21.700000000000045 4.699999999999989 16.100000000000023 6.899999999999977 12.000000000000000 10.399999999999977 C10.733333333333348 8.899999999999977 9.149999999999977 7.024999999999977 8.200000000000045 5.899999999999977 C12.399999999999977 2.199999999999989 18.500000000000000 -1.000000000000000 27.799999999999955 -1.000000000000000 C38.399999999999977 -1.000000000000000 49.100000000000023 3.000000000000000 49.100000000000023 14.199999999999989 C49.100000000000023 23.899999999999977 42.299999999999955 27.500000000000000 32.000000000000000 30.300000000000011 C21.299999999999955 33.100000000000023 17.600000000000023 34.899999999999977 17.600000000000023 40.199999999999989 C17.600000000000023 44.699999999999989 20.899999999999977 48.000000000000000 30.200000000000045 48.000000000000000 C37.399999999999977 48.000000000000000 41.799999999999955 45.899999999999977 45.600000000000023 43.199999999999989 C46.566666666666720 44.733333333333348 47.774999999999977 46.649999999999977 48.500000000000000 47.800000000000011 C44.299999999999955 50.899999999999977 38.299999999999955 53.500000000000000 30.100000000000023 53.500000000000000 C19.100000000000023 53.500000000000000 11.000000000000000 48.300000000000011 11.000000000000000 39.699999999999989 C11.000000000000000 30.600000000000023 18.200000000000045 27.600000000000023 29.399999999999977 24.800000000000011 C40.799999999999955 22.100000000000023 42.200000000000045 19.199999999999989 42.200000000000045 14.000000000000000 C42.200000000000045 8.399999999999977 36.799999999999955 4.699999999999989 27.899999999999977 4.699999999999989 z" />
<glyph unicode="t" horiz-adv-x="60" d="M51.000000000000000 2.500000000000000 C50.325000000000045 3.625000000000000 48.975000000000023 5.875000000000000 48.299999999999955 7.000000000000000 C45.399999999999977 5.399999999999977 42.000000000000000 4.399999999999977 38.000000000000000 4.399999999999977 C30.200000000000045 4.399999999999977 27.200000000000045 7.899999999999977 27.200000000000045 13.899999999999977 C27.200000000000045 25.033333333333303 27.200000000000045 38.949999999999989 27.200000000000045 47.300000000000011 C31.600000000000023 47.300000000000011 40.399999999999977 47.300000000000011 44.799999999999955 47.300000000000011 C45.024999999999977 48.600000000000023 45.475000000000023 51.199999999999989 45.700000000000045 52.500000000000000 C41.075000000000045 52.500000000000000 31.825000000000045 52.500000000000000 27.200000000000045 52.500000000000000 C27.200000000000045 55.699999999999989 27.200000000000045 62.100000000000023 27.200000000000045 65.300000000000011 C25.649999999999977 65.125000000000000 22.549999999999955 64.774999999999977 21.000000000000000 64.600000000000023 C21.000000000000000 61.574999999999989 21.000000000000000 55.524999999999977 21.000000000000000 52.500000000000000 C17.899999999999977 52.500000000000000 11.700000000000045 52.500000000000000 8.600000000000023 52.500000000000000 C8.600000000000023 51.199999999999989 8.600000000000023 48.600000000000023 8.600000000000023 47.300000000000011 C11.700000000000045 47.300000000000011 17.899999999999977 47.300000000000011 21.000000000000000 47.300000000000011 C21.000000000000000 38.899999999999977 21.000000000000000 22.100000000000023 21.000000000000000 13.699999999999989 C21.000000000000000 5.300000000000011 27.299999999999955 -1.000000000000000 37.799999999999955 -1.000000000000000 C42.100000000000023 -1.000000000000000 47.500000000000000 0.300000000000011 51.000000000000000 2.500000000000000 z" />
<glyph unicode="u" horiz-adv-x="60" d="M17.100000000000001 52.500000000000000 C15.549999999999955 52.500000000000000 12.450000000000045 52.500000000000000 10.899999999999977 52.500000000000000 C10.899999999999977 42.925000000000011 10.899999999999977 23.774999999999977 10.899999999999977 14.199999999999989 C10.899999999999977 4.600000000000023 16.000000000000000 -1.000000000000000 26.100000000000023 -1.000000000000000 C32.200000000000045 -1.000000000000000 38.799999999999955 2.000000000000000 43.200000000000045 7.399999999999977 C43.433333333333394 4.933333333333337 43.725000000000023 1.850000000000023 43.899999999999977 0.000000000000000 C45.200000000000045 0.000000000000000 47.799999999999955 0.000000000000000 49.100000000000023 0.000000000000000 C49.100000000000023 13.125000000000000 49.100000000000023 39.375000000000000 49.100000000000023 52.500000000000000 C47.549999999999955 52.500000000000000 44.450000000000045 52.500000000000000 42.899999999999977 52.500000000000000 C42.899999999999977 42.725000000000023 42.899999999999977 23.175000000000011 42.899999999999977 13.399999999999977 C39.799999999999955 8.600000000000023 33.600000000000023 4.199999999999989 27.000000000000000 4.199999999999989 C20.100000000000023 4.199999999999989 17.100000000000023 7.500000000000000 17.100000000000023 14.899999999999977 C17.100000000000023 27.433333333333337 17.100000000000023 43.100000000000023 17.100000000000023 52.500000000000000 z" />
<glyph unicode="v" horiz-adv-x="60" d="M53.000000000000000 52.500000000000000 C51.375000000000000 52.500000000000000 48.125000000000000 52.500000000000000 46.500000000000000 52.500000000000000 C42.424999999999955 40.949999999999989 34.274999999999977 17.850000000000023 30.200000000000045 6.300000000000011 C26.024999999999977 17.850000000000023 17.674999999999955 40.949999999999989 13.500000000000000 52.500000000000000 C11.875000000000000 52.500000000000000 8.625000000000000 52.500000000000000 7.000000000000000 52.500000000000000 C11.825000000000045 39.375000000000000 21.475000000000023 13.125000000000000 26.299999999999955 0.000000000000000 C28.075000000000045 0.000000000000000 31.625000000000000 0.000000000000000 33.399999999999977 0.000000000000000 C38.299999999999955 13.125000000000000 48.100000000000023 39.375000000000000 53.000000000000000 52.500000000000000 z" />
<glyph unicode="w" horiz-adv-x="60" d="M48.200000000000003 0.000000000000000 C50.600000000000023 13.125000000000000 55.399999999999977 39.375000000000000 57.799999999999955 52.500000000000000 C56.200000000000045 52.500000000000000 53.000000000000000 52.500000000000000 51.399999999999977 52.500000000000000 C49.475000000000023 40.324999999999989 45.625000000000000 15.975000000000023 43.700000000000045 3.800000000000011 C41.500000000000000 14.300000000000011 37.100000000000023 35.300000000000011 34.899999999999977 45.800000000000011 C32.674999999999955 45.800000000000011 28.225000000000023 45.800000000000011 26.000000000000000 45.800000000000011 C23.674999999999955 35.300000000000011 19.024999999999977 14.300000000000011 16.700000000000045 3.800000000000011 C14.774999999999977 15.975000000000023 10.924999999999955 40.324999999999989 9.000000000000000 52.500000000000000 C7.299999999999955 52.500000000000000 3.899999999999977 52.500000000000000 2.200000000000045 52.500000000000000 C4.725000000000023 39.375000000000000 9.774999999999977 13.125000000000000 12.299999999999955 0.000000000000000 C14.774999999999977 0.000000000000000 19.725000000000023 0.000000000000000 22.200000000000045 0.000000000000000 C24.250000000000000 9.875000000000000 28.350000000000023 29.625000000000000 30.399999999999977 39.500000000000000 C32.274999999999977 29.625000000000000 36.024999999999977 9.875000000000000 37.899999999999977 0.000000000000000 C40.475000000000023 0.000000000000000 45.625000000000000 0.000000000000000 48.200000000000045 0.000000000000000 z" />
<glyph unicode="x" horiz-adv-x="60" d="M13.900000000000000 0.000000000000000 C17.875000000000000 5.850000000000023 25.825000000000045 17.550000000000011 29.799999999999955 23.399999999999977 C33.700000000000045 17.550000000000011 41.500000000000000 5.850000000000023 45.399999999999977 0.000000000000000 C47.399999999999977 0.000000000000000 51.399999999999977 0.000000000000000 53.399999999999977 0.000000000000000 C48.475000000000023 7.024999999999977 38.625000000000000 21.074999999999989 33.700000000000045 28.100000000000023 C38.075000000000045 34.199999999999989 46.825000000000045 46.399999999999977 51.200000000000045 52.500000000000000 C49.325000000000045 52.500000000000000 45.575000000000045 52.500000000000000 43.700000000000045 52.500000000000000 C40.299999999999955 47.425000000000011 33.500000000000000 37.274999999999977 30.100000000000023 32.199999999999989 C26.774999999999977 37.274999999999977 20.125000000000000 47.425000000000011 16.799999999999955 52.500000000000000 C14.875000000000000 52.500000000000000 11.024999999999977 52.500000000000000 9.100000000000023 52.500000000000000 C13.424999999999955 46.324999999999989 22.075000000000045 33.975000000000023 26.399999999999977 27.800000000000011 C21.450000000000045 20.850000000000023 11.549999999999955 6.949999999999989 6.600000000000023 0.000000000000000 C8.424999999999955 0.000000000000000 12.075000000000045 0.000000000000000 13.899999999999977 0.000000000000000 z" />
<glyph unicode="y" horiz-adv-x="60" d="M52.799999999999997 52.500000000000000 C51.200000000000045 52.500000000000000 48.000000000000000 52.500000000000000 46.399999999999977 52.500000000000000 C42.399999999999977 40.699999999999989 34.399999999999977 17.100000000000023 30.399999999999977 5.300000000000011 C26.250000000000000 17.100000000000023 17.950000000000045 40.699999999999989 13.799999999999955 52.500000000000000 C12.149999999999977 52.500000000000000 8.850000000000023 52.500000000000000 7.200000000000045 52.500000000000000 C11.899999999999977 39.375000000000000 21.299999999999955 13.125000000000000 26.000000000000000 0.000000000000000 C26.500000000000000 0.000000000000000 27.500000000000000 0.000000000000000 28.000000000000000 0.000000000000000 C25.299999999999955 -8.500000000000000 22.299999999999955 -13.399999999999977 11.399999999999977 -15.500000000000000 C11.733333333333348 -17.300000000000011 12.149999999999977 -19.550000000000011 12.399999999999977 -20.899999999999977 C25.799999999999955 -19.199999999999989 30.700000000000045 -10.199999999999989 34.100000000000023 -0.399999999999977 C40.333333333333371 17.233333333333348 48.125000000000000 39.274999999999977 52.799999999999955 52.500000000000000 z" />
<glyph unicode="z" horiz-adv-x="60" d="M18.899999999999999 5.800000000000000 C26.375000000000000 16.199999999999989 41.325000000000045 37.000000000000000 48.799999999999955 47.399999999999977 C48.799999999999955 48.675000000000011 48.799999999999955 51.225000000000023 48.799999999999955 52.500000000000000 C39.975000000000023 52.500000000000000 22.325000000000045 52.500000000000000 13.500000000000000 52.500000000000000 C13.500000000000000 51.024999999999977 13.500000000000000 48.074999999999989 13.500000000000000 46.600000000000023 C20.424999999999955 46.600000000000023 34.274999999999977 46.600000000000023 41.200000000000045 46.600000000000023 C33.674999999999955 36.199999999999989 18.625000000000000 15.399999999999977 11.100000000000023 5.000000000000000 C11.100000000000023 3.750000000000000 11.100000000000023 1.250000000000000 11.100000000000023 0.000000000000000 C20.350000000000023 0.000000000000000 38.850000000000023 0.000000000000000 48.100000000000023 0.000000000000000 C48.325000000000045 1.449999999999989 48.774999999999977 4.350000000000023 49.000000000000000 5.800000000000011 C41.475000000000023 5.800000000000011 26.424999999999955 5.800000000000011 18.899999999999977 5.800000000000011 z" />
<glyph unicode="{" horiz-adv-x="60" d="M44.700000000000003 83.400000000000006 C35.600000000000023 83.399999999999977 24.200000000000045 80.500000000000000 25.399999999999977 68.699999999999989 C26.166666666666629 61.833333333333314 27.125000000000000 53.250000000000000 27.700000000000045 48.100000000000023 C28.299999999999955 41.500000000000000 27.000000000000000 37.500000000000000 12.100000000000023 37.500000000000000 C12.100000000000023 35.833333333333314 12.100000000000023 33.750000000000000 12.100000000000023 32.500000000000000 C27.000000000000000 32.500000000000000 28.299999999999955 28.300000000000011 27.700000000000045 21.699999999999989 C26.933333333333280 14.899999999999977 25.975000000000023 6.399999999999977 25.399999999999977 1.300000000000011 C24.200000000000045 -10.600000000000023 35.600000000000023 -13.399999999999977 44.700000000000045 -13.399999999999977 C44.700000000000045 -11.633333333333326 44.700000000000045 -9.425000000000011 44.700000000000045 -8.100000000000023 C37.000000000000000 -8.100000000000023 30.500000000000000 -6.199999999999989 31.200000000000045 0.399999999999977 C31.933333333333280 7.800000000000011 32.850000000000023 17.050000000000011 33.399999999999977 22.600000000000023 C34.100000000000023 30.699999999999989 31.799999999999955 33.800000000000011 25.899999999999977 35.000000000000000 C31.799999999999955 36.199999999999989 34.100000000000023 39.800000000000011 33.399999999999977 47.399999999999977 C32.666666666666629 54.800000000000011 31.750000000000000 64.050000000000011 31.200000000000045 69.600000000000023 C30.500000000000000 76.100000000000023 37.000000000000000 78.100000000000023 44.700000000000045 78.100000000000023 C44.700000000000045 79.866666666666674 44.700000000000045 82.074999999999989 44.700000000000045 83.399999999999977 z" />
<glyph unicode="|" horiz-adv-x="60" d="M32.600000000000001 80.599999999999994 C31.274999999999977 80.600000000000023 28.625000000000000 80.600000000000023 27.299999999999955 80.600000000000023 C27.299999999999955 57.925000000000011 27.299999999999955 12.574999999999989 27.299999999999955 -10.100000000000023 C28.625000000000000 -10.100000000000023 31.274999999999977 -10.100000000000023 32.600000000000023 -10.100000000000023 C32.600000000000023 12.574999999999989 32.600000000000023 57.925000000000011 32.600000000000023 80.600000000000023 z" />
<glyph unicode="}" horiz-adv-x="60" d="M15.300000000000001 83.400000000000006 C15.299999999999955 82.074999999999989 15.299999999999955 79.425000000000011 15.299999999999955 78.100000000000023 C23.000000000000000 78.100000000000023 29.500000000000000 76.100000000000023 28.799999999999955 69.600000000000023 C28.066666666666606 62.199999999999989 27.149999999999977 52.949999999999989 26.600000000000023 47.399999999999977 C25.899999999999977 39.899999999999977 28.500000000000000 36.199999999999989 35.500000000000000 34.899999999999977 C27.899999999999977 33.800000000000011 25.899999999999977 30.699999999999989 26.600000000000023 22.600000000000023 C27.333333333333371 15.199999999999989 28.250000000000000 5.949999999999989 28.799999999999955 0.399999999999977 C29.500000000000000 -6.199999999999989 23.000000000000000 -8.100000000000023 15.299999999999955 -8.100000000000023 C15.299999999999955 -9.866666666666674 15.299999999999955 -12.074999999999989 15.299999999999955 -13.399999999999977 C24.399999999999977 -13.399999999999977 35.799999999999955 -10.500000000000000 34.600000000000023 1.300000000000011 C33.833333333333371 8.100000000000023 32.875000000000000 16.600000000000023 32.299999999999955 21.699999999999989 C31.700000000000045 28.300000000000011 34.399999999999977 32.500000000000000 47.899999999999977 32.500000000000000 C47.899999999999977 34.166666666666686 47.899999999999977 36.250000000000000 47.899999999999977 37.500000000000000 C34.500000000000000 37.500000000000000 31.700000000000045 41.500000000000000 32.299999999999955 48.100000000000023 C33.066666666666606 54.966666666666697 34.024999999999977 63.550000000000011 34.600000000000023 68.699999999999989 C35.799999999999955 80.600000000000023 24.399999999999977 83.399999999999977 15.299999999999955 83.399999999999977 z" />
<glyph unicode="~" horiz-adv-x="60" d="M20.600000000000001 39.200000000000003 C11.700000000000045 39.199999999999989 7.600000000000023 32.399999999999977 5.000000000000000 27.300000000000011 C6.700000000000045 26.399999999999977 8.825000000000045 25.274999999999977 10.100000000000023 24.600000000000023 C12.700000000000045 29.399999999999977 15.899999999999977 33.300000000000011 20.299999999999955 33.300000000000011 C26.799999999999955 33.300000000000011 30.100000000000023 23.300000000000011 39.399999999999977 23.300000000000011 C48.200000000000045 23.300000000000011 52.399999999999977 30.399999999999977 55.000000000000000 35.000000000000000 C53.299999999999955 35.966666666666697 51.174999999999955 37.175000000000011 49.899999999999977 37.899999999999977 C47.299999999999955 33.199999999999989 43.899999999999977 29.199999999999989 39.700000000000045 29.199999999999989 C33.500000000000000 29.199999999999989 30.700000000000045 39.199999999999989 20.600000000000023 39.199999999999989 z" />
<glyph unicode="" horiz-adv-x="60" d="" />
<glyph unicode="" horiz-adv-x="60" d="M29.899999999999999 49.500000000000000 C26.399999999999977 49.500000000000000 23.899999999999977 46.899999999999977 23.899999999999977 43.399999999999977 C23.899999999999977 40.100000000000023 26.399999999999977 37.500000000000000 29.899999999999977 37.500000000000000 C33.200000000000045 37.500000000000000 35.899999999999977 40.100000000000023 35.899999999999977 43.399999999999977 C35.899999999999977 46.899999999999977 33.200000000000045 49.500000000000000 29.899999999999977 49.500000000000000 zM32.700000000000003 26.600000000000001 C31.299999999999955 26.600000000000023 28.500000000000000 26.600000000000023 27.100000000000023 26.600000000000023 C26.850000000000023 15.074999999999989 26.350000000000023 -7.975000000000023 26.100000000000023 -19.500000000000000 C28.000000000000000 -19.500000000000000 31.799999999999955 -19.500000000000000 33.700000000000045 -19.500000000000000 C33.450000000000045 -7.975000000000023 32.950000000000045 15.074999999999989 32.700000000000045 26.600000000000023 z" />
<glyph unicode="" horiz-adv-x="60" d="M36.700000000000003 68.000000000000000 C35.149999999999977 68.000000000000000 32.049999999999955 68.000000000000000 30.500000000000000 68.000000000000000 C30.500000000000000 64.225000000000023 30.500000000000000 56.675000000000011 30.500000000000000 52.899999999999977 C17.700000000000045 51.399999999999977 11.399999999999977 40.500000000000000 11.399999999999977 26.100000000000023 C11.399999999999977 10.699999999999989 17.700000000000045 0.899999999999977 30.399999999999977 -0.500000000000000 C30.399999999999977 -5.366666666666674 30.399999999999977 -11.449999999999989 30.399999999999977 -15.100000000000023 C31.975000000000023 -15.100000000000023 35.125000000000000 -15.100000000000023 36.700000000000045 -15.100000000000023 C36.700000000000045 -11.449999999999989 36.700000000000045 -4.149999999999977 36.700000000000045 -0.500000000000000 C40.799999999999955 0.000000000000000 44.799999999999955 1.399999999999977 48.600000000000023 4.600000000000023 C47.533333333333303 6.166666666666686 46.200000000000045 8.125000000000000 45.399999999999977 9.300000000000011 C40.899999999999977 5.800000000000011 37.299999999999955 4.699999999999989 33.200000000000045 4.699999999999989 C23.899999999999977 4.699999999999989 18.299999999999955 11.399999999999977 18.299999999999955 26.100000000000023 C18.299999999999955 40.600000000000023 23.899999999999977 47.899999999999977 33.200000000000045 47.899999999999977 C37.200000000000045 47.899999999999977 40.500000000000000 47.100000000000023 45.200000000000045 43.699999999999989 C46.333333333333371 45.199999999999989 47.750000000000000 47.074999999999989 48.600000000000023 48.199999999999989 C44.799999999999955 51.199999999999989 40.799999999999955 52.600000000000023 36.700000000000045 53.000000000000000 C36.700000000000045 58.000000000000000 36.700000000000045 64.250000000000000 36.700000000000045 68.000000000000000 z" />
<glyph unicode="" horiz-adv-x="60" d="M34.399999999999999 69.700000000000003 C23.399999999999977 69.699999999999989 16.600000000000023 62.100000000000023 16.600000000000023 51.899999999999977 C16.600000000000023 47.366666666666674 16.600000000000023 41.699999999999989 16.600000000000023 38.300000000000011 C14.475000000000023 38.300000000000011 10.225000000000023 38.300000000000011 8.100000000000023 38.300000000000011 C8.100000000000023 37.024999999999977 8.100000000000023 34.475000000000023 8.100000000000023 33.199999999999989 C10.225000000000023 33.199999999999989 14.475000000000023 33.199999999999989 16.600000000000023 33.199999999999989 C16.600000000000023 29.574999999999989 16.600000000000023 22.324999999999989 16.600000000000023 18.699999999999989 C16.600000000000023 12.899999999999977 16.500000000000000 8.000000000000000 8.399999999999977 5.399999999999977 C8.399999999999977 3.600000000000023 8.399999999999977 1.350000000000023 8.399999999999977 0.000000000000000 C18.850000000000023 0.000000000000000 39.750000000000000 0.000000000000000 50.200000000000045 0.000000000000000 C50.399999999999977 1.449999999999989 50.799999999999955 4.350000000000023 51.000000000000000 5.800000000000011 C42.450000000000045 5.800000000000011 25.350000000000023 5.800000000000011 16.799999999999955 5.800000000000011 C22.000000000000000 8.699999999999989 22.899999999999977 13.800000000000011 22.899999999999977 19.399999999999977 C22.899999999999977 24.000000000000000 22.899999999999977 29.750000000000000 22.899999999999977 33.199999999999989 C28.225000000000023 33.199999999999989 38.875000000000000 33.199999999999989 44.200000000000045 33.199999999999989 C44.200000000000045 34.475000000000023 44.200000000000045 37.024999999999977 44.200000000000045 38.300000000000011 C38.875000000000000 38.300000000000011 28.225000000000023 38.300000000000011 22.899999999999977 38.300000000000011 C22.899999999999977 41.500000000000000 22.899999999999977 47.899999999999977 22.899999999999977 51.100000000000023 C22.899999999999977 59.500000000000000 26.799999999999955 64.000000000000000 34.399999999999977 64.000000000000000 C39.600000000000023 64.000000000000000 43.500000000000000 62.199999999999989 47.100000000000023 58.000000000000000 C48.600000000000023 59.166666666666686 50.475000000000023 60.625000000000000 51.600000000000023 61.500000000000000 C47.299999999999955 67.399999999999977 41.100000000000023 69.699999999999989 34.399999999999977 69.699999999999989 z" />
<glyph unicode="" horiz-adv-x="60" d="M8.500000000000000 60.899999999999999 C7.250000000000000 59.675000000000011 4.750000000000000 57.225000000000023 3.500000000000000 56.000000000000000 C5.774999999999977 53.675000000000011 10.325000000000045 49.024999999999977 12.600000000000023 46.699999999999989 C10.399999999999977 43.399999999999977 9.000000000000000 39.100000000000023 9.000000000000000 34.199999999999989 C9.000000000000000 29.199999999999989 10.399999999999977 24.899999999999977 12.700000000000045 21.399999999999977 C9.633333333333326 18.366666666666674 5.799999999999955 14.574999999999989 3.500000000000000 12.300000000000011 C4.750000000000000 11.074999999999989 7.250000000000000 8.625000000000000 8.500000000000000 7.399999999999977 C10.774999999999977 9.675000000000011 15.325000000000045 14.225000000000023 17.600000000000023 16.500000000000000 C21.000000000000000 14.399999999999977 25.299999999999955 13.199999999999989 30.100000000000023 13.199999999999989 C34.799999999999955 13.199999999999989 38.899999999999977 14.399999999999977 42.200000000000045 16.500000000000000 C45.299999999999955 13.466666666666697 49.174999999999955 9.675000000000011 51.500000000000000 7.399999999999977 C52.750000000000000 8.649999999999977 55.250000000000000 11.149999999999977 56.500000000000000 12.399999999999977 C54.225000000000023 14.625000000000000 49.674999999999955 19.074999999999989 47.399999999999977 21.300000000000011 C49.700000000000045 24.800000000000011 51.299999999999955 29.100000000000023 51.299999999999955 34.199999999999989 C51.299999999999955 39.100000000000023 49.799999999999955 43.500000000000000 47.500000000000000 46.800000000000011 C50.500000000000000 49.833333333333314 54.250000000000000 53.625000000000000 56.500000000000000 55.899999999999977 C55.250000000000000 57.125000000000000 52.750000000000000 59.574999999999989 51.500000000000000 60.800000000000011 C49.225000000000023 58.524999999999977 44.674999999999955 53.975000000000023 42.399999999999977 51.699999999999989 C39.100000000000023 53.899999999999977 34.799999999999955 55.100000000000023 30.100000000000023 55.100000000000023 C25.299999999999955 55.100000000000023 21.000000000000000 53.800000000000011 17.600000000000023 51.699999999999989 C14.566666666666720 54.766666666666652 10.774999999999977 58.600000000000023 8.500000000000000 60.899999999999977 zM30.100000000000001 49.500000000000000 C39.100000000000023 49.500000000000000 43.700000000000045 43.699999999999989 43.700000000000045 34.199999999999989 C43.700000000000045 24.600000000000023 39.100000000000023 18.899999999999977 30.100000000000023 18.899999999999977 C21.200000000000045 18.899999999999977 16.399999999999977 24.600000000000023 16.399999999999977 34.199999999999989 C16.399999999999977 43.699999999999989 21.200000000000045 49.500000000000000 30.100000000000023 49.500000000000000 z" />
<glyph unicode="" horiz-adv-x="60" d="M55.100000000000001 68.700000000000003 C53.424999999999955 68.699999999999989 50.075000000000045 68.699999999999989 48.399999999999977 68.699999999999989 C43.924999999999955 60.550000000000011 34.975000000000023 44.250000000000000 30.500000000000000 36.100000000000023 C30.399999999999977 36.100000000000023 30.200000000000045 36.100000000000023 30.100000000000023 36.100000000000023 C25.625000000000000 44.250000000000000 16.674999999999955 60.550000000000011 12.200000000000045 68.699999999999989 C10.375000000000000 68.699999999999989 6.725000000000023 68.699999999999989 4.899999999999977 68.699999999999989 C9.825000000000045 60.100000000000023 19.674999999999955 42.899999999999977 24.600000000000023 34.300000000000011 C21.549999999999955 34.300000000000011 15.450000000000045 34.300000000000011 12.399999999999977 34.300000000000011 C12.399999999999977 33.024999999999977 12.399999999999977 30.475000000000023 12.399999999999977 29.199999999999989 C15.950000000000045 29.199999999999989 23.049999999999955 29.199999999999989 26.600000000000023 29.199999999999989 C26.600000000000023 26.925000000000011 26.600000000000023 22.375000000000000 26.600000000000023 20.100000000000023 C23.049999999999955 20.100000000000023 15.950000000000045 20.100000000000023 12.399999999999977 20.100000000000023 C12.399999999999977 18.800000000000011 12.399999999999977 16.199999999999989 12.399999999999977 14.899999999999977 C15.950000000000045 14.899999999999977 23.049999999999955 14.899999999999977 26.600000000000023 14.899999999999977 C26.600000000000023 11.175000000000011 26.600000000000023 3.725000000000023 26.600000000000023 0.000000000000000 C28.274999999999977 0.000000000000000 31.625000000000000 0.000000000000000 33.299999999999955 0.000000000000000 C33.299999999999955 3.725000000000023 33.299999999999955 11.175000000000011 33.299999999999955 14.899999999999977 C36.924999999999955 14.899999999999977 44.174999999999955 14.899999999999977 47.799999999999955 14.899999999999977 C47.799999999999955 16.199999999999989 47.799999999999955 18.800000000000011 47.799999999999955 20.100000000000023 C44.174999999999955 20.100000000000023 36.924999999999955 20.100000000000023 33.299999999999955 20.100000000000023 C33.299999999999955 22.375000000000000 33.299999999999955 26.925000000000011 33.299999999999955 29.199999999999989 C36.924999999999955 29.199999999999989 44.174999999999955 29.199999999999989 47.799999999999955 29.199999999999989 C47.799999999999955 30.475000000000023 47.799999999999955 33.024999999999977 47.799999999999955 34.300000000000011 C44.674999999999955 34.300000000000011 38.424999999999955 34.300000000000011 35.299999999999955 34.300000000000011 C40.250000000000000 42.899999999999977 50.149999999999977 60.100000000000023 55.100000000000023 68.699999999999989 z" />
<glyph unicode="" horiz-adv-x="60" d="M32.600000000000001 80.599999999999994 C31.274999999999977 80.600000000000023 28.625000000000000 80.600000000000023 27.299999999999955 80.600000000000023 C27.299999999999955 71.774999999999977 27.299999999999955 54.125000000000000 27.299999999999955 45.300000000000011 C28.625000000000000 45.300000000000011 31.274999999999977 45.300000000000011 32.600000000000023 45.300000000000011 C32.600000000000023 54.125000000000000 32.600000000000023 71.774999999999977 32.600000000000023 80.600000000000023 zM32.600000000000001 25.199999999999999 C31.274999999999977 25.199999999999989 28.625000000000000 25.199999999999989 27.299999999999955 25.199999999999989 C27.299999999999955 16.375000000000000 27.299999999999955 -1.274999999999977 27.299999999999955 -10.100000000000023 C28.625000000000000 -10.100000000000023 31.274999999999977 -10.100000000000023 32.600000000000023 -10.100000000000023 C32.600000000000023 -1.274999999999977 32.600000000000023 16.375000000000000 32.600000000000023 25.199999999999989 z" />
<glyph unicode="" horiz-adv-x="60" d="M31.600000000000001 69.700000000000003 C22.100000000000023 69.699999999999989 13.600000000000023 64.500000000000000 13.600000000000023 55.500000000000000 C13.600000000000023 51.100000000000023 15.799999999999955 47.600000000000023 19.500000000000000 44.800000000000011 C15.100000000000023 42.199999999999989 11.399999999999977 37.699999999999989 11.399999999999977 32.399999999999977 C11.399999999999977 24.699999999999989 15.799999999999955 21.000000000000000 27.000000000000000 17.100000000000023 C36.899999999999977 13.800000000000011 39.500000000000000 11.800000000000011 39.500000000000000 6.899999999999977 C39.500000000000000 2.000000000000000 34.700000000000045 -0.899999999999977 28.799999999999955 -0.899999999999977 C22.899999999999977 -0.899999999999977 19.000000000000000 0.600000000000023 15.100000000000023 3.399999999999977 C13.899999999999977 1.899999999999977 12.399999999999977 0.024999999999977 11.500000000000000 -1.100000000000023 C15.700000000000045 -4.300000000000011 20.899999999999977 -6.500000000000000 28.000000000000000 -6.500000000000000 C38.600000000000023 -6.500000000000000 46.399999999999977 -1.399999999999977 46.399999999999977 7.500000000000000 C46.399999999999977 12.100000000000023 44.000000000000000 15.500000000000000 40.399999999999977 18.199999999999989 C44.799999999999955 20.800000000000011 48.399999999999977 25.300000000000011 48.399999999999977 30.699999999999989 C48.399999999999977 38.199999999999989 44.299999999999955 42.100000000000023 33.100000000000023 45.800000000000011 C23.000000000000000 49.399999999999977 20.500000000000000 51.300000000000011 20.500000000000000 56.300000000000011 C20.500000000000000 61.000000000000000 24.700000000000045 64.000000000000000 30.700000000000045 64.000000000000000 C36.700000000000045 64.000000000000000 40.100000000000023 62.399999999999977 44.000000000000000 59.699999999999989 C45.200000000000045 61.233333333333348 46.700000000000045 63.149999999999977 47.600000000000023 64.300000000000011 C43.399999999999977 67.500000000000000 38.899999999999977 69.699999999999989 31.600000000000023 69.699999999999989 zM23.800000000000001 42.299999999999997 C38.299999999999955 36.799999999999955 41.799999999999955 35.899999999999977 41.799999999999955 29.899999999999977 C41.799999999999955 26.699999999999989 39.700000000000045 23.300000000000011 36.299999999999955 20.600000000000023 C21.799999999999955 26.000000000000000 18.200000000000045 26.800000000000011 18.200000000000045 33.100000000000023 C18.200000000000045 36.199999999999989 20.200000000000045 39.699999999999989 23.799999999999955 42.300000000000011 z" />
<glyph unicode="" horiz-adv-x="60" d="M20.000000000000000 65.099999999999994 C22.500000000000000 65.100000000000023 24.500000000000000 67.100000000000023 24.500000000000000 69.600000000000023 C24.500000000000000 72.399999999999977 22.500000000000000 74.300000000000011 20.000000000000000 74.300000000000011 C17.299999999999955 74.300000000000011 15.299999999999955 72.399999999999977 15.299999999999955 69.600000000000023 C15.299999999999955 67.100000000000023 17.299999999999955 65.100000000000023 20.000000000000000 65.100000000000023 zM39.899999999999999 65.099999999999994 C42.600000000000023 65.100000000000023 44.600000000000023 67.100000000000023 44.600000000000023 69.600000000000023 C44.600000000000023 72.399999999999977 42.600000000000023 74.300000000000011 39.899999999999977 74.300000000000011 C37.200000000000045 74.300000000000011 35.299999999999955 72.399999999999977 35.299999999999955 69.600000000000023 C35.299999999999955 67.100000000000023 37.200000000000045 65.100000000000023 39.899999999999977 65.100000000000023 z" />
<glyph unicode="" horiz-adv-x="60" d="M30.100000000000001 74.299999999999997 C13.200000000000045 74.300000000000011 3.500000000000000 60.699999999999989 3.500000000000000 43.800000000000011 C3.500000000000000 27.100000000000023 13.500000000000000 13.399999999999977 30.100000000000023 13.399999999999977 C46.899999999999977 13.399999999999977 56.500000000000000 27.100000000000023 56.500000000000000 43.800000000000011 C56.500000000000000 60.699999999999989 46.899999999999977 74.300000000000011 30.100000000000023 74.300000000000011 zM30.100000000000001 69.900000000000006 C44.500000000000000 69.899999999999977 51.799999999999955 58.300000000000011 51.799999999999955 43.800000000000011 C51.799999999999955 29.500000000000000 44.500000000000000 18.000000000000000 30.100000000000023 18.000000000000000 C15.600000000000023 18.000000000000000 8.299999999999955 29.500000000000000 8.299999999999955 43.800000000000011 C8.299999999999955 58.300000000000011 15.600000000000023 69.899999999999977 30.100000000000023 69.899999999999977 zM30.300000000000001 62.600000000000001 C22.000000000000000 62.600000000000023 14.200000000000045 56.399999999999977 14.200000000000045 43.899999999999977 C14.200000000000045 31.800000000000011 21.200000000000045 25.300000000000011 30.399999999999977 25.300000000000011 C36.100000000000023 25.300000000000011 39.899999999999977 27.500000000000000 42.500000000000000 29.899999999999977 C41.533333333333303 31.333333333333314 40.325000000000045 33.125000000000000 39.600000000000023 34.199999999999989 C37.000000000000000 31.800000000000011 34.200000000000045 30.399999999999977 30.399999999999977 30.399999999999977 C24.399999999999977 30.399999999999977 20.200000000000045 34.899999999999977 20.200000000000045 43.899999999999977 C20.200000000000045 53.800000000000011 24.700000000000045 57.800000000000011 30.399999999999977 57.800000000000011 C33.100000000000023 57.800000000000011 36.000000000000000 56.899999999999977 38.899999999999977 54.600000000000023 C39.933333333333280 56.066666666666663 41.225000000000023 57.899999999999977 42.000000000000000 59.000000000000000 C38.399999999999977 61.399999999999977 35.500000000000000 62.600000000000023 30.299999999999955 62.600000000000023 z" />
<glyph unicode="" horiz-adv-x="60" d="M29.000000000000000 74.599999999999994 C24.500000000000000 74.600000000000023 19.600000000000023 73.899999999999977 13.799999999999955 71.600000000000023 C14.466666666666697 69.966666666666697 15.299999999999955 67.925000000000011 15.799999999999955 66.699999999999989 C20.700000000000045 68.500000000000000 25.200000000000045 69.199999999999989 28.100000000000023 69.199999999999989 C34.399999999999977 69.199999999999989 38.500000000000000 66.600000000000023 38.500000000000000 60.800000000000011 C38.500000000000000 59.633333333333326 38.500000000000000 58.175000000000011 38.500000000000000 57.300000000000011 C37.000000000000000 57.300000000000011 34.000000000000000 57.300000000000011 32.500000000000000 57.300000000000011 C19.000000000000000 57.300000000000011 10.799999999999955 52.699999999999989 10.799999999999955 43.899999999999977 C10.799999999999955 36.000000000000000 16.899999999999977 30.800000000000011 25.899999999999977 30.800000000000011 C30.899999999999977 30.800000000000011 36.000000000000000 32.899999999999977 39.299999999999955 36.699999999999989 C40.600000000000023 32.899999999999977 43.100000000000023 31.199999999999989 46.799999999999955 30.699999999999989 C47.299999999999955 32.199999999999989 47.924999999999955 34.074999999999989 48.299999999999955 35.199999999999989 C46.000000000000000 35.899999999999977 44.799999999999955 37.199999999999989 44.799999999999955 40.300000000000011 C44.799999999999955 47.199999999999989 44.799999999999955 55.824999999999989 44.799999999999955 61.000000000000000 C44.799999999999955 69.300000000000011 39.399999999999977 74.600000000000023 29.000000000000000 74.600000000000023 zM38.500000000000000 52.399999999999999 C38.500000000000000 49.699999999999989 38.500000000000000 44.300000000000011 38.500000000000000 41.600000000000023 C35.700000000000045 38.000000000000000 31.500000000000000 35.800000000000011 27.200000000000045 35.800000000000011 C21.100000000000023 35.800000000000011 17.500000000000000 38.600000000000023 17.500000000000000 44.199999999999989 C17.500000000000000 49.399999999999977 21.799999999999955 52.399999999999977 31.899999999999977 52.399999999999977 C34.100000000000023 52.399999999999977 36.850000000000023 52.399999999999977 38.500000000000000 52.399999999999977 zM49.399999999999999 6.600000000000000 C39.725000000000023 6.600000000000023 20.375000000000000 6.600000000000023 10.700000000000045 6.600000000000023 C10.700000000000045 4.949999999999989 10.700000000000045 1.649999999999977 10.700000000000045 0.000000000000000 C20.375000000000000 0.000000000000000 39.725000000000023 0.000000000000000 49.399999999999977 0.000000000000000 C49.399999999999977 1.649999999999977 49.399999999999977 4.949999999999989 49.399999999999977 6.600000000000023 z" />
<glyph unicode="" horiz-adv-x="60" d="M30.699999999999999 9.100000000000000 C27.174999999999955 14.225000000000023 20.125000000000000 24.475000000000023 16.600000000000023 29.600000000000023 C20.125000000000000 34.699999999999989 27.174999999999955 44.899999999999977 30.700000000000045 50.000000000000000 C29.750000000000000 50.625000000000000 27.850000000000023 51.875000000000000 26.899999999999977 52.500000000000000 C22.450000000000045 47.375000000000000 13.549999999999955 37.125000000000000 9.100000000000023 32.000000000000000 C9.100000000000023 30.774999999999977 9.100000000000023 28.324999999999989 9.100000000000023 27.100000000000023 C13.549999999999955 21.975000000000023 22.450000000000045 11.725000000000023 26.899999999999977 6.600000000000023 C27.850000000000023 7.225000000000023 29.750000000000000 8.475000000000023 30.700000000000045 9.100000000000023 zM50.700000000000003 9.100000000000000 C47.174999999999955 14.225000000000023 40.125000000000000 24.475000000000023 36.600000000000023 29.600000000000023 C40.125000000000000 34.699999999999989 47.174999999999955 44.899999999999977 50.700000000000045 50.000000000000000 C49.750000000000000 50.625000000000000 47.850000000000023 51.875000000000000 46.899999999999977 52.500000000000000 C42.424999999999955 47.375000000000000 33.475000000000023 37.125000000000000 29.000000000000000 32.000000000000000 C29.000000000000000 30.774999999999977 29.000000000000000 28.324999999999989 29.000000000000000 27.100000000000023 C33.475000000000023 21.975000000000023 42.424999999999955 11.725000000000023 46.899999999999977 6.600000000000023 C47.850000000000023 7.225000000000023 49.750000000000000 8.475000000000023 50.700000000000045 9.100000000000023 z" />
<glyph unicode="" horiz-adv-x="60" d="M47.500000000000000 33.799999999999997 C38.750000000000000 33.800000000000011 21.250000000000000 33.800000000000011 12.500000000000000 33.800000000000011 C12.500000000000000 32.399999999999977 12.500000000000000 29.600000000000023 12.500000000000000 28.199999999999989 C19.700000000000045 28.199999999999989 34.100000000000023 28.199999999999989 41.299999999999955 28.199999999999989 C41.299999999999955 24.725000000000023 41.299999999999955 17.774999999999977 41.299999999999955 14.300000000000011 C42.850000000000023 14.300000000000011 45.950000000000045 14.300000000000011 47.500000000000000 14.300000000000011 C47.500000000000000 19.175000000000011 47.500000000000000 28.925000000000011 47.500000000000000 33.800000000000011 z" />
<glyph unicode="" horiz-adv-x="60" d="M14.699999999999999 28.399999999999999 C22.350000000000023 28.399999999999977 37.649999999999977 28.399999999999977 45.299999999999955 28.399999999999977 C45.299999999999955 29.850000000000023 45.299999999999955 32.750000000000000 45.299999999999955 34.199999999999989 C37.649999999999977 34.199999999999989 22.350000000000023 34.199999999999989 14.700000000000045 34.199999999999989 C14.700000000000045 32.750000000000000 14.700000000000045 29.850000000000023 14.700000000000045 28.399999999999977 z" />
<glyph unicode="" horiz-adv-x="60" d="M30.000000000000000 74.299999999999997 C16.500000000000000 74.300000000000011 5.299999999999955 63.000000000000000 5.299999999999955 49.399999999999977 C5.299999999999955 35.800000000000011 16.500000000000000 24.699999999999989 30.000000000000000 24.699999999999989 C43.500000000000000 24.699999999999989 54.600000000000023 35.800000000000011 54.600000000000023 49.399999999999977 C54.600000000000023 63.000000000000000 43.500000000000000 74.300000000000011 30.000000000000000 74.300000000000011 zM30.000000000000000 70.200000000000003 C41.500000000000000 70.199999999999989 50.100000000000023 60.800000000000011 50.100000000000023 49.399999999999977 C50.100000000000023 38.000000000000000 41.500000000000000 28.800000000000011 30.000000000000000 28.800000000000011 C18.500000000000000 28.800000000000011 9.799999999999955 38.000000000000000 9.799999999999955 49.399999999999977 C9.799999999999955 60.800000000000011 18.500000000000000 70.199999999999989 30.000000000000000 70.199999999999989 zM28.699999999999999 63.600000000000001 C26.600000000000023 63.600000000000023 22.399999999999977 63.600000000000023 20.299999999999955 63.600000000000023 C20.299999999999955 56.574999999999989 20.299999999999955 42.524999999999977 20.299999999999955 35.500000000000000 C21.600000000000023 35.500000000000000 24.200000000000045 35.500000000000000 25.500000000000000 35.500000000000000 C25.500000000000000 38.274999999999977 25.500000000000000 43.824999999999989 25.500000000000000 46.600000000000023 C26.250000000000000 46.600000000000023 27.750000000000000 46.600000000000023 28.500000000000000 46.600000000000023 C30.475000000000023 43.824999999999989 34.424999999999955 38.274999999999977 36.399999999999977 35.500000000000000 C37.950000000000045 35.500000000000000 41.049999999999955 35.500000000000000 42.600000000000023 35.500000000000000 C40.375000000000000 38.449999999999989 35.924999999999955 44.350000000000023 33.700000000000045 47.300000000000011 C37.700000000000045 48.300000000000011 40.700000000000045 50.899999999999977 40.700000000000045 55.300000000000011 C40.700000000000045 60.699999999999989 36.799999999999955 63.600000000000023 28.700000000000045 63.600000000000023 zM28.699999999999999 59.500000000000000 C33.299999999999955 59.500000000000000 35.299999999999955 58.000000000000000 35.299999999999955 55.199999999999989 C35.299999999999955 51.699999999999989 33.000000000000000 50.500000000000000 28.899999999999977 50.500000000000000 C27.766666666666652 50.500000000000000 26.350000000000023 50.500000000000000 25.500000000000000 50.500000000000000 C25.500000000000000 52.750000000000000 25.500000000000000 57.250000000000000 25.500000000000000 59.500000000000000 C26.299999999999955 59.500000000000000 27.899999999999977 59.500000000000000 28.700000000000045 59.500000000000000 z" />
<glyph unicode="" horiz-adv-x="60" d="M42.899999999999999 68.200000000000003 C42.899999999999977 69.449999999999989 42.899999999999977 71.949999999999989 42.899999999999977 73.199999999999989 C36.424999999999955 73.199999999999989 23.475000000000023 73.199999999999989 17.000000000000000 73.199999999999989 C17.000000000000000 71.949999999999989 17.000000000000000 69.449999999999989 17.000000000000000 68.199999999999989 C23.475000000000023 68.199999999999989 36.424999999999955 68.199999999999989 42.899999999999977 68.199999999999989 z" />
<glyph unicode="" horiz-adv-x="60" d="M22.100000000000001 74.599999999999994 C14.000000000000000 74.600000000000023 6.399999999999977 69.100000000000023 6.399999999999977 59.399999999999977 C6.399999999999977 49.500000000000000 14.000000000000000 44.100000000000023 22.100000000000023 44.100000000000023 C30.299999999999955 44.100000000000023 37.899999999999977 49.500000000000000 37.899999999999977 59.300000000000011 C37.899999999999977 69.100000000000023 30.299999999999955 74.600000000000023 22.100000000000023 74.600000000000023 zM22.100000000000001 69.599999999999994 C26.899999999999977 69.600000000000023 31.600000000000023 66.399999999999977 31.600000000000023 59.300000000000011 C31.600000000000023 52.100000000000023 26.899999999999977 49.000000000000000 22.100000000000023 49.000000000000000 C17.500000000000000 49.000000000000000 12.600000000000023 52.100000000000023 12.600000000000023 59.399999999999977 C12.600000000000023 66.600000000000023 17.500000000000000 69.600000000000023 22.100000000000023 69.600000000000023 z" />
<glyph unicode="" horiz-adv-x="60" d="M33.200000000000003 53.200000000000003 C31.600000000000023 53.199999999999989 28.399999999999977 53.199999999999989 26.799999999999955 53.199999999999989 C26.799999999999955 49.524999999999977 26.799999999999955 42.175000000000011 26.799999999999955 38.500000000000000 C23.225000000000023 38.500000000000000 16.075000000000045 38.500000000000000 12.500000000000000 38.500000000000000 C12.500000000000000 37.100000000000023 12.500000000000000 34.300000000000011 12.500000000000000 32.899999999999977 C16.075000000000045 32.899999999999977 23.225000000000023 32.899999999999977 26.799999999999955 32.899999999999977 C26.799999999999955 28.649999999999977 26.799999999999955 20.149999999999977 26.799999999999955 15.899999999999977 C28.399999999999977 15.899999999999977 31.600000000000023 15.899999999999977 33.200000000000045 15.899999999999977 C33.200000000000045 20.149999999999977 33.200000000000045 28.649999999999977 33.200000000000045 32.899999999999977 C36.774999999999977 32.899999999999977 43.924999999999955 32.899999999999977 47.500000000000000 32.899999999999977 C47.500000000000000 34.300000000000011 47.500000000000000 37.100000000000023 47.500000000000000 38.500000000000000 C43.924999999999955 38.500000000000000 36.774999999999977 38.500000000000000 33.200000000000045 38.500000000000000 C33.200000000000045 42.175000000000011 33.200000000000045 49.524999999999977 33.200000000000045 53.199999999999989 zM47.500000000000000 5.900000000000000 C38.750000000000000 5.899999999999977 21.250000000000000 5.899999999999977 12.500000000000000 5.899999999999977 C12.500000000000000 4.425000000000011 12.500000000000000 1.475000000000023 12.500000000000000 0.000000000000000 C21.250000000000000 0.000000000000000 38.750000000000000 0.000000000000000 47.500000000000000 0.000000000000000 C47.500000000000000 1.475000000000023 47.500000000000000 4.425000000000011 47.500000000000000 5.899999999999977 z" />
<glyph unicode="" horiz-adv-x="60" d="M43.299999999999997 53.500000000000000 C43.299999999999955 60.000000000000000 38.500000000000000 64.199999999999989 30.200000000000045 64.199999999999989 C24.899999999999977 64.199999999999989 19.700000000000045 61.699999999999989 15.700000000000045 57.000000000000000 C17.200000000000045 55.866666666666674 19.075000000000045 54.449999999999989 20.200000000000045 53.600000000000023 C23.299999999999955 57.399999999999977 27.000000000000000 58.800000000000011 30.500000000000000 58.800000000000011 C34.500000000000000 58.800000000000011 36.899999999999977 56.800000000000011 36.899999999999977 53.600000000000023 C36.899999999999977 48.800000000000011 32.399999999999977 46.399999999999977 16.000000000000000 36.199999999999989 C16.000000000000000 34.633333333333326 16.000000000000000 32.675000000000011 16.000000000000000 31.500000000000000 C22.875000000000000 31.500000000000000 36.625000000000000 31.500000000000000 43.500000000000000 31.500000000000000 C43.674999999999955 32.850000000000023 44.024999999999977 35.550000000000011 44.200000000000045 36.899999999999977 C39.549999999999955 36.899999999999977 30.250000000000000 36.899999999999977 25.600000000000023 36.899999999999977 C38.600000000000023 43.600000000000023 43.299999999999955 46.899999999999977 43.299999999999955 53.500000000000000 z" />
<glyph unicode="" horiz-adv-x="60" d="M30.899999999999999 64.200000000000003 C25.899999999999977 64.199999999999989 21.000000000000000 62.899999999999977 16.299999999999955 59.000000000000000 C17.433333333333280 57.766666666666652 18.850000000000023 56.225000000000023 19.700000000000045 55.300000000000011 C23.200000000000045 58.100000000000023 26.899999999999977 59.399999999999977 30.600000000000023 59.399999999999977 C35.100000000000023 59.399999999999977 37.500000000000000 57.699999999999989 37.500000000000000 54.500000000000000 C37.500000000000000 51.000000000000000 34.700000000000045 49.899999999999977 30.299999999999955 49.899999999999977 C29.200000000000045 49.899999999999977 27.825000000000045 49.899999999999977 27.000000000000000 49.899999999999977 C26.850000000000023 48.975000000000023 26.549999999999955 47.125000000000000 26.399999999999977 46.199999999999989 C27.524999999999977 46.199999999999989 29.774999999999977 46.199999999999989 30.899999999999977 46.199999999999989 C35.899999999999977 46.199999999999989 38.700000000000045 44.899999999999977 38.700000000000045 41.000000000000000 C38.700000000000045 38.000000000000000 36.100000000000023 35.899999999999977 30.399999999999977 35.899999999999977 C26.500000000000000 35.899999999999977 22.299999999999955 37.199999999999989 19.100000000000023 40.199999999999989 C17.766666666666652 39.066666666666663 16.100000000000023 37.649999999999977 15.100000000000023 36.800000000000011 C19.200000000000045 32.500000000000000 24.799999999999955 30.899999999999977 29.899999999999977 30.899999999999977 C39.600000000000023 30.899999999999977 44.899999999999977 35.100000000000023 44.899999999999977 41.100000000000023 C44.899999999999977 46.000000000000000 42.100000000000023 47.800000000000011 36.399999999999977 48.699999999999989 C41.899999999999977 49.600000000000023 43.600000000000023 51.800000000000011 43.600000000000023 55.300000000000011 C43.600000000000023 60.800000000000011 38.700000000000045 64.199999999999989 30.899999999999977 64.199999999999989 z" />
<glyph unicode="" horiz-adv-x="60" d="M38.600000000000001 78.599999999999994 C33.850000000000023 75.949999999999989 24.350000000000023 70.649999999999977 19.600000000000023 68.000000000000000 C20.125000000000000 67.125000000000000 21.174999999999955 65.375000000000000 21.700000000000045 64.500000000000000 C26.725000000000023 66.574999999999989 36.774999999999977 70.725000000000023 41.799999999999955 72.800000000000011 C41.000000000000000 74.250000000000000 39.399999999999977 77.149999999999977 38.600000000000023 78.600000000000023 z" />
<glyph unicode="" horiz-adv-x="60" d="M47.200000000000003 52.500000000000000 C45.649999999999977 52.500000000000000 42.549999999999955 52.500000000000000 41.000000000000000 52.500000000000000 C41.000000000000000 42.800000000000011 41.000000000000000 23.399999999999977 41.000000000000000 13.699999999999989 C37.799999999999955 9.300000000000011 32.700000000000045 5.100000000000023 25.600000000000023 5.100000000000023 C16.700000000000045 5.100000000000023 15.700000000000045 12.100000000000023 15.700000000000045 23.199999999999989 C15.700000000000045 32.966666666666697 15.700000000000045 45.175000000000011 15.700000000000045 52.500000000000000 C14.149999999999977 52.500000000000000 11.049999999999955 52.500000000000000 9.500000000000000 52.500000000000000 C9.500000000000000 34.149999999999977 9.500000000000000 -2.550000000000011 9.500000000000000 -20.899999999999977 C11.100000000000023 -20.699999999999989 14.299999999999955 -20.300000000000011 15.899999999999977 -20.100000000000023 C15.899999999999977 -15.800000000000011 15.899999999999977 -7.199999999999989 15.899999999999977 -2.899999999999977 C15.899999999999977 -2.100000000000023 15.799999999999955 0.800000000000011 15.799999999999955 4.000000000000000 C18.299999999999955 0.300000000000011 20.899999999999977 -1.100000000000023 26.700000000000045 -1.100000000000023 C32.200000000000045 -1.100000000000023 38.399999999999977 2.300000000000011 41.600000000000023 7.600000000000023 C41.899999999999977 5.199999999999989 43.100000000000023 0.600000000000023 44.299999999999955 -1.100000000000023 C46.333333333333371 -0.733333333333348 48.875000000000000 -0.274999999999977 50.399999999999977 0.000000000000000 C49.000000000000000 3.500000000000000 47.200000000000045 9.199999999999989 47.200000000000045 16.199999999999989 C47.200000000000045 28.300000000000011 47.200000000000045 43.425000000000011 47.200000000000045 52.500000000000000 z" />
<glyph unicode="" horiz-adv-x="60" d="M54.899999999999999 68.700000000000003 C48.799999999999955 68.699999999999989 36.600000000000023 68.699999999999989 30.500000000000000 68.699999999999989 C13.799999999999955 68.699999999999989 5.000000000000000 59.899999999999977 5.000000000000000 49.000000000000000 C5.000000000000000 38.399999999999977 13.600000000000023 29.300000000000011 30.700000000000045 29.600000000000023 C30.700000000000045 12.766666666666652 30.700000000000045 -8.274999999999977 30.700000000000045 -20.899999999999977 C32.200000000000045 -20.625000000000000 35.200000000000045 -20.074999999999989 36.700000000000045 -19.800000000000011 C36.700000000000045 0.850000000000023 36.700000000000045 42.149999999999977 36.700000000000045 62.800000000000011 C39.725000000000023 62.800000000000011 45.774999999999977 62.800000000000011 48.799999999999955 62.800000000000011 C48.799999999999955 41.875000000000000 48.799999999999955 0.024999999999977 48.799999999999955 -20.899999999999977 C50.325000000000045 -20.625000000000000 53.375000000000000 -20.074999999999989 54.899999999999977 -19.800000000000011 C54.899999999999977 2.324999999999989 54.899999999999977 46.574999999999989 54.899999999999977 68.699999999999989 z" />
<glyph unicode="" horiz-adv-x="60" d="M21.800000000000001 34.200000000000003 C21.799999999999955 29.500000000000000 25.200000000000045 26.000000000000000 29.899999999999977 26.000000000000000 C34.600000000000023 26.000000000000000 38.000000000000000 29.500000000000000 38.000000000000000 34.199999999999989 C38.000000000000000 38.699999999999989 34.600000000000023 42.199999999999989 29.899999999999977 42.199999999999989 C25.200000000000045 42.199999999999989 21.799999999999955 38.699999999999989 21.799999999999955 34.199999999999989 z" />
<glyph unicode="" horiz-adv-x="60" d="M34.600000000000001 -13.900000000000000 C34.600000000000023 -17.100000000000023 32.100000000000023 -18.300000000000011 28.399999999999977 -18.300000000000011 C26.200000000000045 -18.300000000000011 23.500000000000000 -17.800000000000011 21.600000000000023 -16.800000000000011 C20.799999999999955 -18.166666666666686 19.799999999999955 -19.875000000000000 19.200000000000045 -20.899999999999977 C21.799999999999955 -22.399999999999977 25.500000000000000 -23.100000000000023 29.299999999999955 -23.100000000000023 C34.899999999999977 -23.100000000000023 40.700000000000045 -20.300000000000011 40.700000000000045 -13.800000000000011 C40.700000000000045 -10.300000000000011 38.100000000000023 -6.500000000000000 31.700000000000045 -6.000000000000000 C31.700000000000045 -3.466666666666640 31.700000000000045 -0.300000000000011 31.700000000000045 1.600000000000023 C30.475000000000023 1.600000000000023 28.024999999999977 1.600000000000023 26.799999999999955 1.600000000000023 C26.649999999999977 -1.125000000000000 26.350000000000023 -6.574999999999989 26.200000000000045 -9.300000000000011 C31.299999999999955 -9.300000000000011 34.600000000000023 -10.000000000000000 34.600000000000023 -13.899999999999977 z" />
<glyph unicode="" horiz-adv-x="60" d="M38.000000000000000 31.500000000000000 C39.450000000000045 31.500000000000000 42.350000000000023 31.500000000000000 43.799999999999955 31.500000000000000 C43.799999999999955 39.524999999999977 43.799999999999955 55.574999999999989 43.799999999999955 63.600000000000023 C42.649999999999977 63.600000000000023 40.350000000000023 63.600000000000023 39.200000000000045 63.600000000000023 C35.625000000000000 61.449999999999989 28.475000000000023 57.149999999999977 24.899999999999977 55.000000000000000 C25.649999999999977 53.925000000000011 27.149999999999977 51.774999999999977 27.899999999999977 50.699999999999989 C30.424999999999955 52.074999999999989 35.475000000000023 54.824999999999989 38.000000000000000 56.199999999999989 C38.000000000000000 50.024999999999977 38.000000000000000 37.675000000000011 38.000000000000000 31.500000000000000 z" />
<glyph unicode="" horiz-adv-x="60" d="M30.000000000000000 74.599999999999994 C18.100000000000023 74.600000000000023 10.100000000000023 65.800000000000011 10.100000000000023 52.800000000000011 C10.100000000000023 39.500000000000000 18.000000000000000 30.800000000000011 30.000000000000000 30.800000000000011 C41.899999999999977 30.800000000000011 49.799999999999955 39.800000000000011 49.799999999999955 52.800000000000011 C49.799999999999955 66.300000000000011 42.100000000000023 74.600000000000023 30.000000000000000 74.600000000000023 zM30.000000000000000 69.200000000000003 C38.000000000000000 69.199999999999989 43.000000000000000 63.800000000000011 43.000000000000000 52.800000000000011 C43.000000000000000 41.600000000000023 38.000000000000000 36.199999999999989 30.000000000000000 36.199999999999989 C22.000000000000000 36.199999999999989 16.899999999999977 41.600000000000023 16.899999999999977 52.800000000000011 C16.899999999999977 63.800000000000011 22.000000000000000 69.199999999999989 30.000000000000000 69.199999999999989 zM49.399999999999999 6.600000000000000 C39.725000000000023 6.600000000000023 20.375000000000000 6.600000000000023 10.700000000000045 6.600000000000023 C10.700000000000045 4.949999999999989 10.700000000000045 1.649999999999977 10.700000000000045 0.000000000000000 C20.375000000000000 0.000000000000000 39.725000000000023 0.000000000000000 49.399999999999977 0.000000000000000 C49.399999999999977 1.649999999999977 49.399999999999977 4.949999999999989 49.399999999999977 6.600000000000023 z" />
<glyph unicode="" horiz-adv-x="60" d="M23.199999999999999 29.600000000000001 C19.674999999999955 24.475000000000023 12.625000000000000 14.225000000000023 9.100000000000023 9.100000000000023 C10.075000000000045 8.475000000000023 12.024999999999977 7.225000000000023 13.000000000000000 6.600000000000023 C17.424999999999955 11.725000000000023 26.274999999999977 21.975000000000023 30.700000000000045 27.100000000000023 C30.700000000000045 28.324999999999989 30.700000000000045 30.774999999999977 30.700000000000045 32.000000000000000 C26.274999999999977 37.125000000000000 17.424999999999955 47.375000000000000 13.000000000000000 52.500000000000000 C12.024999999999977 51.875000000000000 10.075000000000045 50.625000000000000 9.100000000000023 50.000000000000000 C12.625000000000000 44.899999999999977 19.674999999999955 34.699999999999989 23.200000000000045 29.600000000000023 zM43.100000000000001 29.600000000000001 C39.575000000000045 24.475000000000023 32.524999999999977 14.225000000000023 29.000000000000000 9.100000000000023 C29.975000000000023 8.475000000000023 31.924999999999955 7.225000000000023 32.899999999999977 6.600000000000023 C37.350000000000023 11.725000000000023 46.250000000000000 21.975000000000023 50.700000000000045 27.100000000000023 C50.700000000000045 28.324999999999989 50.700000000000045 30.774999999999977 50.700000000000045 32.000000000000000 C46.250000000000000 37.125000000000000 37.350000000000023 47.375000000000000 32.899999999999977 52.500000000000000 C31.924999999999955 51.875000000000000 29.975000000000023 50.625000000000000 29.000000000000000 50.000000000000000 C32.524999999999977 44.899999999999977 39.575000000000045 34.699999999999989 43.100000000000023 29.600000000000023 z" />
<glyph unicode="" horiz-adv-x="60" d="M13.500000000000000 36.700000000000003 C14.950000000000045 36.699999999999989 17.850000000000023 36.699999999999989 19.299999999999955 36.699999999999989 C19.299999999999955 44.725000000000023 19.299999999999955 60.774999999999977 19.299999999999955 68.800000000000011 C18.149999999999977 68.800000000000011 15.850000000000023 68.800000000000011 14.700000000000045 68.800000000000011 C11.125000000000000 66.649999999999977 3.975000000000023 62.350000000000023 0.399999999999977 60.199999999999989 C1.149999999999977 59.125000000000000 2.649999999999977 56.975000000000023 3.399999999999977 55.899999999999977 C5.924999999999955 57.274999999999977 10.975000000000023 60.024999999999977 13.500000000000000 61.399999999999977 C13.500000000000000 55.225000000000023 13.500000000000000 42.875000000000000 13.500000000000000 36.699999999999989 zM4.200000000000000 18.699999999999999 C17.549999999999955 25.099999999999966 44.250000000000000 37.899999999999977 57.600000000000023 44.300000000000011 C56.924999999999955 45.475000000000023 55.575000000000045 47.824999999999989 54.899999999999977 49.000000000000000 C41.524999999999977 42.600000000000023 14.774999999999977 29.800000000000011 1.399999999999977 23.399999999999977 C2.100000000000023 22.225000000000023 3.500000000000000 19.875000000000000 4.200000000000045 18.699999999999989 zM53.799999999999997 5.600000000000000 C55.250000000000000 5.600000000000023 58.149999999999977 5.600000000000023 59.600000000000023 5.600000000000023 C59.600000000000023 6.975000000000023 59.600000000000023 9.725000000000023 59.600000000000023 11.100000000000023 C58.149999999999977 11.100000000000023 55.250000000000000 11.100000000000023 53.799999999999955 11.100000000000023 C53.799999999999955 13.274999999999977 53.799999999999955 17.625000000000000 53.799999999999955 19.800000000000011 C52.274999999999977 19.800000000000011 49.225000000000023 19.800000000000011 47.700000000000045 19.800000000000011 C47.600000000000023 17.625000000000000 47.399999999999977 13.274999999999977 47.299999999999955 11.100000000000023 C44.674999999999955 11.100000000000023 39.424999999999955 11.100000000000023 36.799999999999955 11.100000000000023 C39.799999999999955 16.024999999999977 45.799999999999955 25.875000000000000 48.799999999999955 30.800000000000011 C47.500000000000000 31.375000000000000 44.899999999999977 32.524999999999977 43.600000000000023 33.100000000000023 C40.100000000000023 27.300000000000011 33.100000000000023 15.699999999999989 29.600000000000023 9.899999999999977 C29.600000000000023 8.824999999999989 29.600000000000023 6.675000000000011 29.600000000000023 5.600000000000023 C34.049999999999955 5.600000000000023 42.950000000000045 5.600000000000023 47.399999999999977 5.600000000000023 C47.399999999999977 4.199999999999989 47.399999999999977 1.399999999999977 47.399999999999977 0.000000000000000 C49.000000000000000 0.000000000000000 52.200000000000045 0.000000000000000 53.799999999999955 0.000000000000000 C53.799999999999955 1.399999999999977 53.799999999999955 4.199999999999989 53.799999999999955 5.600000000000023 z" />
<glyph unicode="" horiz-adv-x="60" d="M13.199999999999999 36.700000000000003 C14.649999999999977 36.699999999999989 17.549999999999955 36.699999999999989 19.000000000000000 36.699999999999989 C19.000000000000000 44.725000000000023 19.000000000000000 60.774999999999977 19.000000000000000 68.800000000000011 C17.850000000000023 68.800000000000011 15.549999999999955 68.800000000000011 14.399999999999977 68.800000000000011 C10.825000000000045 66.649999999999977 3.674999999999955 62.350000000000023 0.100000000000023 60.199999999999989 C0.850000000000023 59.125000000000000 2.350000000000023 56.975000000000023 3.100000000000023 55.899999999999977 C5.625000000000000 57.274999999999977 10.674999999999955 60.024999999999977 13.200000000000045 61.399999999999977 C13.200000000000045 55.225000000000023 13.200000000000045 42.875000000000000 13.200000000000045 36.699999999999989 zM3.800000000000000 18.699999999999999 C17.149999999999977 25.099999999999966 43.850000000000023 37.899999999999977 57.200000000000045 44.300000000000011 C56.524999999999977 45.475000000000023 55.174999999999955 47.824999999999989 54.500000000000000 49.000000000000000 C41.125000000000000 42.600000000000023 14.375000000000000 29.800000000000011 1.000000000000000 23.399999999999977 C1.700000000000045 22.225000000000023 3.100000000000023 19.875000000000000 3.799999999999955 18.699999999999989 zM59.100000000000001 22.000000000000000 C59.100000000000023 28.500000000000000 54.299999999999955 32.699999999999989 46.000000000000000 32.699999999999989 C40.600000000000023 32.699999999999989 35.399999999999977 30.199999999999989 31.399999999999977 25.500000000000000 C32.899999999999977 24.366666666666674 34.774999999999977 22.949999999999989 35.899999999999977 22.100000000000023 C39.100000000000023 25.899999999999977 42.700000000000045 27.300000000000011 46.200000000000045 27.300000000000011 C50.299999999999955 27.300000000000011 52.700000000000045 25.300000000000011 52.700000000000045 22.100000000000023 C52.700000000000045 17.300000000000011 48.100000000000023 14.899999999999977 31.799999999999955 4.699999999999989 C31.799999999999955 3.133333333333326 31.799999999999955 1.175000000000011 31.799999999999955 0.000000000000000 C38.674999999999955 0.000000000000000 52.424999999999955 0.000000000000000 59.299999999999955 0.000000000000000 C59.475000000000023 1.350000000000023 59.825000000000045 4.050000000000011 60.000000000000000 5.399999999999977 C55.350000000000023 5.399999999999977 46.049999999999955 5.399999999999977 41.399999999999977 5.399999999999977 C54.399999999999977 12.100000000000023 59.100000000000023 15.399999999999977 59.100000000000023 22.000000000000000 z" />
<glyph unicode="" horiz-adv-x="60" d="M15.900000000000000 69.400000000000006 C10.899999999999977 69.399999999999977 6.000000000000000 68.100000000000023 1.299999999999955 64.199999999999989 C2.433333333333280 62.966666666666697 3.850000000000023 61.425000000000011 4.700000000000045 60.500000000000000 C8.200000000000045 63.300000000000011 11.899999999999977 64.600000000000023 15.600000000000023 64.600000000000023 C20.100000000000023 64.600000000000023 22.500000000000000 62.899999999999977 22.500000000000000 59.699999999999989 C22.500000000000000 56.199999999999989 19.700000000000045 55.100000000000023 15.299999999999955 55.100000000000023 C14.200000000000045 55.100000000000023 12.825000000000045 55.100000000000023 12.000000000000000 55.100000000000023 C11.850000000000023 54.175000000000011 11.549999999999955 52.324999999999989 11.399999999999977 51.399999999999977 C12.524999999999977 51.399999999999977 14.774999999999977 51.399999999999977 15.899999999999977 51.399999999999977 C20.899999999999977 51.399999999999977 23.700000000000045 50.100000000000023 23.700000000000045 46.199999999999989 C23.700000000000045 43.199999999999989 21.100000000000023 41.100000000000023 15.399999999999977 41.100000000000023 C11.500000000000000 41.100000000000023 7.299999999999955 42.399999999999977 4.100000000000023 45.399999999999977 C2.766666666666652 44.266666666666652 1.100000000000023 42.850000000000023 0.100000000000023 42.000000000000000 C4.200000000000045 37.699999999999989 9.799999999999955 36.100000000000023 14.899999999999977 36.100000000000023 C24.600000000000023 36.100000000000023 29.899999999999977 40.300000000000011 29.899999999999977 46.300000000000011 C29.899999999999977 51.199999999999989 27.100000000000023 53.000000000000000 21.399999999999977 53.899999999999977 C26.899999999999977 54.800000000000011 28.600000000000023 57.000000000000000 28.600000000000023 60.500000000000000 C28.600000000000023 66.000000000000000 23.700000000000045 69.399999999999977 15.899999999999977 69.399999999999977 zM5.200000000000000 18.699999999999999 C18.549999999999955 25.099999999999966 45.250000000000000 37.899999999999977 58.600000000000023 44.300000000000011 C57.950000000000045 45.475000000000023 56.649999999999977 47.824999999999989 56.000000000000000 49.000000000000000 C42.625000000000000 42.600000000000023 15.875000000000000 29.800000000000011 2.500000000000000 23.399999999999977 C3.174999999999955 22.225000000000023 4.524999999999977 19.875000000000000 5.200000000000045 18.699999999999989 zM54.000000000000000 5.600000000000000 C55.475000000000023 5.600000000000023 58.424999999999955 5.600000000000023 59.899999999999977 5.600000000000023 C59.899999999999977 6.975000000000023 59.899999999999977 9.725000000000023 59.899999999999977 11.100000000000023 C58.424999999999955 11.100000000000023 55.475000000000023 11.100000000000023 54.000000000000000 11.100000000000023 C54.000000000000000 13.274999999999977 54.000000000000000 17.625000000000000 54.000000000000000 19.800000000000011 C52.500000000000000 19.800000000000011 49.500000000000000 19.800000000000011 48.000000000000000 19.800000000000011 C47.899999999999977 17.625000000000000 47.700000000000045 13.274999999999977 47.600000000000023 11.100000000000023 C44.975000000000023 11.100000000000023 39.725000000000023 11.100000000000023 37.100000000000023 11.100000000000023 C40.075000000000045 16.024999999999977 46.024999999999977 25.875000000000000 49.000000000000000 30.800000000000011 C47.725000000000023 31.375000000000000 45.174999999999955 32.524999999999977 43.899999999999977 33.100000000000023 C40.399999999999977 27.300000000000011 33.399999999999977 15.699999999999989 29.899999999999977 9.899999999999977 C29.899999999999977 8.824999999999989 29.899999999999977 6.675000000000011 29.899999999999977 5.600000000000023 C34.350000000000023 5.600000000000023 43.250000000000000 5.600000000000023 47.700000000000045 5.600000000000023 C47.700000000000045 4.199999999999989 47.700000000000045 1.399999999999977 47.700000000000045 0.000000000000000 C49.274999999999977 0.000000000000000 52.424999999999955 0.000000000000000 54.000000000000000 0.000000000000000 C54.000000000000000 1.399999999999977 54.000000000000000 4.199999999999989 54.000000000000000 5.600000000000023 z" />
<glyph unicode="" horiz-adv-x="60" d="M32.600000000000001 49.500000000000000 C29.200000000000045 49.500000000000000 26.600000000000023 46.899999999999977 26.600000000000023 43.399999999999977 C26.600000000000023 40.100000000000023 29.200000000000045 37.500000000000000 32.600000000000023 37.500000000000000 C36.000000000000000 37.500000000000000 38.600000000000023 40.100000000000023 38.600000000000023 43.399999999999977 C38.600000000000023 46.899999999999977 36.000000000000000 49.500000000000000 32.600000000000023 49.500000000000000 zM36.399999999999999 26.600000000000001 C34.700000000000045 26.600000000000023 31.299999999999955 26.600000000000023 29.600000000000023 26.600000000000023 C29.600000000000023 25.649999999999977 29.600000000000023 23.750000000000000 29.600000000000023 22.800000000000011 C29.600000000000023 7.600000000000023 11.799999999999955 10.100000000000023 11.799999999999955 -5.800000000000011 C11.799999999999955 -13.399999999999977 19.100000000000023 -20.899999999999977 30.600000000000023 -20.899999999999977 C37.899999999999977 -20.899999999999977 44.799999999999955 -18.100000000000023 50.600000000000023 -11.300000000000011 C49.033333333333303 -10.133333333333326 47.075000000000045 -8.675000000000011 45.899999999999977 -7.800000000000011 C41.600000000000023 -13.199999999999989 36.000000000000000 -15.500000000000000 31.200000000000045 -15.500000000000000 C23.899999999999977 -15.500000000000000 18.200000000000045 -11.899999999999977 18.200000000000045 -5.600000000000023 C18.200000000000045 6.699999999999989 36.399999999999977 6.600000000000023 36.399999999999977 22.600000000000023 C36.399999999999977 23.933333333333337 36.399999999999977 25.600000000000023 36.399999999999977 26.600000000000023 z" />
<glyph unicode="" horiz-adv-x="60" d="M23.300000000000001 89.599999999999994 C22.250000000000000 88.149999999999977 20.149999999999977 85.250000000000000 19.100000000000023 83.800000000000011 C24.000000000000000 81.774999999999977 33.799999999999955 77.725000000000023 38.700000000000045 75.699999999999989 C39.250000000000000 76.574999999999989 40.350000000000023 78.324999999999989 40.899999999999977 79.199999999999989 C36.500000000000000 81.800000000000011 27.700000000000045 87.000000000000000 23.299999999999955 89.600000000000023 zM44.399999999999999 18.399999999999999 C45.899999999999977 13.800000000000011 48.899999999999977 4.600000000000023 50.399999999999977 0.000000000000000 C52.049999999999955 0.000000000000000 55.350000000000023 0.000000000000000 57.000000000000000 0.000000000000000 C51.299999999999955 17.175000000000011 39.899999999999977 51.524999999999977 34.200000000000045 68.699999999999989 C32.100000000000023 68.699999999999989 27.899999999999977 68.699999999999989 25.799999999999955 68.699999999999989 C20.100000000000023 51.524999999999977 8.700000000000045 17.175000000000011 3.000000000000000 0.000000000000000 C4.500000000000000 0.000000000000000 7.500000000000000 0.000000000000000 9.000000000000000 0.000000000000000 C10.500000000000000 4.600000000000023 13.500000000000000 13.800000000000011 15.000000000000000 18.399999999999977 C22.350000000000023 18.399999999999977 37.049999999999955 18.399999999999977 44.399999999999977 18.399999999999977 zM17.199999999999999 24.199999999999999 C20.350000000000023 33.824999999999989 26.649999999999977 53.074999999999989 29.799999999999955 62.699999999999989 C32.899999999999977 53.074999999999989 39.100000000000023 33.824999999999989 42.200000000000045 24.199999999999989 C35.950000000000045 24.199999999999989 23.450000000000045 24.199999999999989 17.200000000000045 24.199999999999989 z" />
<glyph unicode="" horiz-adv-x="60" d="M38.399999999999999 89.200000000000003 C33.575000000000045 86.699999999999989 23.924999999999955 81.699999999999989 19.100000000000023 79.199999999999989 C19.549999999999955 78.324999999999989 20.450000000000045 76.574999999999989 20.899999999999977 75.699999999999989 C26.049999999999955 77.625000000000000 36.350000000000023 81.475000000000023 41.500000000000000 83.399999999999977 C40.725000000000023 84.850000000000023 39.174999999999955 87.750000000000000 38.399999999999977 89.199999999999989 zM44.399999999999999 18.399999999999999 C45.899999999999977 13.800000000000011 48.899999999999977 4.600000000000023 50.399999999999977 0.000000000000000 C52.049999999999955 0.000000000000000 55.350000000000023 0.000000000000000 57.000000000000000 0.000000000000000 C51.299999999999955 17.175000000000011 39.899999999999977 51.524999999999977 34.200000000000045 68.699999999999989 C32.100000000000023 68.699999999999989 27.899999999999977 68.699999999999989 25.799999999999955 68.699999999999989 C20.100000000000023 51.524999999999977 8.700000000000045 17.175000000000011 3.000000000000000 0.000000000000000 C4.500000000000000 0.000000000000000 7.500000000000000 0.000000000000000 9.000000000000000 0.000000000000000 C10.500000000000000 4.600000000000023 13.500000000000000 13.800000000000011 15.000000000000000 18.399999999999977 C22.350000000000023 18.399999999999977 37.049999999999955 18.399999999999977 44.399999999999977 18.399999999999977 zM17.199999999999999 24.199999999999999 C20.350000000000023 33.824999999999989 26.649999999999977 53.074999999999989 29.799999999999955 62.699999999999989 C32.899999999999977 53.074999999999989 39.100000000000023 33.824999999999989 42.200000000000045 24.199999999999989 C35.950000000000045 24.199999999999989 23.450000000000045 24.199999999999989 17.200000000000045 24.199999999999989 z" />
<glyph unicode="" horiz-adv-x="60" d="M32.299999999999997 90.099999999999994 C31.174999999999955 90.100000000000023 28.924999999999955 90.100000000000023 27.799999999999955 90.100000000000023 C24.475000000000023 87.574999999999989 17.825000000000045 82.524999999999977 14.500000000000000 80.000000000000000 C15.299999999999955 79.100000000000023 16.899999999999977 77.300000000000011 17.700000000000045 76.399999999999977 C20.774999999999977 78.375000000000000 26.924999999999955 82.324999999999989 30.000000000000000 84.300000000000011 C33.100000000000023 82.324999999999989 39.299999999999955 78.375000000000000 42.399999999999977 76.399999999999977 C43.174999999999955 77.300000000000011 44.725000000000023 79.100000000000023 45.500000000000000 80.000000000000000 C42.200000000000045 82.524999999999977 35.600000000000023 87.574999999999989 32.299999999999955 90.100000000000023 zM44.399999999999999 18.399999999999999 C45.899999999999977 13.800000000000011 48.899999999999977 4.600000000000023 50.399999999999977 0.000000000000000 C52.049999999999955 0.000000000000000 55.350000000000023 0.000000000000000 57.000000000000000 0.000000000000000 C51.299999999999955 17.175000000000011 39.899999999999977 51.524999999999977 34.200000000000045 68.699999999999989 C32.100000000000023 68.699999999999989 27.899999999999977 68.699999999999989 25.799999999999955 68.699999999999989 C20.100000000000023 51.524999999999977 8.700000000000045 17.175000000000011 3.000000000000000 0.000000000000000 C4.500000000000000 0.000000000000000 7.500000000000000 0.000000000000000 9.000000000000000 0.000000000000000 C10.500000000000000 4.600000000000023 13.500000000000000 13.800000000000011 15.000000000000000 18.399999999999977 C22.350000000000023 18.399999999999977 37.049999999999955 18.399999999999977 44.399999999999977 18.399999999999977 zM17.199999999999999 24.199999999999999 C20.350000000000023 33.824999999999989 26.649999999999977 53.074999999999989 29.799999999999955 62.699999999999989 C32.899999999999977 53.074999999999989 39.100000000000023 33.824999999999989 42.200000000000045 24.199999999999989 C35.950000000000045 24.199999999999989 23.450000000000045 24.199999999999989 17.200000000000045 24.199999999999989 z" />
<glyph unicode="" horiz-adv-x="60" d="M35.899999999999999 78.400000000000006 C39.700000000000045 78.399999999999977 43.200000000000045 80.300000000000011 45.799999999999955 85.600000000000023 C44.299999999999955 86.366666666666674 42.424999999999955 87.324999999999989 41.299999999999955 87.899999999999977 C39.399999999999977 84.800000000000011 37.799999999999955 83.399999999999977 35.899999999999977 83.399999999999977 C32.100000000000023 83.399999999999977 29.700000000000045 88.399999999999977 24.299999999999955 88.399999999999977 C19.799999999999955 88.399999999999977 16.600000000000023 85.199999999999989 14.399999999999977 80.899999999999977 C15.899999999999977 80.133333333333326 17.774999999999977 79.175000000000011 18.899999999999977 78.600000000000023 C20.500000000000000 81.699999999999989 22.000000000000000 83.300000000000011 24.200000000000045 83.300000000000011 C27.899999999999977 83.300000000000011 30.799999999999955 78.399999999999977 35.899999999999977 78.399999999999977 zM44.399999999999999 18.399999999999999 C45.899999999999977 13.800000000000011 48.899999999999977 4.600000000000023 50.399999999999977 0.000000000000000 C52.049999999999955 0.000000000000000 55.350000000000023 0.000000000000000 57.000000000000000 0.000000000000000 C51.299999999999955 17.175000000000011 39.899999999999977 51.524999999999977 34.200000000000045 68.699999999999989 C32.100000000000023 68.699999999999989 27.899999999999977 68.699999999999989 25.799999999999955 68.699999999999989 C20.100000000000023 51.524999999999977 8.700000000000045 17.175000000000011 3.000000000000000 0.000000000000000 C4.500000000000000 0.000000000000000 7.500000000000000 0.000000000000000 9.000000000000000 0.000000000000000 C10.500000000000000 4.600000000000023 13.500000000000000 13.800000000000011 15.000000000000000 18.399999999999977 C22.350000000000023 18.399999999999977 37.049999999999955 18.399999999999977 44.399999999999977 18.399999999999977 zM17.199999999999999 24.199999999999999 C20.350000000000023 33.824999999999989 26.649999999999977 53.074999999999989 29.799999999999955 62.699999999999989 C32.899999999999977 53.074999999999989 39.100000000000023 33.824999999999989 42.200000000000045 24.199999999999989 C35.950000000000045 24.199999999999989 23.450000000000045 24.199999999999989 17.200000000000045 24.199999999999989 z" />
</font>
</defs>
</svg>
